<?xml version="1.0" standalone="no"?>
<!DOCTYPE svg PUBLIC "-//W3C//DTD SVG 20010904//EN"
 "http://www.w3.org/TR/2001/REC-SVG-20010904/DTD/svg10.dtd">
<svg version="1.0" xmlns="http://www.w3.org/2000/svg"
 width="700.000000pt" height="700.000000pt" viewBox="0 0 700.000000 700.000000"
 preserveAspectRatio="xMidYMid meet">
<metadata>
Created by potrace 1.11, written by Peter Selinger 2001-2013
</metadata>
<g transform="translate(0.000000,700.000000) scale(0.100000,-0.100000)"
fill="#000000" stroke="none">
<path d="M2342 6950 c-58 -26 -109 -67 -151 -120 -35 -44 -38 -45 -76 -39 -82
14 -200 -4 -253 -39 -52 -34 -67 -111 -32 -167 31 -51 105 -71 170 -48 38 14
91 5 117 -19 13 -12 23 -25 23 -29 0 -5 37 -95 82 -200 78 -184 111 -237 148
-240 8 -1 26 -3 40 -4 50 -5 113 44 124 96 7 37 -5 75 -88 277 -42 101 -76
194 -76 207 0 30 41 78 89 106 95 53 96 175 1 224 -38 20 -66 19 -118 -5z"/>
<path d="M4570 6949 c-34 -12 -69 -66 -71 -110 -3 -42 29 -100 64 -116 41 -19
85 -63 92 -92 5 -22 -14 -76 -80 -236 -48 -115 -88 -220 -90 -235 -5 -43 28
-104 67 -123 40 -19 95 -16 131 7 28 19 33 28 142 284 50 119 85 186 98 193
12 7 41 9 76 4 133 -16 170 -6 201 56 42 82 -3 160 -109 189 -45 12 -159 16
-198 7 -18 -5 -29 4 -57 43 -51 71 -161 141 -218 139 -13 0 -34 -5 -48 -10z"/>
<path d="M3186 6717 c-20 -19 -36 -41 -37 -48 0 -8 -2 -23 -4 -33 -5 -26 20
-85 46 -107 12 -10 38 -21 58 -24 61 -10 121 -36 132 -57 9 -17 14 -276 6
-285 -2 -1 -34 -5 -72 -8 -75 -6 -158 -15 -184 -20 -9 -1 -50 -8 -91 -15 -437
-70 -901 -287 -1256 -587 l-51 -43 -96 99 c-85 86 -97 102 -96 132 0 19 8 46
17 60 9 14 27 41 39 60 52 79 9 178 -84 194 -68 11 -132 -41 -186 -152 -13
-28 -28 -68 -31 -87 -4 -20 -10 -36 -14 -37 -89 -9 -214 -76 -253 -136 -11
-16 -19 -46 -19 -72 0 -37 6 -49 40 -83 35 -35 44 -39 82 -37 40 3 77 18 105
46 20 18 82 35 107 29 13 -3 64 -49 115 -102 l91 -96 -58 -66 c-176 -200 -338
-463 -437 -709 -20 -48 -40 -97 -45 -108 -16 -36 -60 -186 -89 -304 -34 -135
-54 -256 -65 -394 -2 -27 -7 -51 -11 -55 -11 -11 -265 -2 -286 11 -23 14 -36
45 -49 117 -7 39 -19 64 -40 85 -26 26 -38 30 -85 30 -48 0 -58 -4 -86 -31
-55 -55 -50 -166 13 -286 l30 -56 -25 -44 c-64 -110 -79 -247 -32 -294 38 -39
102 -51 149 -29 37 18 76 81 76 123 0 32 16 68 41 91 21 19 34 21 161 21 l138
0 1 -32 c10 -344 132 -787 306 -1108 102 -188 247 -398 341 -496 6 -7 12 -17
12 -21 0 -5 -43 -51 -95 -102 -94 -93 -95 -94 -137 -89 -27 3 -64 19 -97 42
-31 21 -65 36 -83 36 -88 0 -150 -91 -118 -175 19 -50 112 -115 208 -145 54
-17 57 -20 68 -61 29 -111 113 -228 167 -230 15 -1 33 -2 40 -3 31 -5 78 29
98 71 26 53 20 88 -27 158 -56 83 -51 100 62 216 l97 98 51 -46 c80 -71 262
-205 366 -268 325 -199 718 -335 1065 -371 39 -3 77 -8 85 -10 8 -1 30 -3 48
-3 l32 -1 0 -133 c0 -106 -3 -137 -16 -156 -19 -26 -71 -51 -108 -51 -70 0
-129 -61 -128 -130 1 -75 58 -123 144 -121 55 1 160 34 200 62 l27 20 53 -30
c52 -29 146 -57 202 -60 69 -3 130 55 130 126 0 73 -48 119 -136 129 -51 6
-108 46 -109 77 0 12 -1 75 -2 140 -2 136 -15 122 122 132 46 3 94 7 105 10
12 2 39 7 61 9 152 20 343 69 520 133 140 51 324 139 457 219 113 68 326 223
362 263 11 11 23 21 27 21 9 0 146 -135 178 -176 31 -39 26 -74 -19 -142 -59
-87 -53 -160 16 -203 98 -60 200 15 259 191 18 53 27 66 46 68 40 6 119 41
166 73 77 53 102 123 69 188 -32 62 -116 82 -178 43 -93 -59 -121 -67 -154
-47 -20 13 -74 65 -156 151 l-37 39 55 65 c297 349 510 781 590 1195 2 11 8
43 14 70 5 28 12 68 15 90 9 80 18 161 21 185 1 14 2 29 3 33 1 10 249 7 278
-4 27 -10 52 -56 59 -112 12 -83 50 -124 122 -131 27 -2 49 3 71 16 79 50 82
155 9 304 l-30 62 25 38 c48 77 72 188 55 251 -12 45 -66 84 -117 85 -70 1
-116 -44 -127 -123 -4 -24 -12 -56 -19 -70 -27 -51 -38 -54 -187 -54 l-138 0
-1 25 c0 14 -2 43 -4 65 -2 22 -6 70 -10 106 -3 37 -8 77 -10 90 -3 13 -10 51
-16 84 -20 110 -25 131 -38 185 -65 253 -204 568 -348 790 -54 83 -164 230
-210 280 -13 14 -22 28 -21 32 7 20 185 189 205 194 29 8 54 -1 110 -40 59
-40 98 -49 142 -30 61 26 92 87 76 151 -14 56 -131 139 -231 163 -39 9 -41 12
-53 62 -13 62 -57 143 -101 186 -53 54 -129 55 -181 3 -52 -52 -48 -102 16
-206 44 -71 37 -89 -71 -198 -52 -53 -97 -97 -99 -97 -2 0 -10 6 -17 13 -35
33 -139 118 -193 158 -33 24 -62 46 -65 50 -3 3 -54 36 -113 73 -132 82 -310
172 -448 226 -220 86 -496 151 -704 166 -44 3 -86 7 -92 9 -16 5 -18 257 -3
286 14 25 56 46 110 54 87 13 131 55 132 126 0 46 -21 83 -65 109 -39 24 -73
25 -152 5 -65 -16 -95 -29 -137 -57 -15 -10 -29 -15 -32 -10 -6 10 -101 57
-141 69 -16 6 -57 11 -91 12 -57 2 -63 0 -98 -32z m554 -821 c14 -2 50 -7 80
-11 227 -26 536 -122 761 -235 155 -79 383 -235 503 -344 l49 -45 -33 -42
c-25 -30 -34 -53 -36 -85 -7 -116 135 -175 216 -89 13 14 27 25 30 25 10 0
114 -135 177 -230 211 -316 355 -715 390 -1085 9 -94 9 -408 0 -480 -3 -27 -9
-72 -12 -100 -3 -27 -8 -57 -10 -65 -2 -8 -7 -31 -10 -50 -3 -19 -17 -79 -31
-132 -91 -362 -288 -736 -532 -1010 l-24 -27 -37 29 c-133 105 -289 -57 -174
-181 l24 -26 -48 -43 c-164 -145 -446 -308 -688 -398 -112 -42 -263 -88 -319
-97 -17 -3 -38 -8 -46 -10 -14 -4 -40 -9 -107 -19 -32 -5 -102 -13 -183 -22
-129 -12 -389 -4 -525 17 -437 67 -828 237 -1161 505 -123 99 -122 97 -91 134
48 56 47 127 -2 174 -53 51 -129 49 -186 -4 -21 -20 -21 -19 -93 73 -91 116
-80 100 -135 185 -66 101 -148 256 -202 387 -45 107 -109 303 -120 368 -3 17
-10 48 -15 67 -4 19 -13 67 -19 105 -6 39 -13 86 -17 105 -9 57 -12 419 -3
498 40 358 132 646 311 972 43 77 171 261 234 334 l66 77 34 -35 c41 -42 90
-54 141 -35 91 35 105 142 29 221 l-26 27 62 52 c35 28 72 59 84 69 95 79 377
241 524 300 30 12 64 26 75 31 143 61 414 124 620 144 39 4 71 9 73 10 5 4
372 -4 402 -9z"/>
<path d="M4008 4715 c-2 -1 -43 -5 -93 -8 -183 -12 -340 -74 -443 -176 -106
-105 -143 -226 -147 -481 -3 -187 15 -289 69 -403 58 -120 129 -185 416 -377
167 -112 263 -183 300 -222 47 -48 65 -122 65 -268 0 -145 -15 -193 -70 -216
-42 -17 -103 -11 -127 14 -30 30 -37 87 -38 300 l0 192 -301 0 -302 0 6 -192
c10 -326 47 -447 170 -560 137 -124 364 -193 606 -183 124 5 183 15 287 50
109 37 218 104 277 170 46 52 81 150 102 280 8 51 8 309 0 372 -29 220 -77
330 -195 441 -68 65 -228 180 -386 277 -194 121 -237 159 -260 228 -23 68 -23
218 -1 269 30 71 114 95 163 46 30 -29 31 -42 33 -220 l1 -138 301 0 301 1 -6
162 c-3 89 -8 178 -11 197 -27 158 -72 234 -180 307 -107 71 -255 120 -395
129 -36 3 -82 6 -102 8 -21 2 -39 2 -40 1z"/>
<path d="M1617 4662 c-27 -3 -28 -6 -23 -40 8 -59 46 -314 50 -342 3 -14 7
-43 10 -65 3 -22 15 -96 25 -165 11 -69 22 -145 25 -170 4 -25 8 -56 11 -70 2
-14 14 -86 25 -160 24 -161 48 -326 70 -465 5 -33 12 -80 15 -105 3 -25 8 -56
10 -70 7 -40 14 -84 19 -121 6 -40 17 -119 31 -214 5 -29 26 -166 30 -194 3
-14 12 -75 20 -135 9 -61 18 -120 20 -131 2 -11 4 -22 4 -25 1 -3 220 -5 489
-5 l487 0 12 70 c6 39 14 93 17 120 3 28 14 118 26 200 11 83 22 168 25 191 3
22 8 52 10 65 2 13 6 49 10 79 3 30 7 66 9 80 3 14 7 48 11 75 3 28 8 65 11
83 11 81 14 105 29 222 9 69 19 141 21 160 8 67 25 187 28 206 2 10 7 48 11
84 4 36 9 72 10 80 1 8 6 40 10 70 3 30 8 66 10 80 2 14 7 50 11 80 4 30 8 64
9 75 2 11 11 76 20 145 9 69 18 136 20 150 2 14 7 52 11 85 3 33 8 63 11 68 5
9 29 8 -350 9 -175 0 -321 -3 -325 -6 -7 -8 -9 -21 -17 -116 -4 -41 -8 -86
-10 -100 -2 -14 -7 -61 -10 -105 -4 -44 -8 -91 -10 -105 -2 -14 -7 -61 -10
-105 -4 -44 -8 -91 -10 -105 -4 -30 -13 -119 -20 -212 -3 -37 -7 -85 -9 -105
-3 -21 -7 -74 -11 -118 -3 -44 -8 -109 -11 -145 -2 -36 -7 -87 -9 -115 -8 -87
-14 -177 -20 -270 -7 -102 -15 -124 -16 -44 0 30 -2 62 -4 73 -2 10 -7 62 -10
115 -4 53 -8 110 -10 126 -1 17 -6 62 -9 100 -4 39 -9 88 -11 110 -2 22 -7 72
-10 110 -6 76 -10 111 -25 250 -5 50 -12 119 -15 155 -3 36 -8 79 -10 95 -3
17 -7 59 -10 95 -4 36 -8 74 -10 86 -2 11 -6 52 -10 90 -4 38 -9 76 -10 84 -2
8 -6 48 -10 88 -7 69 -8 72 -34 73 -142 2 -602 3 -624 1z"/>
<path d="M4921 2437 l0 -252 232 0 232 0 3 253 2 252 -234 0 -235 0 0 -253z"/>
<path d="M302 5200 c-17 -11 -38 -29 -46 -42 -33 -51 -50 -190 -32 -263 5 -18
-2 -28 -34 -50 -72 -50 -150 -164 -150 -221 0 -64 57 -124 119 -126 39 -1 84
18 102 44 92 134 97 136 260 68 268 -113 311 -128 348 -124 48 6 75 25 96 70
31 65 4 138 -63 170 -20 10 -119 52 -220 95 -101 43 -190 86 -197 96 -17 22
-18 62 -4 135 10 47 9 61 -6 91 -31 67 -113 93 -173 57z"/>
<path d="M6592 5173 c-56 -27 -78 -95 -57 -168 15 -49 10 -94 -13 -117 -10
-10 -114 -58 -232 -108 -220 -91 -250 -111 -265 -167 -8 -35 11 -96 39 -122
15 -14 42 -25 68 -28 38 -4 73 7 256 81 117 47 223 86 236 86 32 0 80 -41 108
-92 37 -66 103 -86 173 -52 34 16 65 71 65 114 0 43 -47 117 -115 185 -62 60
-71 73 -65 95 12 43 2 164 -17 215 -31 84 -105 116 -181 78z"/>
<path d="M779 2524 c-35 -14 -73 -28 -84 -33 -92 -43 -303 -121 -325 -121 -20
0 -38 12 -64 40 -20 22 -36 43 -36 48 0 4 -11 20 -25 36 -21 24 -35 30 -80 34
-55 4 -57 4 -95 -37 -31 -32 -40 -50 -40 -77 0 -64 76 -181 150 -230 36 -24
37 -26 30 -66 -11 -58 -2 -161 18 -216 34 -92 136 -121 203 -56 44 42 52 76
34 144 -15 58 -9 100 18 126 12 12 90 48 172 82 295 119 309 128 322 205 6 41
-17 96 -49 116 -45 28 -82 29 -149 5z"/>
<path d="M6068 2511 c-63 -33 -85 -117 -48 -179 22 -35 62 -56 265 -139 185
-75 222 -94 235 -118 12 -23 10 -73 -5 -135 -30 -126 131 -210 216 -114 40 45
65 202 45 274 -6 22 -1 30 38 58 69 50 146 164 146 217 0 65 -57 125 -119 127
-39 1 -84 -18 -102 -44 -95 -139 -91 -139 -310 -48 -96 40 -193 81 -217 92
-59 26 -105 29 -144 9z"/>
<path d="M2334 971 c-35 -21 -72 -93 -175 -336 -68 -163 -80 -174 -167 -160
-108 17 -156 6 -188 -43 -52 -79 -3 -173 104 -202 50 -13 155 -17 193 -7 22 6
30 1 55 -33 38 -52 129 -124 177 -140 111 -36 202 62 157 170 -6 14 -20 33
-32 41 -141 96 -140 87 -37 329 45 107 88 211 95 231 22 62 4 117 -49 149 -41
25 -93 25 -133 1z"/>
<path d="M4507 969 c-37 -28 -55 -66 -52 -109 1 -19 41 -131 89 -249 47 -117
86 -224 86 -237 0 -30 -43 -80 -91 -105 -46 -23 -69 -63 -69 -120 0 -36 6 -48
40 -81 32 -29 49 -38 76 -38 64 0 181 76 230 150 24 36 26 37 67 29 53 -9 144
-4 198 12 82 25 124 98 99 174 -20 60 -93 91 -165 71 -45 -13 -45 -13 -96 -3
-42 9 -39 3 -123 209 -98 240 -121 285 -155 302 -42 22 -100 20 -134 -5z"/>
</g>
</svg>
