<?xml version="1.0" encoding="utf-8"?>
<!-- Generator: Adobe Illustrator 21.1.0, SVG Export Plug-In . SVG Version: 6.00 Build 0)  -->
<svg version="1.1" id="Layer_1" xmlns="http://www.w3.org/2000/svg" xmlns:xlink="http://www.w3.org/1999/xlink" x="0px" y="0px"
	 viewBox="0 0 167.3 159.9" style="enable-background:new 0 0 167.3 159.9;" xml:space="preserve">
<style type="text/css">
	.st0{fill:#5FCAFF;}
</style>
<title>arrow</title>
<path class="st0" d="M11.8,81.7c0.6,0.1,1.1,0.2,1.7,0.2c5.7-0.4,11.4-0.8,17.1-1.3c7-0.8,14-0.9,21-0.3c4.3,0.4,8.6,0.5,12.9,0.7
	c12.2,0.5,24.4,2.5,36.2,5.8c4,1.1,8,2.2,11.9,3.4c3.7,1.1,7.2,2.7,10.4,4.9c-0.2,5.2-0.3,10.4,0,15.8l39.4-23.4
	c-1.6-1.7-3.2-3.3-5.1-4.8c-5.5-4.8-11.2-9.5-16.6-14.4c-8.1-7.5-17.4-13.4-26.8-19.1c-0.6-0.2-1.3-0.4-1.9-0.5
	c3.4,9,8.7,17,10,26.7c-3-1.6-6.1-1.5-9-1.8c-10.7-0.8-21.3-1.5-32-2.2c-6.2-0.3-12.4-0.3-18.6-0.3c-2.5,0-5.1,0.3-7.6,0.7
	c-6.3,0.9-12.6,2-18.9,3C28.5,76,21.3,77.7,14.2,80C13.3,80.3,12.2,80.3,11.8,81.7z"/>
<path class="st0" d="M1.1,87.6c2.1,0,4.1-0.5,5.9-1.4c1.7-0.7,3.6-1.3,5.5-1.5c9-0.9,18.1-1.6,27.1-2.3c2-0.1,4.1,0,6.1,0.4
	c2.8,0.6,5.7,0.9,8.5,0.9c14.3-0.2,28.7,1.4,42.6,4.8c7,1.7,13.9,3.4,20.9,5.1c0.6,0.2,1.2,0.5,1.7,0.8c-0.3,4.9-0.6,9.5-0.9,14
	c-0.1,2.5-0.2,5.1-0.3,7.6c0,0.5,0.2,0.9,0.6,1.2c0.6,0.2,1.2,0.2,1.7,0c0.4-0.2,0.8-0.5,1.1-0.9c7.1-6.1,15-11.3,23.3-15.5
	c4.2-2.2,8.3-4.7,12.4-7.2c2.9-1.7,5.7-3.5,8.6-5.2c0.7-0.4,1.5-0.7,1.2-1.9c-1.9-0.1-3.6-1-4.9-2.4c-2.1-2.1-4.4-4.2-6.6-6.2
	c-9.8-9.1-19.3-18.5-30.9-25.5c-5.4-3.3-11-6.5-16.5-9.6c-0.9-0.3-1.8-0.4-2.7-0.5c1,2.5,1.7,4.6,2.6,6.6c3,6.5,6.1,13,9.1,19.4
	c0.3,0.9,0.5,1.9,0.7,2.8l-17-1.3c-1.8-0.1-3.5-0.2-5.2-0.5c-11.7-1.6-23.5-2.2-35.2-1.9c-3.2,0-6.4,0.3-9.5,0.8
	c-7.1,1.2-14.2,2.4-21.2,3.8c-8,1.5-15.8,3.8-23.3,6.9c-1.9,0.8-3.7,1.8-5.3,3C-0.5,83.9-0.4,84.7,1.1,87.6z M11.8,81.7
	c0.4-1.5,1.5-1.4,2.4-1.7c7.1-2.3,14.4-4.1,21.8-5.3c6.3-1,12.6-2.1,18.9-3c2.5-0.4,5.1-0.6,7.6-0.7c6.2,0,12.4,0,18.6,0.3
	c10.7,0.6,21.3,1.4,32,2.2c3,0.2,6.1,0.2,9,1.8c-1.3-9.7-6.6-17.7-10-26.7c0.7,0.1,1.3,0.2,1.9,0.5c9.4,5.7,18.6,11.6,26.8,19.1
	c5.4,4.9,11,9.6,16.6,14.4c1.8,1.5,3.5,3.1,5.1,4.8L123,110.8c-0.2-5.4-0.2-10.6,0-15.8c-3.2-2.2-6.7-3.8-10.4-4.9
	c-4-1.2-7.9-2.3-11.9-3.4c-11.8-3.3-24-5.2-36.3-5.7c-4.3-0.2-8.6-0.3-12.9-0.7c-7-0.6-14-0.5-21,0.3c-5.7,0.6-11.4,0.9-17.1,1.3
	C12.9,81.9,12.3,81.8,11.8,81.7L11.8,81.7z"/>
</svg>
