<svg xmlns="http://www.w3.org/2000/svg" viewBox="8846 2990.745 101.887 104.181"><defs><style>.a{fill:#fff;}</style></defs><g transform="translate(8846 2990.745)"><path class="a" d="M102.293,208.874a2.38,2.38,0,0,0-2.374-2.374H91.674a2.38,2.38,0,0,0-2.374,2.374v8.244a2.38,2.38,0,0,0,2.374,2.374h8.244a2.38,2.38,0,0,0,2.374-2.374Zm0,0" transform="translate(-65.476 -151.408)"/><path class="a" d="M179.593,208.874a2.38,2.38,0,0,0-2.374-2.374h-8.244a2.38,2.38,0,0,0-2.374,2.374v8.244a2.38,2.38,0,0,0,2.374,2.374h8.244a2.38,2.38,0,0,0,2.374-2.374Zm0,0" transform="translate(-122.153 -151.408)"/><path class="a" d="M256.893,208.874a2.38,2.38,0,0,0-2.374-2.374h-8.244a2.38,2.38,0,0,0-2.374,2.374v8.244a2.38,2.38,0,0,0,2.374,2.374h8.244a2.38,2.38,0,0,0,2.374-2.374Zm0,0" transform="translate(-178.83 -151.408)"/><path class="a" d="M102.293,286.275a2.38,2.38,0,0,0-2.374-2.374H91.674a2.38,2.38,0,0,0-2.374,2.374v8.244a2.38,2.38,0,0,0,2.374,2.374h8.244a2.38,2.38,0,0,0,2.374-2.374Zm0,0" transform="translate(-65.476 -208.159)"/><path class="a" d="M179.593,286.275a2.38,2.38,0,0,0-2.374-2.374h-8.244a2.38,2.38,0,0,0-2.374,2.374v8.244a2.38,2.38,0,0,0,2.374,2.374h8.244a2.38,2.38,0,0,0,2.374-2.374Zm0,0" transform="translate(-122.153 -208.159)"/><path class="a" d="M256.893,286.275a2.38,2.38,0,0,0-2.374-2.374h-8.244a2.38,2.38,0,0,0-2.374,2.374v8.244a2.38,2.38,0,0,0,2.374,2.374h8.244a2.38,2.38,0,0,0,2.374-2.374Zm0,0" transform="translate(-178.83 -208.159)"/><path class="a" d="M92.816,43.353V55.946a10.293,10.293,0,0,1-10.325,10.3h-6.51A10.339,10.339,0,0,1,65.6,55.946V43.3H36.283V55.946a10.356,10.356,0,0,1-10.378,10.3H19.4a10.31,10.31,0,0,1-10.325-10.3V43.353A9.384,9.384,0,0,0,0,52.691v73.847a9.394,9.394,0,0,0,9.338,9.391H92.549a9.394,9.394,0,0,0,9.338-9.391V52.691a9.384,9.384,0,0,0-9.071-9.338Zm-3.041,78.6a4.025,4.025,0,0,1-4.029,4.028H15.954a4.025,4.025,0,0,1-4.029-4.028V83.8a4.025,4.025,0,0,1,4.029-4.029H85.746A4.025,4.025,0,0,1,89.775,83.8Zm0,0" transform="translate(0 -31.748)"/><path class="a" d="M62.848,27.746h6.43A3.564,3.564,0,0,0,72.826,24.2V3.548A3.547,3.547,0,0,0,69.278,0h-6.43A3.547,3.547,0,0,0,59.3,3.548V24.2a3.547,3.547,0,0,0,3.548,3.548Zm0,0" transform="translate(-43.479 0)"/><path class="a" d="M274.748,27.746h6.43a3.547,3.547,0,0,0,3.548-3.548V3.548A3.547,3.547,0,0,0,281.178,0h-6.43A3.547,3.547,0,0,0,271.2,3.548V24.2a3.564,3.564,0,0,0,3.548,3.548Zm0,0" transform="translate(-198.847 0)"/></g></svg>