<svg id="Layer_1" data-name="Layer 1" xmlns="http://www.w3.org/2000/svg" viewBox="0 0 150 150"><defs><style>.cls-1{fill:#fff;}</style></defs><title>PowerUp-Latest-Version-Final-Final</title><path class="cls-1" d="M75,0a75,75,0,1,0,75,75A75,75,0,0,0,75,0Zm29.23,67.56-.07.16a30.34,30.34,0,0,1-2.3,5.55L79.81,116.73a5.49,5.49,0,0,1-.24.57l-.12.3h0a5,5,0,0,1-8.74,0h0l-.06-.15a5,5,0,0,1-.38-.92L48.3,73.43a30.31,30.31,0,0,1-2.4-5.79l0-.08h0a30.42,30.42,0,1,1,58.33,0Z"/><path class="cls-1" d="M75,45.24A15.21,15.21,0,1,0,90.25,60.45,15.2,15.2,0,0,0,75,45.24Z"/></svg>