<svg id="Layer_1" data-name="Layer 1" xmlns="http://www.w3.org/2000/svg" viewBox="0 0 150 150"><defs><style>.cls-1{fill:#fff;}</style></defs><title>PowerUp-Latest-Version-Final-Final</title><path class="cls-1" d="M75,0a75,75,0,1,0,75,75A75,75,0,0,0,75,0ZM94.23,88.61l7.33,7.33a13.73,13.73,0,1,1-6.41,6.48l-7.36-7.36a22.79,22.79,0,0,1-25.12,0l-7.36,7.36a13.57,13.57,0,1,1-6.41-6.47l7.33-7.33a22.84,22.84,0,0,1,0-25.12L48.9,56.17a13.73,13.73,0,1,1,6.41-6.47l7.36,7.36a22.81,22.81,0,0,1,25.12,0l7.36-7.36a13.57,13.57,0,1,1,6.41,6.47L94.23,63.5A22.85,22.85,0,0,1,94.23,88.61Z"/></svg>