<svg id="Layer_1" data-name="Layer 1" xmlns="http://www.w3.org/2000/svg" viewBox="0 0 150 150"><defs><style>.cls-1{fill:#fff;}</style></defs><title>PowerUp-Latest-Version-Final-Final</title><path class="cls-1" d="M75,0a75,75,0,1,0,75,75A75,75,0,0,0,75,0Zm31.47,52.48a9.27,9.27,0,1,1-9.27,9.27A9.27,9.27,0,0,1,106.47,52.48ZM75,42A11.62,11.62,0,1,1,63.37,53.62,11.62,11.62,0,0,1,75,42ZM43.52,52.48a9.27,9.27,0,1,1-9.27,9.27A9.27,9.27,0,0,1,43.52,52.48ZM52,104.18a59.52,59.52,0,0,1-10.18.59c-4.52-.28-8.39-3.33-10.9-6.92-2.94-4.2-3.36-8.62-3.73-13.6a5.08,5.08,0,0,1,3.54-4.77,59.66,59.66,0,0,1,12.77-1.37q2.48,0,5,.21a1.51,1.51,0,0,1,1.35,1.62,8.26,8.26,0,0,0,0,1Q50.4,88.41,51,96.22a16,16,0,0,0,2.61,7.47A6.27,6.27,0,0,1,52,104.18Zm34.16,3a78.15,78.15,0,0,1-22.38,0c-4.76-.79-9.1-5.93-9.49-11.22s-.75-10.32-1.12-15.3a7.1,7.1,0,0,1,5-6.77,78.7,78.7,0,0,1,33.51,0,7.1,7.1,0,0,1,5.06,6.76q-.56,7.5-1.12,15.31C95.29,101.26,90.95,106.39,86.2,107.19Zm22-2.42A60.24,60.24,0,0,1,98,104.19a6.22,6.22,0,0,1-1.55-.49A16,16,0,0,0,99,96.22q.56-7.81,1.12-15.32a8.25,8.25,0,0,0,0-1,1.51,1.51,0,0,1,1.35-1.62q2.48-.21,5-.21a59.42,59.42,0,0,1,12.71,1.37,5.09,5.09,0,0,1,3.57,4.76C122.21,93,118.67,104.1,108.17,104.77Z"/></svg>