<svg id="Layer_1" data-name="Layer 1" xmlns="http://www.w3.org/2000/svg" viewBox="0 0 150 150"><defs><style>.cls-1{fill:#fff;}</style></defs><title>PowerUp-Latest-Version-Final-Final</title><path class="cls-1" d="M75,0a75,75,0,1,0,75,75A75,75,0,0,0,75,0ZM91.41,39.56a5.39,5.39,0,0,1,10.78,0v16a5.39,5.39,0,1,1-10.78,0ZM77.22,34.11a5.39,5.39,0,1,1,10.78,0V55.53a5.39,5.39,0,1,1-10.78,0Zm-14.2,0a5.39,5.39,0,0,1,10.78,0V55.53a5.38,5.38,0,0,1-3,4.83A30.55,30.55,0,0,0,64.3,59a15.53,15.53,0,0,0,6.28-5.6,16.34,16.34,0,0,0,2.54-7.67l.09-2.82H63Zm-14.19,0a5.39,5.39,0,1,1,10.78,0v8.8H48.83Zm51.86,55.07v30.25h-45V90.67L35.59,66.79l8.6-21.15H70.4S70,58.19,54.7,58.33l-.55,4.1s12.15-3.69,23.06,4.23c0,0,15.56-5.19,27-.14Z"/></svg>