<svg xmlns="http://www.w3.org/2000/svg" viewBox="9215.182 3147.363 100 100"><defs><style>.a{fill:#fff;}</style></defs><path class="a" d="M50,0a50,50,0,1,0,50,50A50.018,50.018,0,0,0,50,0ZM46.933,78.667H18.467a2.377,2.377,0,0,1-2.4-2.333c-.133-4.8,1.333-9,4.267-11.933a16.42,16.42,0,0,1,11.533-4.733,11.867,11.867,0,1,1,1.6,0A17.144,17.144,0,0,1,45,64.4a15.957,15.957,0,0,1,4.267,11.933A2.362,2.362,0,0,1,46.933,78.667ZM57,52.067a2.314,2.314,0,0,1-1.667.667,2.63,2.63,0,0,1-1.667-.667,2.414,2.414,0,0,1,0-3.4,6.438,6.438,0,0,0,0-9.133,2.4,2.4,0,0,1,3.4-3.4A11.453,11.453,0,0,1,57,52.067Zm7.267,7.6a2.387,2.387,0,0,1-1.667-.733,2.414,2.414,0,0,1,0-3.4,16.215,16.215,0,0,0,0-22.933A2.4,2.4,0,0,1,66,29.2a20.963,20.963,0,0,1,0,29.667A2.218,2.218,0,0,1,64.267,59.667ZM73.4,69.6a2.261,2.261,0,0,1-3.333,0,2.414,2.414,0,0,1,0-3.4,31.264,31.264,0,0,0,0-44.2,2.4,2.4,0,1,1,3.4-3.4A36.153,36.153,0,0,1,73.4,69.6Z" transform="translate(9215.182 3147.363)"/></svg>