<svg id="Layer_1" data-name="Layer 1" xmlns="http://www.w3.org/2000/svg" xmlns:xlink="http://www.w3.org/1999/xlink" viewBox="0 0 150 150"><defs><style>.cls-1{fill:none;}.cls-2{fill:#fff;}.cls-3{fill:url(#New_Gradient_Swatch_copy);}.cls-4{opacity:0.15;fill:url(#New_Pattern);}</style><linearGradient id="New_Gradient_Swatch_copy" y1="75" x2="150" y2="75" gradientUnits="userSpaceOnUse"><stop offset="0" stop-color="#ff671f"/><stop offset="1" stop-color="#e03b14"/></linearGradient><pattern id="New_Pattern" data-name="New Pattern" width="490.98" height="491.19" patternTransform="translate(3744.52 -60)" patternUnits="userSpaceOnUse" viewBox="0 0 490.98 491.19"><rect class="cls-1" width="490.98" height="491.19"/><g id="dr5iY0"><path class="cls-2" d="M90.32,89.08c7.56-1,14.23-4.44,21.08-7.41,8.8-3.81,17.84-6.5,27.54-6.29,16.48.37,27.78,8.25,34,23.48,2.08,5.06,3.46,10.39,5.94,15.28,4.74,9.34,11.59,16.53,21.46,20.51a24.92,24.92,0,0,0,7.7,1.72,55.54,55.54,0,0,1,12.73,2.53,31.15,31.15,0,0,0,7.55,1.58c4.8.25,7.34-1.75,8.09-6.5a32,32,0,0,0-2.07-16.84,58.61,58.61,0,0,0-5.85-11c-5.2-7.88-9.55-16.13-11.19-25.55a85.64,85.64,0,0,1-.32-25c1.8-15,3.86-29.94,4.19-45.06C221.3,7,221,3.52,221,0h1.13c0,4.52.18,9,0,13.56-.44,12.71-1.92,25.32-3.59,37.92-1.22,9.18-1.8,18.39-.38,27.63,1.52,9.87,6,18.44,11.38,26.65,4.43,6.75,7.88,13.89,8.27,22.17a25.63,25.63,0,0,1-.49,7.13c-1,4.43-3.64,6.52-8.19,6.48a22.3,22.3,0,0,1-6.13-1,84.22,84.22,0,0,0-16-3.33c-8.49-.8-15.2-5.23-21-11.2-5.53-5.67-8.9-12.57-11.37-20A64.58,64.58,0,0,0,168.24,92c-5.91-9.43-14.64-14.23-25.53-15.36-10-1-19.49,1.23-28.65,5.09-4.87,2-9.7,4.16-14.6,6.14a26.75,26.75,0,0,1-9.34,2,2.4,2.4,0,0,1-1.28.13c-.16,0-.38,0-.37-.51C88.88,89,89.81,89.6,90.32,89.08Z"/><path class="cls-2" d="M338.76,0c-2.15,2.86-4.14,5.85-6.47,8.56-5,5.86-7,12.68-6.72,20.23a49,49,0,0,0,4.13,18.09c3.35,7.59,9.61,9.56,16.8,5.42a31.32,31.32,0,0,0,7-5.62,33.93,33.93,0,0,1,9-7c.64.17.64.18,0,1-4.21,2.5-7.49,6.08-11,9.38a21.31,21.31,0,0,1-7.7,4.62c-5.88,2-11.27.16-14.06-5.43-4.78-9.59-6.64-19.71-4.16-30.34a25.41,25.41,0,0,1,5.05-10A79.59,79.59,0,0,0,337.25,0Z"/><path class="cls-2" d="M365.95,0c-3.23,3.11-7.28,4.32-11.57,4.92a27.13,27.13,0,0,0-6.59,1.54c-4.78,2-7.59,5.41-8,10.66a33.64,33.64,0,0,0,.94,11.39,10.43,10.43,0,0,0,1.61,3.38c2.61,3.62,5.79,3.77,8.7.4,5.46-6.35,15.53-9.18,23.57-6.62.23.16.51.32.42.66s-.29.28-.52.15a29.12,29.12,0,0,0-10.3-.33,21.92,21.92,0,0,0-12.44,6.93c-3.6,3.95-8.14,3.56-10.59-1.19A23.61,23.61,0,0,1,340,12.36C342,6.78,347.18,5,352.6,4.16a28.27,28.27,0,0,0,8.7-2.3A6.67,6.67,0,0,0,364.06,0Z"/><path class="cls-2" d="M190.75,0c-.79,5-.47,10-.2,15,.6,11,2.11,22,3,33,.44,5.26.72,10.53-.2,15.78a17.84,17.84,0,0,1-.81,3.09c-1.43,3.87-4,5.54-8.13,5.21a12.52,12.52,0,0,1-5.65-1.68c-.13-.1-.28-.19-.22-.4s.26-.32.51-.25a14.61,14.61,0,0,0,5.28,1.26c4,.28,6.32-1.27,7.45-5.13a38.59,38.59,0,0,0,1-13.1c-.59-11.12-2.23-22.15-3-33.25-.47-6.52-1-13.05-.19-19.59Z"/><path class="cls-2" d="M475.07,0a79,79,0,0,1,1.14,10.08A49,49,0,0,1,474.88,22a21.35,21.35,0,0,0-.67,5.78c.08,2.21.42,4.34,2.8,5.29,2.1.84,5.53-.11,7.1-1.88a10.52,10.52,0,0,0,2.3-6.44c.31-3.75.48-7.52.78-11.27s2-6.8,3.68-10L490.93,6c-2.21,3.17-2.77,6.82-3,10.54a85.6,85.6,0,0,1-.81,10.51c-.88,4.7-3.76,7.22-8.21,7.29-3,0-4.72-1.26-5.44-4.16a14.87,14.87,0,0,1,.14-7.28A49.14,49.14,0,0,0,473.94,0Z"/><path class="cls-2" d="M52.93,0c1.83,3.12,4.44,5.58,7,8.07C64.27,12.32,69,16,74.86,18c5.59,2,10.56,1.16,15-3.09A44.64,44.64,0,0,0,100.13,0h1.13A44.43,44.43,0,0,1,90,16.25c-4.38,4-9.28,4.63-14.73,3A32.08,32.08,0,0,1,65.29,14,66.86,66.86,0,0,1,51.42,0Z"/><path class="cls-2" d="M77.48,29.47c5.08,0,10.16.42,15.23-.24,11.41-1.48,19.3-7.86,24.58-17.77a32.69,32.69,0,0,0,4-11.47h1.13c-2.87,15.24-14.12,30.07-32.82,30.54A84.73,84.73,0,0,1,77,30.26C77,29.89,77.28,29.72,77.48,29.47Z"/><path class="cls-2" d="M469.67,46.88a49.07,49.07,0,0,1-16.57-9.08c-5.7-4.87-6.85-11.53-3.36-18.18a18.06,18.06,0,0,1,1.63-2.75c4.34-5.57,3.46-11.2.28-16.88h1.51c.54,1.6,1.14,3.18,1.61,4.8A13.1,13.1,0,0,1,453,16.32a27.26,27.26,0,0,0-3.36,6.09c-1.8,5.07-.86,9.58,2.88,13.38,4.46,4.53,10.1,7.18,15.87,9.59l1.73.74C470.4,46.64,470.37,47,469.67,46.88Z"/><path class="cls-2" d="M18.95,0A11.71,11.71,0,0,1,15.4,7.66c-.59.65-1.28,1.21-1.83,1.89a5,5,0,0,0-.06,6.58,10.53,10.53,0,0,0,10.71,4,11.07,11.07,0,0,0,9.06-8.57A29.3,29.3,0,0,0,33.67,0h1.13c.16,3.84.36,7.67-.42,11.47A12.41,12.41,0,0,1,14.1,18.36c-3.6-3.12-3.85-7.21-.42-10.48A15.53,15.53,0,0,0,18.19,0Z"/><path class="cls-2" d="M237.95,0c-.45,4-1.13,8-1.31,12a37.33,37.33,0,0,0,2,14.44c3.3,9.33,1.57,18.48-2,27.4A1.85,1.85,0,0,1,235.45,55c-.44-.76.14-1.32.38-1.91,2.93-7.39,4.25-15,2.86-22.91-.57-3.24-2.42-6.08-2.77-9.38A62.8,62.8,0,0,1,237.19,0Z"/><path class="cls-2" d="M291.89,50.45c.82-7.71-1.35-14.91-3.75-22.08C285,19.07,284.19,9.61,286.66,0h1.13c-2.9,10.35-1.38,20.4,2,30.32,1.94,5.61,3.47,11.29,3.21,17.3,0,1.12-.22,2.24-.33,3.36-.17.23-.34.54-.67.37S291.78,50.78,291.89,50.45Z"/><path class="cls-2" d="M135.62,0c-.19,2.37-.81,4.69-.79,7.09,0,4.52,2.35,7.16,6.77,6.45,8.9-1.44,17.33-4,21.21-13.54h1.13a17.58,17.58,0,0,1-9.26,10.39c-3.75,1.81-7.49,3.55-11.65,4.18-6,.91-9.48-2.1-9.23-8.2.09-2.13.45-4.24.69-6.36Z"/><path class="cls-2" d="M419.19,41.53c1.52-3.81,1.26-7.76.88-11.7-.52-5.49-1.3-11-1.26-16.5,0-4.36-2.61-7.35-6-9.68-1.94-1.35-4.06-2.44-6.1-3.65H409a52.14,52.14,0,0,1,5.65,3.7c3.45,2.89,5.46,6.4,5.28,11.09-.22,5.72,1,11.36,1.33,17,.2,3.07.35,6.13-.85,9.07C419.92,41,419.95,42,419.19,41.53Z"/><path class="cls-2" d="M302.52,40.78c-3.75-10.34-6-20.85-3.44-31.88.72-3.14,2.25-6,3.44-8.9H304c-6.22,10.11-5.84,20.88-3.18,31.86.69,2.86,1.65,5.66,2.49,8.48C303.35,41,303,41,302.52,40.78Z"/><path class="cls-2" d="M315.35,0a39.22,39.22,0,0,0-5,11.08c-1.21,5-.25,9.82.54,14.71a79.18,79.18,0,0,1,1,10.46c-.23.26-.52.18-.8.12-.64-5.61-1.43-11.2-2.16-16.8C308,12.4,310.2,5.91,314.22,0Z"/><path class="cls-2" d="M258.34,0a43,43,0,0,0,2.27,26.35c.63,1.48,1,3.07,1.52,4.61-.24.31-.61-.5-.81.1C256.7,21.14,254.93,10.84,257.2,0Z"/><path class="cls-2" d="M432,28.32A60.74,60.74,0,0,1,431.47,15c.42-5.4.08-10.49-3.22-15h1.51c0,1,.79,1.52,1.16,2.3a14.94,14.94,0,0,1,1.74,7.24c-.35,6.27-.11,12.52.1,18.78A.5.5,0,0,1,432,28.32Z"/><path class="cls-2" d="M205.84,28.32c.14-6.25.73-12.48.43-18.74A32,32,0,0,0,204.72,0h1.13a28.34,28.34,0,0,1,1.33,7.59,116.78,116.78,0,0,1-.55,20.34C206.4,28.13,206.29,28.57,205.84,28.32Z"/><path class="cls-2" d="M442.22,0a28.78,28.78,0,0,1-.67,19.27c-.49.28-.22,1.38-1.21,1.12,1.74-5.73,3-11.5,1.51-17.5-.24-1-.51-1.93-.77-2.89Z"/><path class="cls-2" d="M275,0c-2.47,5.84-4.59,11.79-5.34,18.14-.37,1.1.11,2.31-.56,3.41a9.85,9.85,0,0,1-.18-4.35c.27-5.07,2-9.76,3.82-14.42.36-.93.75-1.85,1.12-2.78Z"/><path class="cls-2" d="M174.53,15.1,175.27,0h1.13c-.26,4.52-.51,9-.78,13.55,0,.68-.2,1.36-.3,2C175,15.57,175.16,14.67,174.53,15.1Z"/><path class="cls-2" d="M.07,5.27C-.22,3.49.45,1.77.45,0H2C1.48,1.81,1.29,3.73.07,5.27Z"/><path class="cls-2" d="M289.63,453.85c.3-5.1.37-10.17-1-15.17A38.74,38.74,0,0,0,285,430c-3.68-6.56-9.62-9.28-16.84-9.74-5.73-.36-11.44.2-17.15.57-8.67.56-17.24.46-25.35-3.29A29.9,29.9,0,0,1,219,413.7c-2.4-2-3.41-4.47-2.52-7.54a26.55,26.55,0,0,1,1.22-3.56c3.25-7.21,1.48-13.46-3.54-19.13-4-4.49-8.67-8.21-13.27-12-5.48-4.53-11-9-15.59-14.49-2.91-3.52-5.49-7.23-6.07-11.94a11.78,11.78,0,0,1,3.6-10.1,6.63,6.63,0,0,1,4.39-1.94,22.11,22.11,0,0,1,9.57,1.75c7.5,2.85,14.35,7,21.35,10.81,4,2.2,8.07,4.36,12.25,6.26,9.52,4.32,18.93,3.61,28.3-.5,7.25-3.18,14.53-6.3,22-8.88a30.89,30.89,0,0,1,7.28-1.89c.94-.31,1.21.08,1,1s-1,.93-1.65,1.1c-9.62,2.44-18.62,6.54-27.66,10.48a39,39,0,0,1-21.89,3.16,32.94,32.94,0,0,1-8.93-2.92c-7.24-3.38-14.11-7.48-21.16-11.23a78.49,78.49,0,0,0-14.64-6.47,19.28,19.28,0,0,0-4.08-.7c-4.48-.32-8.39,4.48-7.81,9.54a15.94,15.94,0,0,0,2.1,6c2.78,5,6.73,8.9,10.92,12.65,6.88,6.16,14.41,11.58,20.78,18.33,3.41,3.61,5.89,7.64,6.34,12.74a17,17,0,0,1-.66,5.95c-.5,1.89-1.38,3.65-1.92,5.52-1,3.34-.52,4.93,2.35,7a33,33,0,0,0,11.31,5c6.61,1.74,13.33,1.3,20.06,1,7.26-.35,14.56-1.36,21.75.58a19.57,19.57,0,0,1,11.7,8.36c4.87,7.47,6.4,15.74,5.78,24.51a2.15,2.15,0,0,1-.57,1.56C290.64,454,290.17,454.21,289.63,453.85Z"/><path class="cls-2" d="M86,315.61c6.93-1.5,13.75-3.67,21-3a23.88,23.88,0,0,1,13.54,5.6A123.51,123.51,0,0,1,139,337.81a64.37,64.37,0,0,0,13.29,13c8.92,6.41,10.73,19.62,4,27.78a11.15,11.15,0,0,1-5.93,3.8c-1.09.29-2.18.6-3.27.91-5.88,1.68-9.7,5.32-11,11.43a28.6,28.6,0,0,1-1.76,6,11.2,11.2,0,0,1-5.9,5.8c-3.93,1.71-8.14,2.08-12.29,2.77-1.36.23-2.73.46-4.09.68-6,.93-10.7,3.81-13.73,9.19a.84.84,0,0,1-.83.18c-1.09-.86-.37-1.69.09-2.48,2.77-4.68,7-7.2,12.2-8.47,3.67-.9,7.44-1.24,11.16-1.86a44.94,44.94,0,0,0,4.77-1.13,10.34,10.34,0,0,0,7.59-7.65c.34-1.21.67-2.43.95-3.65,1.58-6.89,5.93-11,12.66-12.82.3-.08.61-.17.92-.22,6.16-1.07,9.1-5.2,10.13-10.94a17.85,17.85,0,0,0-3.41-14.61,15.47,15.47,0,0,0-3.63-3.27c-5.78-4-10.38-9.09-14.59-14.61a101.37,101.37,0,0,0-18.35-18.88c-4.7-3.64-10.16-4.66-16-4.13a125.18,125.18,0,0,0-12.42,2.26c-.94.18-1.94.7-2.92,0A1.51,1.51,0,0,1,86,315.61Z"/><path class="cls-2" d="M196.08,143.46c12.66,3.34,19.82,9.69,21.86,23.3,1.3,8.69,5.51,15.23,13.28,19.43,1.22.66,2.39,1.39,3.56,2.12a21.8,21.8,0,0,1,10.11,13.51c1.94,7.57,5.09,14.62,10.6,20.34,3.64,3.78,8.16,6.47,12.33,9.6a114.23,114.23,0,0,1,10.94,8.93c5.57,5.36,7.67,11.62,5.37,19.18-1.06,3.48-2.06,7-3,10.52a12.51,12.51,0,0,0,1.51,10.49c.8,1.2,1.41,2.52,2.11,3.78.19.58.5,1.17-.11,1.69-.79.3-1.22-.27-1.52-.78-1.84-3.19-4.16-6.19-4.42-10.07a23.34,23.34,0,0,1,.93-7.44c.83-3.23,1.85-6.4,2.74-9.61,1.69-6.15-.1-11.22-4.42-15.67-4.05-4.18-8.82-7.47-13.46-10.91a100.15,100.15,0,0,1-10.22-8,34.8,34.8,0,0,1-6.3-8.65,52.77,52.77,0,0,1-5.12-12.94c-1.24-5.28-4.35-9.08-8.8-12-2.68-1.75-5.6-3.13-8.14-5.11a25.6,25.6,0,0,1-9.34-14.86c-.46-2-.73-4-1.15-5.92-1.92-9-7.36-14.78-16-17.76-1-.35-2-.68-3-1.06-.69-.26-1.26-.59-1.25-1.45C195.35,143.67,195.51,143.3,196.08,143.46Z"/><path class="cls-2" d="M86,315.61c.41.09,1,.06.5.76-.07.78-.65,1-1.27,1.19a6,6,0,0,1-7.57-5.3c-.3-3.89,1.47-7,3.91-9.69,5.39-6,12.13-10.12,19.52-13.21a33.31,33.31,0,0,1,10.35-2.74,8,8,0,0,1,4.25.57c4.9,2.51,10.27,3.31,15.53,4.53,4.56,1.06,9,2.44,12.63,5.6a21.54,21.54,0,0,1,2.63,2.95A42.52,42.52,0,0,0,173.32,316c3.86.66,7.63-.22,11.43-.73a28.17,28.17,0,0,1,12.09,1.23c.72.22,1.47.48,1.53,1.44a.9.9,0,0,1-.47.8c-6.15-1.89-12.3-1.7-18.64-.72-6.6,1-12.84-1.09-18.72-4a44.22,44.22,0,0,1-16.2-13.26c-2.85-3.84-7.09-5.51-11.55-6.63-3.41-.86-6.87-1.54-10.3-2.33a16.61,16.61,0,0,1-5.15-1.8,10.07,10.07,0,0,0-8-1.1c-10.61,2.54-19.77,7.6-27,15.9a11.33,11.33,0,0,0-2.59,5c-.88,3.91.84,6,4.79,5.84Z"/><path class="cls-2" d="M489.54,156.76c.61.14,1.56-.16,1.38,1a6.67,6.67,0,0,1-3.62,1.38,81.52,81.52,0,0,1-13.88,1.11,50.25,50.25,0,0,1-13.61-1.74,22.09,22.09,0,0,0-17,1.65c-5.81,2.89-11,6.6-14.64,12.13-3.8,5.81-4,12.11-1.53,18.4,1.61,4.12,5.36,5.66,9.5,6.14A62.91,62.91,0,0,1,455.76,202a52.54,52.54,0,0,1,8.25,4.91c2.2,1.57,4.44,3.09,6.77,4.45.81.47,2,.77,1.89,2.09-.76,1.13-1.47-.1-2.22,0a40.84,40.84,0,0,1-7-4.42c-7.81-5.9-16.73-8.78-26.32-10-10-1.23-13.84-5.84-14-15.91-.11-7.43,3.13-13,8.46-17.74,5.92-5.23,12.49-9.11,20.56-9.82a17.13,17.13,0,0,1,6.16.63,61.63,61.63,0,0,0,27.29,1.2C486.93,157.12,488.24,157,489.54,156.76Z"/><path class="cls-2" d="M289,227.29c-4.26-2.89-8.82-5.33-12.86-8.55-4.46-3.56-7.68-7.93-6.77-13.9,1.53-10-2.46-17.73-8.88-24.78-2.79-3.07-5.41-6.29-8.77-8.79-4-3-5.28-7-4.83-11.77.4-4.38,1.4-8.68,1.42-13.11.06-12.67-2.61-24.83-6.52-36.79-.29-.89-.53-1.8-.8-2.7,0-.68.28-.68.76-.42a122.27,122.27,0,0,1,7.2,30,76.48,76.48,0,0,1-.89,21.79A12.29,12.29,0,0,0,253,171c5.67,4.39,10,10.07,14,16a21.51,21.51,0,0,1,3.54,14c-.07.88,0,1.77-.14,2.64-.78,6.13,1.77,10.7,6.5,14.37,3.59,2.78,7.61,4.9,11.29,7.53.41.29.79.61,1.19.91C289.5,226.85,289.69,227.27,289,227.29Z"/><path class="cls-2" d="M270,174c-7.64-1.93-13.76-8.23-11.09-17.75,1.59-5.64,2.87-11.33,2.48-17.26-.22-3.35-1.45-6.49-2.1-9.75a46,46,0,0,1-.84-5c-.43-4.83,2.08-7.65,6.91-8a15.92,15.92,0,0,1,7.74,1.28c10.07,4.65,18.24,11.47,23.57,21.35a20.8,20.8,0,0,1,2.53,9,13,13,0,0,1-1.92,7.35c-2.15,3.68-4.07,7.5-6.08,11.26a.8.8,0,0,1-1.12-.1c-.55-.77-.09-1.46.23-2.11a100.17,100.17,0,0,1,5-9.72,11.74,11.74,0,0,0,1.44-9.74,26.85,26.85,0,0,0-5.86-11.28c-4.81-5.44-10.22-10.22-16.83-13.44a16.81,16.81,0,0,0-8.39-1.78c-3.58.2-5.43,2.14-5.22,5.72a24.4,24.4,0,0,0,1.21,6.28c2.55,7.62,2.09,15.22.15,22.85q-.42,1.64-.82,3.29c-1.71,6.93.33,11.29,6.72,14.59,1,.5,2.2.66,2.78,1.79A1,1,0,0,1,270,174Z"/><path class="cls-2" d="M300.32,220.73c3.84,3.76,8.34,6.59,12.83,9.5,5.37,3.48,7.39,9.17,8.6,15.16,1.44,7.11,1.44,14.38,2.25,21.55a40.06,40.06,0,0,0,3,12.59,15.87,15.87,0,0,0,10.47,9.09,39.62,39.62,0,0,0,15.66,1.6c10.63-1.35,18.06-9.7,18.8-20.84.1-1.44.25-2.88.37-4.32.23-.19.33-.63.78-.38,0,5.13-.25,10.19-2.87,14.8-5.11,9-13.17,13.07-23.51,11.83-2.12-.25-4.23-.6-6.34-.93-8.3-1.28-13.35-6.18-15.67-14.1-1.8-6.15-2.06-12.51-2.56-18.83-.43-5.45-.88-10.9-2.56-16.15a19.53,19.53,0,0,0-9.72-11.94,33.05,33.05,0,0,1-10.11-8.05A.79.79,0,0,1,300.32,220.73Z"/><path class="cls-2" d="M197.89,318.79l0-.87c.94-1.2,2-.37,2.9-.05a59.59,59.59,0,0,1,12,6.24,57.34,57.34,0,0,1,5.4,3.79A35.94,35.94,0,0,0,233.92,335a73.15,73.15,0,0,0,30.69.12A43.66,43.66,0,0,0,277,330.62c6-3.35,9.4-8.53,11.31-14.91,2.22-7.43,1.28-14.67-1.31-21.82-.35-1-1.08-1.92-.32-3a.75.75,0,0,1,1.13-.12c5.14,11.3,5.34,22.51-1,33.42-3.18,5.48-8.39,8.58-14.17,10.67-11.76,4.26-23.84,4.55-36.07,2.64a43.72,43.72,0,0,1-20.87-8.95A63.57,63.57,0,0,0,197.89,318.79Z"/><path class="cls-2" d="M100.11,490.85A63.91,63.91,0,0,0,104.63,466a130.2,130.2,0,0,1,1.28-19.55c1.42-9.32,5-17.71,11.7-24.61,3-3.09,6.85-4.55,10.72-6.09,7.53-3,15.11-5.9,21.89-10.48a17.3,17.3,0,0,0,6.41-7.22A18.57,18.57,0,0,1,161.3,392a1.58,1.58,0,0,1,.7,1.56c-4.46,8.2-10.39,14.75-19.32,18.38-5.88,2.39-11.7,4.91-17.57,7.33a21.09,21.09,0,0,0-9.9,8.7,49.21,49.21,0,0,0-7.82,23.14c-.37,5.71-.58,11.41-.78,17.12a66.51,66.51,0,0,1-3.43,20.17c-.38,1.07-.71,2.18-1.91,2.65C100.87,491,100.46,491.16,100.11,490.85Z"/><path class="cls-2" d="M384.44,283.18c3.84-6.72,3.73-13.83,2.44-21.2s-2.15-14.87-.34-22.28c2.85-11.72,10-20.52,19.56-27.49,4.83-3.52,10-6.27,16.27-6.14,4,.08,7.69,1.14,10.57,4.13a4.41,4.41,0,0,1,1.33,2c0,.71-.36.57-.77.37-3.51-5.45-10.73-6.61-16.71-4.7-8,2.58-14.27,7.81-19.7,14s-9.23,13.21-10.18,21.47c-.75,6.54,0,13.05,1.12,19.51,1,6,1.29,11.87-1.21,17.6a10,10,0,0,1-1.27,2.29c-.26.36-.41.9-1,.8C384.35,283.57,384.36,283.35,384.44,283.18Z"/><path class="cls-2" d="M302.54,328.49c7,6.88,16,8.42,25.4,4.46a47.12,47.12,0,0,0,16.85-11.8c4.64-5.11,10-9.31,15.5-13.44C367.38,302.38,374.47,297,380,290c1-1.34,2-2.75,3-4.12.7,0,.58.38.41.81-2.24,4.4-5.7,7.79-9.2,11.14-5.93,5.66-12.72,10.25-19.15,15.3a69.71,69.71,0,0,0-8.45,7.79c-6.09,6.66-13.14,11.92-22,14.29-7.26,1.94-14.1,1-20.24-3.58a5.81,5.81,0,0,1-1.85-1.85C302.58,329.33,301.48,328.85,302.54,328.49Z"/><path class="cls-2" d="M311.13,36.36l.8-.12c.67,4.35.9,8.75,1.87,13.06,2.31,10.18,7.5,15,17.79,16.84a32.74,32.74,0,0,0,23.66-4.66c1.23-.76,2.52-1.44,3.67-2.3,8-5.94,16.27-5.23,24.77-1.4.32.82,0,1.06-.76.75a29.61,29.61,0,0,0-8.66-2.48,18.54,18.54,0,0,0-13,2.83,57.7,57.7,0,0,1-12.52,6.88c-8.58,3.09-17.09,2.5-25.36-1-4.9-2.07-7.79-6.2-9.48-11.16A62.51,62.51,0,0,1,311.13,36.36Z"/><path class="cls-2" d="M372.38,260.91a176.26,176.26,0,0,1,1.17-22.58c1.33-10.28,6.59-18.16,14.82-24.21a56.2,56.2,0,0,0,12.12-11.78,28.38,28.38,0,0,0,5.65-12.8,27.94,27.94,0,0,1,.95-3.43.75.75,0,0,1,.74.42c-1.37,12-8.14,20.73-17.56,27.43-10.75,7.66-15.95,17.92-16.37,30.9-.17,5.27-.46,10.55-.7,15.82-.51-.36-.14-.9-.25-1.25C372.65,259.83,373.49,260.72,372.38,260.91Z"/><path class="cls-2" d="M161.41,393.11a1.53,1.53,0,0,1-.11-1.15c5.65-6,12.24-10.62,20.36-12.63,10.81-2.67,20.24,4.09,21.56,15.24a68.56,68.56,0,0,1-.14,12c-.12,2.19-.23,4.39-.28,6.59-.09,3.75.94,7.07,3.84,9.64-.67,1-1,1-2.46.17-2.65-2.4-3.12-5.67-3.37-8.94-.29-3.77.29-7.52.55-11.28.41-5.79.36-11.5-3.52-16.35a14,14,0,0,0-14-5.43c-5.22.83-9.75,3.23-14,6.22-2.27,1.59-4.31,3.46-6.44,5.23C162.81,392.91,162.31,393.62,161.41,393.11Z"/><path class="cls-2" d="M375.14,97.82a36.58,36.58,0,0,0,2.58-12c.46-9.89-7.14-14.49-14.89-13.93-5.41.39-10.44,2.19-15.4,4.19-5.42,2.19-10.78,4.56-16.65,5.32a24.27,24.27,0,0,1-7.87.21c-.28-.46.1-.57.38-.73,8.6.25,16.41-2.62,24.16-5.91a46.11,46.11,0,0,1,15.42-4.09,15.53,15.53,0,0,1,10.54,2.77c4.26,3.16,5.6,7.58,5.34,12.62a40.73,40.73,0,0,1-2.65,12.3C375.17,99.08,375.27,98.3,375.14,97.82Z"/><path class="cls-2" d="M436.57,249.21a26.88,26.88,0,0,1,3.74-8.17A50.76,50.76,0,0,1,450,229c3.89-3.44,7.87-3.25,11.42.56,2.84,3,3.81,6.86,4.6,10.77q.61,3,1.16,6.11c1.15,6.39,5,10.54,10.84,13,1.27.53,2.58,1,3.87,1.47a.75.75,0,0,1,0,1.08,1.93,1.93,0,0,1-2.12.21c-4.6-1.58-8.71-3.86-11.6-8a20.33,20.33,0,0,1-3-7.86c-.65-3.14-1.18-6.3-2-9.4a13.11,13.11,0,0,0-4-6.7c-2.31-2-4.54-2.13-7-.33-4.11,3-6.82,7.15-9.56,11.29-1.63,2.47-2.78,5.2-4.26,7.75A1.57,1.57,0,0,1,436.57,249.21Z"/><path class="cls-2" d="M.09,397.55v-1a1.26,1.26,0,0,1,1.66-.43c8.34,2.68,16.67,5.38,23.54,11.12a62.87,62.87,0,0,1,13.64,16.47c4,6.82,6.46,14.3,9.22,21.65.51,1.35,1,2.71,1.51,4.06a1.86,1.86,0,0,1,0,2c-.48.48-.89.42-1.23-.15-2-4.13-3.33-8.52-4.91-12.81a81.09,81.09,0,0,0-12.43-22.68c-6-7.6-13.93-12.33-23-15.39C5.41,399.44,2.75,398.49.09,397.55Z"/><path class="cls-2" d="M90.32,89.08l-1.06.68.85.14a92.37,92.37,0,0,1-11.19,1.31,204.63,204.63,0,0,0-50.41,10.21,55.26,55.26,0,0,1-9.85,2.45c-.59,0-1.4.73-1.64-.48,21.45-6.27,42.9-12.53,65.44-13.55C85.09,89.72,87.7,89.34,90.32,89.08Z"/><path class="cls-2" d="M436.92,305.85c-2.84-3.43-6.58-5.07-10.92-5.7a33,33,0,0,1-9.21-2.68c-5.51-2.57-7.2-6.62-5.19-12.38a23.71,23.71,0,0,1,1.32-3.13A18.52,18.52,0,0,0,414,267c-1.46-4.41-3-8.82-3.24-13.53a11.65,11.65,0,0,1,.42-5c1.13.47.51,1.33.46,2.06a42.73,42.73,0,0,0,2.91,14.72c2.27,6.11,2.15,12-1,17.85a17.2,17.2,0,0,0-1.14,2.79c-1.59,4.79,0,8.41,4.53,10.55a34.64,34.64,0,0,0,9.2,2.72c4.4.72,8.41,2.11,11.18,5.89C437.56,305.46,437.65,305.86,436.92,305.85Z"/><path class="cls-2" d="M261.31,31.06c.21-.53.51-.32.81-.1a28.93,28.93,0,0,1,2.2,8.53c.47,4.54-1.3,8.11-4.59,11.22C252.84,57.23,248,65,246.85,74.59c-.84,6.88.94,13.2,4.27,19.16.18.32.32.67.49,1a.72.72,0,0,1-.94.06c-6.1-9.91-6.65-20.19-1.94-30.76a35.4,35.4,0,0,1,9.17-13c5.72-4.82,6.49-10.5,4.23-17.12C261.8,33,261.58,32,261.31,31.06Z"/><path class="cls-2" d="M.09,141.17v-1c9.19,2.87,18.53,1.63,27.85,1a12.66,12.66,0,0,0,5-1.48,7.74,7.74,0,0,0,4.6-6.42c.36-3.93.36-7.9,1.1-11.8.93-4.94,2.42-9.62,6.35-13.11.61-.1.77.33.91.78a1.81,1.81,0,0,1-.59,1.53c-4,5.11-5,11.16-5.41,17.38-.11,1.76-.19,3.51-.37,5.26a9.87,9.87,0,0,1-6.13,8.4,17,17,0,0,1-6.94,1.57c-4.9.08-9.77.84-14.68.75a48.3,48.3,0,0,1-9.51-1.3A3,3,0,0,1,.09,141.17Z"/><path class="cls-2" d="M256.47,430.5c11.84-2.27,20.94,7.25,18.65,19.45a47.67,47.67,0,0,1-4,11.3c-3.07,6.6-6,13.25-9.09,19.86a5.15,5.15,0,0,1-1.31,2.24.91.91,0,0,1-1.13-.21c-.55-.77-.09-1.45.23-2.11,3.51-7.44,6.84-15,10.29-22.44,2-4.25,3.6-8.6,3.24-13.4-.6-7.94-5.62-12.72-13.59-13.06-1,0-2,.26-3-.24C256.35,431.49,256,431.08,256.47,430.5Z"/><path class="cls-2" d="M51.81,491.19H51.4a2.88,2.88,0,0,1-.74-.43c-2.36-1.62-3.59-4.14-5.06-6.44A115.05,115.05,0,0,1,30.78,448.6,88.62,88.62,0,0,0,24.61,431c-.33-.71-.9-1.43-.37-2.3.33-.34.68-.48,1.09-.12,2.88,4.64,4.55,9.78,6.13,14.95,2.08,6.79,3.5,13.77,6.09,20.41a110.31,110.31,0,0,0,15,26.91C52.41,491.16,52,491,51.81,491.19Z"/><path class="cls-2" d="M.45,130.63a.86.86,0,0,1-.32-.93c.24-.59.72,0,1.06-.18,3.19-.28,6.28.84,9.48.59a20.35,20.35,0,0,0,8.81-2.48c3.77-2.17,5.47-5.61,5.79-9.8A4,4,0,0,0,22,113.4c-2.4-.68-4.75-.07-7.1.31-4.09.66-8.16,1.51-12.35,1.26-1-.06-1.92,0-2.46-1l0-1c6.09.55,12-1,18-1.71,7.71-.91,10.81,2.72,8.66,10.17-1.86,6.43-6.81,9.16-12.9,10.35A25.4,25.4,0,0,1,.45,130.63Z"/><path class="cls-2" d="M399.22,76.23c9.13,5.71,18.86,6.13,29,3.31,3.53-1,6.14-3.26,8.39-6.07s4.15-6,6.71-8.59c3-3,5.94-3.58,9.89-1.75.25.5.24.83-.46.74-4.36-1.85-7.52-.1-10.11,3.36-1.58,2.11-3.23,4.18-4.76,6.33a19,19,0,0,1-12.44,7.82c-7.85,1.52-15.51,1.12-22.92-2.09a14.41,14.41,0,0,1-4.14-2.58C398.34,76,398.74,76,399.22,76.23Z"/><path class="cls-2" d="M302.54,328.49l-.06,1.25c-3.58-3.88-3.36-8.46-2.33-13.13,1.14-5.13,3.49-9.81,5.63-14.56a46.11,46.11,0,0,0,3.29-8.41,4.54,4.54,0,0,0-.42-3.45c-3.15-5.57-3.22-11.65-2.94-17.79,0-.81.14-1.62.21-2.43a.56.56,0,0,1,.81,0c-.06,4.58-.29,9.18.65,13.71a14.86,14.86,0,0,0,1.86,5.31,6.48,6.48,0,0,1,.64,5.77,73.52,73.52,0,0,1-4,9.74c-2,4.35-3.94,8.69-4.87,13.43A14.38,14.38,0,0,0,302.54,328.49Z"/><path class="cls-2" d="M271.94,106.46a26.17,26.17,0,0,1,13.32,5.64c5.07,4.2,10.5,8,15.66,12.06,4.34,3.45,8.28,7.32,10.84,12.37a16,16,0,0,1,1.74,9.12c-.09.83-.16,1.65-1.14,1.94-.05-.11-.17-.24-.15-.34,1.51-7-1.76-12.24-6.23-17-4.09-4.38-8.92-7.88-13.73-11.4-3-2.18-6-4.35-8.78-6.77s-6.34-3.47-9.91-4.3c-.67-.16-1.32-.36-2-.54C271.36,106.8,271.56,106.59,271.94,106.46Z"/><path class="cls-2" d="M489.74,326c.44.52,1.44.65,1.14,1.67-9.39-3.85-16.19-10.16-19.18-20.12-1-3.19-2-6.34-3-9.52a9.33,9.33,0,0,0-4.47-5.37c-3.12-1.83-6.65-2.63-9.89-4.15a1.34,1.34,0,0,1,.67-1.27c.11-.05.24-.14.35-.11,4.83,1.27,9.57,2.76,13.12,6.53,2.29,2.44,2.77,5.73,3.72,8.76a60.89,60.89,0,0,0,4.2,10.68,20.52,20.52,0,0,0,7.16,8.08c1.49.93,2.92,2,4.41,2.9A4.3,4.3,0,0,1,489.74,326Z"/><path class="cls-2" d="M369.34,318.68c5.87-4.72,12.75-6.92,20.07-7.85a70.1,70.1,0,0,1,26.89,2,15.61,15.61,0,0,1,5.9,2.84c.37.54.84,1.08-.05,1.58a1.64,1.64,0,0,1-1.43-.26c-4.48-2.72-9.53-3.47-14.57-4.07-8-1-16-.94-23.87,1.42a40.13,40.13,0,0,0-10.23,4.7c-.62.4-1.18,1-2,.58C369.59,319.46,369.2,319.25,369.34,318.68Z"/><path class="cls-2" d="M241.7,106.48l-.76.42c-2.55-6.86-6.35-13.12-9.38-19.74-4.66-10.17-3.73-20,2.06-29.54A4.24,4.24,0,0,1,235.16,56c.43.64,0,1.11-.3,1.55-7.49,11.81-6.33,23.46.57,35.05A68.6,68.6,0,0,1,241.7,106.48Z"/><path class="cls-2" d="M486.7,145.51c.89.45,1.84.11,2.76.25.49.07,1.32-.32,1.37.47s-.88.36-1.31.61a56.12,56.12,0,0,0-12.6-.13c-14.14,1.2-26.51-3.2-37.74-11.45a.9.9,0,0,1-.13-.92c.9-1,1.72-.29,2.5.17,2.87,1.68,5.6,3.6,8.58,5.08a49.43,49.43,0,0,0,22.13,5.28c4.2,0,8.39-.61,12.59-.27C485.63,144.66,486.41,144.56,486.7,145.51Z"/><path class="cls-2" d="M95.57,432.72c-.23,9.79.69,19.63-1.12,29.34-1.57,8.39-6,14.53-14.35,17.37-.4-.17-.83-.31-.94-.81,0-1,.83-1.22,1.48-1.5,8.85-3.83,11.62-11.41,12.51-20.17.71-7,.24-14.07.38-21.1a14.43,14.43,0,0,1,.11-2.45c.14-.7.34-1.39,1.32-1,.15,2.41,0,4.82.07,6.87-.08.61-.46.31-.22.38s.18,0,.18-.05c.08-1.86,0-3.73.06-5.59C95.07,433.58,94.64,432.84,95.57,432.72Z"/><path class="cls-2" d="M455.06,287.8l-.76.68a67.11,67.11,0,0,1-17.91-9.08,7.47,7.47,0,0,1-3.21-7,3.39,3.39,0,0,1,.06-.75A68.39,68.39,0,0,0,436.16,251a8.47,8.47,0,0,1,.41-1.83l1.11-.75a.91.91,0,0,1,.61,1c-.86,4.65.13,9.41-.93,14-.54,2.39-1.41,4.69-1.85,7.1-.72,3.92.19,5.95,3.47,8.15a73.86,73.86,0,0,0,14.41,7.3C454.16,286.41,455.17,286.57,455.06,287.8Z"/><path class="cls-2" d="M430.51,91.39a11.23,11.23,0,0,0,9.08-4.61c4.94-6.51,11.77-7.36,19.13-6.57a59.36,59.36,0,0,1,15.72,4.42,18.57,18.57,0,0,1,2.11,1.17c.14.67-.28,1-.78,1.23-1.31,0-2.39-.7-3.55-1.12-6.16-2.27-12.38-4.11-19.08-3.83-4.61.2-8.4,1.69-11.33,5.36s-6.77,5.94-11.68,5.9a5.12,5.12,0,0,1-3.08-.46c-.33-.23-.82-.5-.64-1s.63-.26,1-.29A11.92,11.92,0,0,0,430.51,91.39Z"/><path class="cls-2" d="M45.41,109.23l-.4-.85c3.7-3.66,8.43-5.08,13.35-6,8.09-1.59,16.31-2.15,24.5-3,4.25-.43,8.5-.81,12.75-1.21.27.52-.17.91-.27,1.37-.5.74-1.31.66-2,.75-8.46,1.05-17,1.56-25.44,2.66a76.23,76.23,0,0,0-13.49,2.53,22.3,22.3,0,0,0-6.76,3.24C47,109.15,46.32,109.76,45.41,109.23Z"/><path class="cls-2" d="M306.72,270h-.81a72.67,72.67,0,0,1,1.15-11.21c1.3-7.84-.92-14.6-5.91-20.62-3.51-4.24-7.85-7.55-12.18-10.86l.38-.84a51.6,51.6,0,0,1,14.19,13.07,24.55,24.55,0,0,1,4.67,18.15C307.63,261.76,307.21,265.88,306.72,270Z"/><path class="cls-2" d="M288.54,341.28c.1-.44-.14-.64-.53-.74a25.26,25.26,0,0,1,17.71,2.32,57.26,57.26,0,0,1,6,3.47,27.68,27.68,0,0,0,23.18,4c.71-.32,1.06,0,1.2.69,0,.84-.59,1.18-1.33,1.34-6.28,1.35-12.44,1.39-18.43-1.36-3.89-1.79-7.4-4.25-11.2-6.19A25.81,25.81,0,0,0,290.59,342C289.81,342.1,288.92,342.38,288.54,341.28Z"/><path class="cls-2" d="M204.67,422.16c.74,0,1.17.88,2,.67,8.4,5.89,18.05,8,28,9.13a55.56,55.56,0,0,0,18.38-.78c.75-.31,1.36-.29,1.5.71-.26,1.06-1.15,1.23-2,1.39a57.38,57.38,0,0,1-15.71.84,84.44,84.44,0,0,1-21.31-4.44,36.26,36.26,0,0,1-9.46-5C205.22,424.12,204.13,423.53,204.67,422.16Z"/><path class="cls-2" d="M95.34,99l-1.48-.14,1.75-.71c5.44-.94,10.94-1.56,16.32-2.87a91.42,91.42,0,0,0,12.76-4A25.32,25.32,0,0,1,142,90.7c.45.69-.06,1-.51,1.41a4.45,4.45,0,0,1-2.59-.12,24.59,24.59,0,0,0-14,1.37c-8.68,3.52-17.81,5.22-27,6.39C97,99.87,95.94,100,95.34,99Z"/><path class="cls-2" d="M425.62,319.43c2.43,3.56,2.95,7.68,3.39,11.81.42,3.94.35,7.92,1.1,11.82,1,5,3.67,7.36,8.77,7.72,3.92.27,7.76-.55,11.65-.76a1.29,1.29,0,0,1-.34,1.66c-4.49,1-9,1.67-13.61.73s-7.42-4-8.39-8.59a51.91,51.91,0,0,1-.86-7.67c-.28-5-.6-9.92-2.61-14.57a1.74,1.74,0,0,1-.12-1.46C424.81,319.7,425,319.29,425.62,319.43Z"/><path class="cls-2" d="M375.14,97.82l.94.73a84.2,84.2,0,0,1-6.29,15.07c-3.8,7.15-2.55,13.75,1.34,20.31,1.56,2.62,3.9,4.56,5.78,6.9.08.36,0,.54-.42.41a13.31,13.31,0,0,1-4.29-4c-4.16-5.25-6.52-11.1-5.55-18a18.71,18.71,0,0,1,1.79-5.12C370.88,108.76,373.57,103.52,375.14,97.82Z"/><path class="cls-2" d="M327.83,302.09c2.29-1.87,5.14-2.18,7.88-2.63,1.5-.25,2.06,1,2.24,2.24a7.94,7.94,0,0,1-.41,3.35A32.59,32.59,0,0,1,328.42,320a8.62,8.62,0,0,1-4.78,2.47c-3.25.39-6.56-2.37-7.57-6.27-.15-.58-.45-1.28.17-1.65s1,.12,1.37.59a11.52,11.52,0,0,0,2.38,3.79,4.05,4.05,0,0,0,5.44.73c2.27-1.25,3.75-3.28,5.27-5.27a29.68,29.68,0,0,0,4.89-9.88c.65-2.24-.07-3-2.32-2.48-1,.22-1.94.51-2.91.77a2.22,2.22,0,0,1-2.45-.42Z"/><path class="cls-2" d="M369.34,318.68l.86.43a1.13,1.13,0,0,1-.41,1.48c-4.85,4-8,9.48-12,14.25-4.71,5.64-9.54,11.19-16.1,14.83-1.34.75-2.67,1.67-4.36,1.39-.53-.42-1-.85-.11-1.38,8.9-3.93,15-11,20.81-18.43,2.66-3.42,5-7.12,8.21-10.08A17.9,17.9,0,0,1,369.34,318.68Z"/><path class="cls-2" d="M323.27,80.86l-.38.73C308.63,81.24,301.79,68,303,58.25c.51-3.92,1.21-7.82,1-11.8.18-.29.3-.67.77-.43.76,2.81.28,5.62-.25,8.37-1.18,6.15-.72,12,2.79,17.37a18.91,18.91,0,0,0,13.5,8.67C321.67,80.56,322.47,80.71,323.27,80.86Z"/><path class="cls-2" d="M79.31,478.76l.78.67c-8.66,3.43-15.21-.24-20.34-6.64s-8.59-13.85-11.35-21.58l.83-.15c1.14-.23,1.34.68,1.66,1.41a112.77,112.77,0,0,0,6.21,12.91,43.19,43.19,0,0,0,6.86,9,14.58,14.58,0,0,0,13.15,4.09C77.86,478.31,78.71,477.77,79.31,478.76Z"/><path class="cls-2" d="M376.49,141.23l.42-.41c1.28,0,2.1,1.05,3.17,1.54,3.69,1.68,7.7,2.22,11.54,3.37,6.45,1.92,12.87,3.87,18.38,7.94,3.18,2.36,5.47,5.31,5.78,9.45-.25,0,0,.06-.15.11s-.5-.85-.65,0c-.83-5.31-4.48-8.35-8.78-10.79-5.84-3.31-12.28-5-18.71-6.74-3.57-.95-7.24-1.61-10.33-3.85A6.53,6.53,0,0,1,376.49,141.23Z"/><path class="cls-2" d="M411.68,250.49a3.93,3.93,0,0,0-.46-2.06c.61-4.16,3.42-6.86,6.37-9.43,3.73-3.24,7.71-6.22,10.94-10a30.87,30.87,0,0,0,4.5-6.45c1.58-3.25,2-6.55.47-9.95l.77-.37c2.36,4.35,1.18,8.44-1.12,12.31-3.05,5.16-7.46,9.12-12,12.9-1,.8-1.93,1.61-2.9,2.41C414.8,242.63,412.31,246,411.68,250.49Z"/><path class="cls-2" d="M450.29,350.85c-.16-.35,0-.59.24-.83,6.37-1.09,13.48,3.07,16.54,9.65a17.06,17.06,0,0,1,1.4,6.74,35.56,35.56,0,0,0,4.79,16.81,1,1,0,0,1-.87.81c-1.27-.16-1.76-1.22-2.16-2.15-2-4.76-3.65-9.62-3.66-14.89a15.17,15.17,0,0,0-14-15.27C451.77,351.64,450.79,351.86,450.29,350.85Z"/><path class="cls-2" d="M430.51,91.39c-1,.59-2.17.24-3.25.8h3.37c-.1,1.45-1.27,1.22-2.12,1.21a53.82,53.82,0,0,0-8.81.61c-9.59,1.48-16,8.41-17.35,18.42-.23,1.73.24,3.5-.47,5.18a1.17,1.17,0,0,1-1.2.21,10.28,10.28,0,0,1-.37-5.21c1.47-11.49,9.23-20.3,21.54-20.87C424.74,91.59,427.63,91.5,430.51,91.39Z"/><path class="cls-2" d="M400.69,117.8l.76-.37a1.12,1.12,0,0,1,1.29.86c1.78,5,6,6.57,10.64,7.68,4.35,1,8.81,1.4,13.2,2.2a37.3,37.3,0,0,1,11.76,4.45c.68.39,1.34.8.88,1.76l0,.88c-6.63-4.31-14.17-5.55-21.81-6.5a28.63,28.63,0,0,1-11.45-3.49A10.48,10.48,0,0,1,400.69,117.8Z"/><path class="cls-2" d="M141.3,91.37l.74-.67c12.22,4,20.87,12,26.12,23.64.95,2.11,1.66,4.34,2.47,6.51a.88.88,0,0,1-.77.77c-1.24-.07-1.37-1.13-1.72-2-1.78-4.29-3.41-8.63-6.3-12.37A41.35,41.35,0,0,0,143.4,93.21C142.57,92.9,141.08,93,141.3,91.37Z"/><path class="cls-2" d="M436.92,305.85l.43-.85c2.59,2.8,4.16,6.25,6,9.53,4.08,7.39,8.64,14.43,14.83,20.25,1.64,1.54,3.47,2.87,5.21,4.3,0,.33,0,.65-.38.79-9-5.82-14.66-14.45-19.82-23.49C441.13,312.84,439.26,309.21,436.92,305.85Z"/><path class="cls-2" d="M289.63,453.85l.88-.73c1.16.75.81,1.87.64,2.89a52.56,52.56,0,0,1-4,12.52c-3.16,7.12-7.13,13.83-10.42,20.88a4.32,4.32,0,0,1-1,1.32,2.75,2.75,0,0,1-.75.44h-.41c-.16-.13-.47-.1-.48-.42,1.51-4.07,3.71-7.8,5.61-11.68,3.37-6.85,7.28-13.47,9-21C289,456.66,289.31,455.26,289.63,453.85Z"/><path class="cls-2" d="M452.71,63.86l.46-.74c3.28,1.36,6.05,3.55,9,5.44,7.32,4.72,15,8.68,23.5,10.79.47.27,1.36.12,1.11,1.11-5.84-.89-11.17-3.22-16.39-5.86C464.21,71.48,458.69,67.29,452.71,63.86Z"/><path class="cls-2" d="M300.32,220.73l-.54.58c-5.48-5.58-8.65-12.38-10.41-19.89-1-4.22-1.8-8.48-.83-12.84.16-.72.45-1.42.68-2.13a.69.69,0,0,1,.86.07c-1.43,4.45-.91,8.91,0,13.36A45.62,45.62,0,0,0,300.32,220.73Z"/><path class="cls-2" d="M169.9,121.23l.73-.38a67.78,67.78,0,0,0,4.65,9.26c4.46,6.7,11.05,10.25,18.49,12.56.78.24,1.54.53,2.3.79l-.42.77c-.43.86-1.15.61-1.8.44-11.75-3-20.09-9.91-24.3-21.47C169.28,122.46,169,121.75,169.9,121.23Z"/><path class="cls-2" d="M312.34,148c.9,1,0,1.76-.32,2.51a60.87,60.87,0,0,1-6.7,11.76c-2.75,4-5.63,7.86-8.46,11.78-.42.17-.65,0-.78-.4,1.85-3.43,4.45-6.35,6.65-9.54,3.21-4.64,6.38-9.3,8.61-14.53A11.41,11.41,0,0,1,312.34,148Z"/><path class="cls-2" d="M463,339.87l.38-.79c6.11,4.07,12.92,5.88,20.16,6.43,2.23.17,4.44.72,6.66,1.1.51.32.93.68.68,1.37-4.79-1.42-9.8-1.52-14.67-2.46A32,32,0,0,1,463,339.87Z"/><path class="cls-2" d="M1.59,411.55c-.83-.13-2.19.18-1.2-1.45a51.74,51.74,0,0,1,8.74,2.27c6.54,2.73,11.27,7.43,14.79,13.46a.8.8,0,0,1-.16,1.07c-1.26.56-1.67-.51-2.18-1.22a43,43,0,0,0-5.4-6.5,26.82,26.82,0,0,0-12-6.28C3.2,412.67,2.1,412.63,1.59,411.55Z"/><path class="cls-2" d="M271.94,106.46l-.38.75c-8.46-1.21-15.94-4.15-20.65-11.88a5.1,5.1,0,0,1-.24-.51l.94-.06c1.4,1.52,2.47,3.3,4,4.72,4.26,4,9.6,5.47,15.1,6.63C271.11,106.2,271.52,106.34,271.94,106.46Z"/><path class="cls-2" d="M415,163.24c.19-.52.48-.38.8-.13a17.56,17.56,0,0,1-2.4,11.92,65.22,65.22,0,0,0-5.55,11.49l-.74-.42a29.57,29.57,0,0,1,4.08-9.21C413.7,172.68,415.42,168.28,415,163.24Z"/><path class="cls-2" d="M472.52,383.62l.75-.41c3.24,4.1,6.78,7.87,11.48,10.34a24.16,24.16,0,0,0,5.81,2.55,1.27,1.27,0,0,1,.32,1.32,1.71,1.71,0,0,1-2.06.32,36.05,36.05,0,0,1-15.91-11.86C472.42,385.26,471.59,384.55,472.52,383.62Z"/><path class="cls-2" d="M489.8,239c.39.43,1.84.32.76,1.49-.45.58-1.1.52-1.72.55a6.24,6.24,0,0,0-2.54.63c-1.56.79-2,2.22-.95,3.57a20.09,20.09,0,0,0,4.8,4.48c.61.18.94.53.73,1.21a10.73,10.73,0,0,1-6.83-3.89c-2.73-3.17-1.63-6.59,2.4-7.73A17,17,0,0,1,489.8,239Z"/><path class="cls-2" d="M470.46,213.37l2,0c.55-.78,1.23-.43,1.85-.16A99.32,99.32,0,0,0,487,217.52c1.14.32,2.35.64,2.77,2,.46.42,1.37.45,1.22,1.4C484,218.61,476.78,217.25,470.46,213.37Z"/><path class="cls-2" d="M316.92,316c-.29-.18-.24-.74-.67-.68-.1,0-.12.54-.17.82a6.13,6.13,0,0,1,1.17-6.35,38,38,0,0,1,8.8-7.33,2.35,2.35,0,0,1,1.79-.4l0,0c1,1.14.09,1.68-.74,2.19a43.07,43.07,0,0,0-6.92,5.49,6.49,6.49,0,0,0-2.38,4.74A1.52,1.52,0,0,1,316.92,316Z"/><path class="cls-2" d="M17,103.39a3.08,3.08,0,0,0,1.64.48A83.36,83.36,0,0,1,.82,106.14c-.69-.09-.83-.53-.73-1.13C5.82,105.34,11.38,104,17,103.39Z"/><path class="cls-2" d="M475.82,86.39l.73-.59c4,1,7.49,3.05,11.33,4.33a8.13,8.13,0,0,0,2.67.81c.45.28.37.72.36,1.15a1.86,1.86,0,0,1-2.35.49c-3.85-1.51-7.7-3-11.47-4.76C476.45,87.53,475.81,87.26,475.82,86.39Z"/><path class="cls-2" d="M95.57,432.72c-.79,2.42-.07,4.93-.78,7.38v-7.86A1.4,1.4,0,0,1,94,431a22,22,0,0,1,1.64-9.75,1.44,1.44,0,0,1,.64-.67c.65-.11,1.53-.55,1.2.81A52.66,52.66,0,0,0,95.57,432.72Z"/><path class="cls-2" d="M287.3,171.75c-2.75,2.94-6.21,3.8-10.09,3.44-.31-.7-2.06.12-1.55-1.47a2.09,2.09,0,0,1,1.91-.56,11.71,11.71,0,0,0,7.78-2.24,1.46,1.46,0,0,1,1.05-.33C287,170.71,287.14,171.26,287.3,171.75Z"/><path class="cls-2" d="M481.41,261.7l.45-.76c2.91.56,5.74,1.47,8.69,1.79.45.28.37.72.36,1.14a2.67,2.67,0,0,1-2.25.61,41.53,41.53,0,0,1-5.83-1.36C482.16,262.9,481.31,262.75,481.41,261.7Z"/><path class="cls-2" d="M258.39,490.83l-1.2,0c-1-2.41.58-6.91,2.71-7.93l.78.43C259.91,485.85,258.8,488.23,258.39,490.83Z"/><path class="cls-2" d="M290.08,186.53l-.86-.07a19.33,19.33,0,0,1,3-6.81c.61.23.29.79.43,1.19Z"/><path class="cls-2" d="M287.77,290.75l-.75.38c-1.89-.38-3.39-3.31-2.53-5a2.73,2.73,0,0,0,.31-1.52A35.49,35.49,0,0,1,287.77,290.75Z"/><path class="cls-2" d="M304.83,46l-.77.43-1.55-5.67.82-.43C304,42.19,305,44,304.83,46Z"/><path class="cls-2" d="M382.94,58.53a.8.8,0,0,0,.76-.75,21.64,21.64,0,0,1,4.18,2.61c0,.49-.36.63-.75.73Z"/><path class="cls-2" d="M486.77,80.47l-1.11-1.11a29.53,29.53,0,0,0,4.9.64c.46.27.37.72.36,1.14A21.45,21.45,0,0,1,486.77,80.47Z"/><path class="cls-2" d="M425.62,319.43l-.46.88a3.36,3.36,0,0,1-3-3.49l0-1.12A9.68,9.68,0,0,1,425.62,319.43Z"/><path class="cls-2" d="M389.84,62.21a16.29,16.29,0,0,1,2.89,3.51c-.12.35-.28.67-.71.71l-2.67-3.36C389.36,62.69,389.38,62.33,389.84,62.21Z"/><path class="cls-2" d="M372.38,260.91c.46-.64.25-1.44.61-2.48l.21,2.25a17,17,0,0,1-.08,4l-.78.38A19.25,19.25,0,0,1,372.38,260.91Z"/><path class="cls-2" d="M292.67,180.84l-.43-1.19a12.56,12.56,0,0,1,1.61-2.92.56.56,0,0,1,.83.37Z"/><path class="cls-2" d="M294.68,177.1l-.83-.37a14.24,14.24,0,0,1,2.24-3l.78.4Z"/><path class="cls-2" d="M383.37,286.66l-.41-.81a8.78,8.78,0,0,1,1.48-2.67c.47.18.76-.19,1.11-.37A9.33,9.33,0,0,1,383.37,286.66Z"/><path class="cls-2" d="M290.39,166.1l.81.43A13.74,13.74,0,0,1,289,170a1,1,0,0,1-.95-.75C288.21,167.07,288.78,166.34,290.39,166.1Z"/><path class="cls-2" d="M270,174l0-1a3.07,3.07,0,0,1,4.19,1,.91.91,0,0,1-.45.91A10.47,10.47,0,0,1,270,174Z"/><path class="cls-2" d="M399.22,76.23l-.88.47a7.71,7.71,0,0,1-2.62-2.64c.14-.41.48-.44.84-.46Z"/><path class="cls-2" d="M396.56,73.6l-.84.46a6.31,6.31,0,0,1-1.46-2.3c-.27-.75-.14-1.11.73-.74Z"/><path class="cls-2" d="M273.74,174.91l.08-.84a1.07,1.07,0,0,1,1.86,0c.44.46,1.59-.11,1.53,1.07A8.11,8.11,0,0,1,273.74,174.91Z"/><path class="cls-2" d="M389.84,62.21l-.49.86-2.22-1.94.75-.73Z"/><path class="cls-2" d="M392,66.43l.71-.71a11.65,11.65,0,0,1,1.58,3.39c-.55.33-.83-.09-1.16-.4Z"/><path class="cls-2" d="M254.17,431.9c-.2-.53-.66-.63-1.14-.71a7.4,7.4,0,0,1,3.44-.69,1.28,1.28,0,0,0,.82.77C256.48,432.68,255.58,432.86,254.17,431.9Z"/><path class="cls-2" d="M23.47,426.68l.45-.85a5.12,5.12,0,0,1,1.4,2.75l-.71.36C23,428.65,22.76,428.24,23.47,426.68Z"/><path class="cls-2" d="M288.54,169.07l.42.88a5.83,5.83,0,0,1-1.66,1.8,1.09,1.09,0,0,1-.67-.73C286.56,169.35,286.89,169,288.54,169.07Z"/><path class="cls-2" d="M393.16,68.71l1.16.4L395,71a1,1,0,0,0-.73.74Z"/><path class="cls-2" d="M97.5,421.41a.57.57,0,0,0-.77-.4c-.72-1-.6-1.67.72-1.89h.82A4.65,4.65,0,0,1,97.5,421.41Z"/><path class="cls-2" d="M337.26,349.68a.56.56,0,0,0,.43.76c-.29,1.3-1,1.49-2,.66a1.25,1.25,0,0,0-.79-.73A4.85,4.85,0,0,1,337.26,349.68Z"/><path class="cls-2" d="M265.94,86.44a74.6,74.6,0,0,0,14,9.55,67.16,67.16,0,0,1,19.88,16.85,26.53,26.53,0,0,0,12.13,8.61c6.22,2.25,11.89,5.45,16.36,10.45,5.91,6.62,6.82,14.34,2.56,22.15-3.13,5.74-7.55,10.5-11.85,15.34-4.13,4.66-8.42,9.18-11.89,14.38-.66,1-1.27,2-1.84,3.07-4.53,8.37-2.56,15.5,5.67,20.39,2.16,1.28,4.43,2.37,6.65,3.55a.51.51,0,0,1-.35.64c-5.51-2.15-10.72-4.73-13.8-10.17-2.73-4.83-1.83-9.57.54-14.22,2.89-5.66,7.09-10.35,11.26-15.06,4.71-5.31,9.76-10.36,13.49-16.45,6.18-10.09,4.48-19-4.85-26.37a42.29,42.29,0,0,0-12.35-6.76,26.5,26.5,0,0,1-12.6-8.9c-6-7.69-13.58-13.35-22-18.05-4.28-2.39-8.47-4.93-11.82-8.62C265.12,86.15,265.49,86.23,265.94,86.44Z"/><path class="cls-2" d="M360.29,268.08c.78-3.81.43-7.63.15-11.46-.42-5.77-1.85-11.45-1.65-17.26a49.68,49.68,0,0,1,8.79-27.25c2.68-3.84,6.69-6,10.35-8.66,6.77-4.88,13.08-10.23,17.42-17.54a37.88,37.88,0,0,0,2.74-6.2c.15-.3.39-.55.7-.32s.17.56,0,.85c-1.34,5.36-4.52,9.62-8.14,13.6a61.84,61.84,0,0,1-14.16,11.8c-7.19,4.25-11.09,10.71-13.82,18.21-3.19,8.75-3.36,17.67-2,26.79,1,6.4,1.72,12.86.28,19.32a7.14,7.14,0,0,1-.31.87c-.53.24-1.06.51-1.45-.22C359.34,269.67,360.32,269.07,360.29,268.08Z"/><path class="cls-2" d="M353.45,108.45c-1.62-7.85-6.17-12.83-14.14-14.47a48.46,48.46,0,0,0-10.87-.61,27.83,27.83,0,0,1-19.15-5.29,21.11,21.11,0,0,1-3.39-2.35c-.21-.44-.33-.83.4-.78,1.5.92,3.07,1.73,4.48,2.77,5.53,4,11.75,5.06,18.41,4.64a36.47,36.47,0,0,1,11.79.93,17.45,17.45,0,0,1,13.39,15.48C353.91,109.12,353.76,108.55,353.45,108.45Z"/><path class="cls-2" d="M353.45,108.45c.73-1.19.51.51.92.31.85,4.23.55,8.51.52,12.77a78.47,78.47,0,0,0,.2,10c.87,7.15,5,12.17,10.66,16.18,2.24,1.6,4.66,3,7,4.44.25.18.52.41.35.72s-.48.3-.75.07c-5-2.55-9.68-5.58-13.36-9.93a21.27,21.27,0,0,1-5.1-13.28c-.12-3.26-.07-6.53,0-9.8A85.46,85.46,0,0,0,353.45,108.45Z"/><path class="cls-2" d="M359.61,270.75a1.39,1.39,0,0,1,1.13.11c-1.12,5.25-5,8.08-10.65,7.64-7-.55-12.21-3.9-15.35-10.27a41.77,41.77,0,0,1-3.93-17.69,36.75,36.75,0,0,1,.12-7.71c.79,2.59.17,5.28.64,7.89.59,5.12,1.12,10.24,3.08,15.09,3.07,7.6,9.09,11.76,17,11.68a7.79,7.79,0,0,0,7.51-5.24C358.86,270.91,358.86,270.91,359.61,270.75Z"/><path class="cls-2" d="M331.57,250.71c-.8-2.29-.05-4.7-.76-7q0,3.42,0,6.85c-.67-4.62-.32-9.26-.3-13.9,0-3.45.15-6.9.25-10.35a11.56,11.56,0,0,0-6-10.94c-2.41-1.43-5-2.62-7.46-3.92l.35-.64a33.08,33.08,0,0,1,8.42,4.1,11.9,11.9,0,0,1,5.75,10.59C331.68,233.89,331.31,242.3,331.57,250.71Z"/><path class="cls-2" d="M398.85,180.25c-.1-.38-.31-.62-.74-.54a32.28,32.28,0,0,0,.69-10.9c-.32-3.25-1.79-5.57-4.87-6.77-3.39-1.33-6.8-2.59-10.19-3.94a68.34,68.34,0,0,1-9.1-4.09c-.26-.49-.27-.84.44-.79,5.84,2.77,11.89,5,17.93,7.26,3.09,1.16,5.83,2.76,6.48,6.4a30.59,30.59,0,0,1,.16,9.16C399.48,177.47,399.57,178.94,398.85,180.25Z"/><path class="cls-2" d="M268.88,17.2v3.44c.57-.8.25-1.73.74-2.5-.78,6.63,1.75,12.69,3.22,18.94a23.25,23.25,0,0,1-1.27,14.68.77.77,0,0,1-.7-.41,28.08,28.08,0,0,0-.23-18.63,32.6,32.6,0,0,1-2-13.48C268.63,18.55,268.78,17.88,268.88,17.2Z"/><path class="cls-2" d="M270.86,51.34a.53.53,0,0,1,.7.41c-.36,2.35-1.59,4.34-2.68,6.38-1.83,3.43-3.85,6.77-5.47,10.32a19.29,19.29,0,0,0-2,10c.24.69.21,1.14-.71.79-.88-2.78-.3-5.47.56-8.12a52.92,52.92,0,0,1,4.6-9.69A79.14,79.14,0,0,0,270.86,51.34Z"/><path class="cls-2" d="M292.68,72.88a15.4,15.4,0,0,1-2.61-13.22c.88-.34,1,0,.76.79-.84,4.43.61,8.44,2.3,12.4A.29.29,0,0,1,292.68,72.88Z"/><path class="cls-2" d="M292.68,72.88l.45,0a71.69,71.69,0,0,0,9.38,9.48c.25.46.29.8-.41.76a37.54,37.54,0,0,1-8.61-8.56A2.76,2.76,0,0,1,292.68,72.88Z"/><path class="cls-2" d="M290.83,60.45a1.34,1.34,0,0,0-.76-.79l1.82-9.21c.13.39.36.63.82.52A42.1,42.1,0,0,1,290.83,60.45Z"/><path class="cls-2" d="M260.67,79.28l.71-.79c.61,3.17,2.51,5.6,4.55,8l-.8.4A13,13,0,0,1,260.67,79.28Z"/><path class="cls-2" d="M302.1,83.09l.41-.76,3.8,2.61-.4.78A13.31,13.31,0,0,1,302.1,83.09Z"/><path class="cls-2" d="M375.08,153.23l-.44.79a5.17,5.17,0,0,1-2.28-1.1c.41-.12.47-.42.4-.79A6.2,6.2,0,0,1,375.08,153.23Z"/><path class="cls-2" d="M156.77,60a3,3,0,0,1-1.57-.47c-7.38-3.29-14.89-6.14-23.08-6.5a21.52,21.52,0,0,0-14.64,4.42c-8.91,6.88-19.3,10.38-30.15,12.7a71.17,71.17,0,0,1-23,1.6c-3.18-.36-6.32-1.06-9.47-1.6-.29-.16-.58-.43-.3-.71s.82-.17,1.24-.05a12.68,12.68,0,0,1,2.06.17C70,72.62,82,70.74,93.88,67.52a70,70,0,0,0,24.26-11.72c5.52-4.19,12-4.32,18.59-3.31s13,3.48,19.12,6.17a5.29,5.29,0,0,1,.91.65A.49.49,0,0,1,156.77,60Z"/><path class="cls-2" d="M71.86,52.07a77,77,0,0,0,15,.95,49.93,49.93,0,0,0,31.67-13.7,27.52,27.52,0,0,1,7.76-5.58c5.16-2.19,10.09-1.05,15,1,.36.88,0,1-.75.72-.47-.16-1-.28-1.42-.47-6.78-2.75-12.8-1.53-18.06,3.49a57.4,57.4,0,0,1-15.83,11.06C95,54.23,84.29,55.1,73.31,53.21c-.55-.25-1.23-.12-1.69-.59S71.2,52,71.86,52.07Z"/><path class="cls-2" d="M7.49,81.49c-2.13,0-4.25,0-6.38.05-.35,0-.8.14-1-.33s-.07-1,.59-1.13a36.71,36.71,0,0,0,21.42-3.61A74.7,74.7,0,0,1,41.57,70a24.61,24.61,0,0,1,5.23-.62c.25-.11.49-.11.49.23,0,.51-.58.32-.78.6a98.69,98.69,0,0,0-14.66,3.29,39.77,39.77,0,0,0-6.43,2.63A48.09,48.09,0,0,1,7.49,81.49Z"/><path class="cls-2" d="M.06,69.86c0-1,.75-.74,1.29-.76a7.1,7.1,0,0,0,2.87-.36A41.06,41.06,0,0,0,24.9,62c4.65-3,9-6.38,14.1-8.63a26.41,26.41,0,0,1,5.44-2.05c.48-.11,1-.31,1,.53C37.51,54.42,31,59.47,24,63.73A40.93,40.93,0,0,1,.06,69.86Z"/><path class="cls-2" d="M174.53,15.1a16.23,16.23,0,0,0,.65-2.13l.14,2.63c-.63,9.75-4.9,17.25-13.63,22-5.74,3.1-11.41,2.06-17.06-.31-.23-.1-.45-.22-.68-.33-1-.9-1-.9-.3-1.15a48.39,48.39,0,0,0,7.13,2.35c6.84,1.37,12.08-1.64,16.68-6.2,4-4,5.91-9.07,6.7-14.6C174.27,16.58,174.41,15.84,174.53,15.1Z"/><path class="cls-2" d="M77.48,29.47c.19.26.84.2.65.6-.1.2-.75.14-1.15.19-3.81-.28-7.63-.48-11.43-.85-11-1.07-21,1.84-30.32,7.42-.59.35-1.21.65-1.82,1-.45.07-1,.48-1.22-.32,10.7-7,22.31-10.44,35.17-9C70.73,28.87,74.11,29.15,77.48,29.47Z"/><path class="cls-2" d="M.82,50.61c-.28-.11-.65-.11-.69-.52-.05-.56.38-.56.75-.57a11.85,11.85,0,0,0,3.34-.42,45.51,45.51,0,0,0,13.19-3.36c.75-.29,1.53-.54,2.29-.8.3.24.18.54.12.83a49.44,49.44,0,0,1-17,4.6C2.19,50.43,1.51,50.52.82,50.61Z"/><path class="cls-2" d="M45.43,51.82l-1-.53c6.18-2.51,15.94-3.06,17.91-.7A38.28,38.28,0,0,0,45.43,51.82Z"/><path class="cls-2" d="M19.82,45.76l-.12-.83C24,42.66,28.05,40,32.19,37.48l1.22.32C29,40.64,24.76,43.81,19.82,45.76Z"/><path class="cls-2" d="M71.86,52.07c.12.85,1,.67,1.45,1.13A35.1,35.1,0,0,1,63,50.45C66.1,50.23,68.9,51.65,71.86,52.07Z"/><path class="cls-2" d="M46.51,70.24c.18-.25.41-.48.29-.83a29.62,29.62,0,0,1,9,0c-.43.11-1,.06-.94.77Z"/><path class="cls-2" d="M156.77,60V59.3A15,15,0,0,1,161,61.06c0,.54-.35.68-.78.77A16.39,16.39,0,0,1,156.77,60Z"/><path class="cls-2" d="M169.61,66.44a19,19,0,0,1-3.73-1.92c-.2-.39,0-.62.33-.76a14.22,14.22,0,0,1,3.82,1.9C170.22,66.1,170,66.31,169.61,66.44Z"/><path class="cls-2" d="M179.08,69.81l-.29.65a6.16,6.16,0,0,1-3.53-1.26.64.64,0,0,1,.08-.93Z"/><path class="cls-2" d="M169.61,66.44l.42-.78,3.34,1.56a.8.8,0,0,1-.75.76A12.71,12.71,0,0,1,169.61,66.44Z"/><path class="cls-2" d="M166.21,63.76l-.33.76-3.09-1.44c0-.38.05-.74.49-.87A12.75,12.75,0,0,1,166.21,63.76Z"/><path class="cls-2" d="M163.27,62.21l-.49.87-2.56-1.25.78-.77Z"/><path class="cls-2" d="M143.65,35.78c-.18.46.22.76.3,1.15a13,13,0,0,1-3.44-1.42,1.14,1.14,0,0,0,.75-.72Z"/><path class="cls-2" d="M172.62,68a1,1,0,0,1,.75-.76l2,1-.08.93A7.69,7.69,0,0,1,172.62,68Z"/><path class="cls-2" d="M318.83,197.46a10.68,10.68,0,0,1,2.45-12.61,120.65,120.65,0,0,0,14.41-16.66,21.74,21.74,0,0,0,4.2-15.46,20.37,20.37,0,0,1,0-5.83,5.08,5.08,0,0,1,4.15-4.54c4.39-1,8.18.32,10.71,3.85,5.09,7.09,11.84,11.86,19.69,15.31a12,12,0,0,1,6.9,7.82c1.82,6.13,1.75,12-2.9,17.16a178.09,178.09,0,0,1-13.54,13.34.91.91,0,0,1-.58-.63c-.38-1.09.5-1.62,1.08-2.21,3-3.06,6-6.07,9.06-9.09a35.68,35.68,0,0,0,3.87-4.62c4.06-5.68,2.34-17.43-6-20.62A40,40,0,0,1,353.58,148a8.9,8.9,0,0,0-6.24-3.84c-3.44-.5-5.41,1.11-5.72,4.57a26.66,26.66,0,0,0,.35,4.88c.67,7.36-2.56,13.27-6.85,18.82a128.48,128.48,0,0,1-12.41,13.92,8.54,8.54,0,0,0-2.64,8.74c.18.72.44,1.48-.14,2.16A.92.92,0,0,1,318.83,197.46Z"/><path class="cls-2" d="M340.28,123.48c0,.12,0,.27-.12.35-2.5,2.67-8.37,2.22-10.3-.87a55.31,55.31,0,0,1-2.83-5.32,9.78,9.78,0,0,0-4.56-4.6c-4.37-2.21-8.76-4.4-13.12-6.63a8.68,8.68,0,0,1-2.94-2.33c-1.26-1.6-1.07-3,.65-4.15a8.77,8.77,0,0,1,7.45-.75c2.29.64,4.14,2.07,6.11,3.31,1.22.76,2.52,1.4,3.79,2.09a.77.77,0,0,1,0,1.07c-.66.69-1.35.39-2.07.08a28.34,28.34,0,0,1-4.72-2.73,13.6,13.6,0,0,0-5-2.13,4.53,4.53,0,0,0-1.86-.11c-1,.21-2.16.29-2.45,1.43s.8,1.7,1.64,2.24a80.65,80.65,0,0,0,10.77,5.35,17.26,17.26,0,0,1,9.32,9.33c.1.23,0-.06.08.17,1.71,4.08,3.63,5.42,9,2.92C340.35,122,340.7,122.4,340.28,123.48Z"/><path class="cls-2" d="M318.83,197.46l.8-.39c1.09-.35,1.47.55,1.88,1.18a10.47,10.47,0,0,0,4.69,4,32.3,32.3,0,0,1,10.2,7.92,44.14,44.14,0,0,0,5.83,5.62,6.38,6.38,0,0,0,8.17.22,17.2,17.2,0,0,0,6.84-8.77c1.15-3.34,3.57-5.72,6-8.06.42-.4.91-.71,1.51-.28l.08,1a6.35,6.35,0,0,1-1.51,1.9,22.39,22.39,0,0,0-4.6,7,17.46,17.46,0,0,1-9.45,10,7.29,7.29,0,0,1-7.94-1.05c-3-2.35-5.36-5.28-8.05-7.9a30,30,0,0,0-8.38-6A11.67,11.67,0,0,1,318.83,197.46Z"/><path class="cls-2" d="M340.28,123.48c0-.53-.19-.83-.74-.38-.87-.24-.88-1-.91-1.66-.05-1.07-.27-2.11-.41-3.16a10.63,10.63,0,0,0-6.64-8.66c-2-.94-4.19-1.64-6.23-2.61-.66-.31-1.68-.48-1.29-1.66l.36-.75a59.26,59.26,0,0,1,9.87,4.2C338.87,111.46,341.86,118.86,340.28,123.48Z"/><path class="cls-2" d="M169.15,77.09c2.94,2.11,5.07,5,7.35,7.74,5,6,8.86,12.78,12.94,19.42,4.43,7.2,10.24,13,18.27,16.25,3.78,1.51,7.65,2,11.57.45s4.6-3.56,2.66-7.22a59.61,59.61,0,0,0-4.25-6.45C212.55,100,208,92.46,206,83.64a4.86,4.86,0,0,1-.06-.56c.23-.21.37-.55.76-.54,2.28,9.54,7.2,17.74,12.9,25.56a35.67,35.67,0,0,1,3.67,5.92c1.61,3.46.74,6-2.73,7.55-5.24,2.41-10.33,1.5-15.25-.93a39.67,39.67,0,0,1-16.84-16c-5.72-9.81-12-19.15-20.07-27.21C168.52,77.05,168.76,76.9,169.15,77.09Z"/><path class="cls-2" d="M206.68,82.54c-.11.38-.32.62-.76.54-1.6-6.32-1.94-12.77-2-19.24-.19-11.57.94-23.08,1.74-34.61a5.66,5.66,0,0,1,.22-.91l.8-.39c-.38,5.69-.77,11.39-1.13,17.08C204.7,57.56,204.31,70.1,206.68,82.54Z"/><path class="cls-2" d="M106.56,70.65a63.19,63.19,0,0,1,20-7c8.39-1.57,16.77-1.61,25,1.24a18.56,18.56,0,0,1,4.44,2,.43.43,0,0,1,.08.63.53.53,0,0,1-.79.06c-9.34-4.66-19.13-4.7-29.11-2.86A78.2,78.2,0,0,0,107,71.38C106.28,71.43,106.29,71.11,106.56,70.65Z"/><path class="cls-2" d="M106.56,70.65l.4.74c-11,6.22-22.8,9.35-35.51,8.53a7.52,7.52,0,0,1-.92-.17c0-.28-.08-.58.16-.82a62.77,62.77,0,0,0,30.43-5.72C102.93,72.36,104.74,71.5,106.56,70.65Z"/><path class="cls-2" d="M1.2,92.54c-.78,0-1.32-.27-1.14-1.2,1.5-.21,2.79.62,4.21.82,5.41.77,10.6-.24,15.73-1.87a94.84,94.84,0,0,0,10.67-4.66,7.92,7.92,0,0,1,2.61-1c.23.47-.18.72-.36,1-7.25,3.61-14.49,7.2-22.8,7.75A27.9,27.9,0,0,1,1.2,92.54Z"/><path class="cls-2" d="M70.68,78.92l1.38.67-1.54.15c-2.69-.15-5.38-.34-8.07-.46-6.59-.28-13,1.05-19.31,2.66-.67.13-1.41.61-1.9-.32a60.13,60.13,0,0,1,23.26-3.29C66.57,78.46,68.62,78.72,70.68,78.92Z"/><path class="cls-2" d="M155.25,67.6a1,1,0,0,0,.71-.69,29.66,29.66,0,0,1,5.78,3.65c0,.39.42.8,0,1.16Z"/><path class="cls-2" d="M169.15,77.09l-.79.32-4.53-4.1c.41-.47.85-.32,1.31-.08C166.56,74.44,168.17,75.44,169.15,77.09Z"/><path class="cls-2" d="M41.25,81.63a4.15,4.15,0,0,0,1.9.32l-6.45,2.23a.83.83,0,0,1-.48-.79Z"/><path class="cls-2" d="M165.14,73.24l-1.31.08-2.15-1.6,0-1.16A15.4,15.4,0,0,1,165.14,73.24Z"/><path class="cls-2" d="M36.21,83.38l.48.79-3.77,1.51.36-1Z"/><path class="cls-2" d="M432,28.32h.76c.65,6.38,1.27,12.76.47,19.17-1,8.34-5.38,13.15-13.56,15.09a21,21,0,0,1-9.89.43c-.35-1.37.56-.82,1.15-.76a25.34,25.34,0,0,0,10-1.15c7.2-2.35,10.87-7.21,11.43-15.31A113,113,0,0,0,432,30.38C432,29.7,432,29,432,28.32Z"/><path class="cls-2" d="M440.34,20.39l1.21-1.12a39.6,39.6,0,0,0-1.76,12.24,24.9,24.9,0,0,0,7.61,16.93,92.52,92.52,0,0,0,11.06,9.35c.25.48.28.84-.44.77-7.15-5-14.15-10.18-17.52-18.63C437.94,33.52,438.17,26.92,440.34,20.39Z"/><path class="cls-2" d="M362.55,40.69v-1c4.24-2.5,8.67-4.23,13.73-3.51a12,12,0,0,1,7.65,4.39c3.22,3.84,6.4,7.71,9.59,11.58-.38.39-.8.22-1.22.07a105.26,105.26,0,0,1-8-9.48c-4.43-5.57-9.19-7-16-4.67A39.1,39.1,0,0,0,362.55,40.69Z"/><path class="cls-2" d="M458,58.56l.44-.77c7.53,4.89,15.49,8.77,24.42,10.36a22.62,22.62,0,0,0,5.41.59,2.43,2.43,0,0,0,1.74.34c.55,0,1,.09.91.78-5.68.3-11.12-1-16.41-2.81A60,60,0,0,1,458,58.56Z"/><path class="cls-2" d="M396.54,55.12a46.06,46.06,0,0,0,9.8,6.08c.3.14.56.38.38.69s-.52.24-.82.12a28.34,28.34,0,0,1-10.15-6.48C395.66,54.72,396.18,55.07,396.54,55.12Z"/><path class="cls-2" d="M396.54,55.12l-.78.41a22.68,22.68,0,0,1-3.44-3.35l1.22-.07Z"/><path class="cls-2" d="M405.9,62a.59.59,0,0,0,.44-.81l4.59,1c-.48.1-1,.18-1.15.76A11.79,11.79,0,0,1,405.9,62Z"/><path class="cls-2" d="M419.19,41.53c.42-.18.62-.79,1.21-.63a7.23,7.23,0,0,1-5,5.18c-5.21,1.81-10,.62-14.59-2.1a72.18,72.18,0,0,1-10.08-7.87c-4.83-4.18-9.91-7.89-16.19-9.62l.11-.81,1.35.08c.3.11.73-.05.87.4,6.17,2,11,6.09,15.82,10.22,3.29,2.82,6.54,5.7,10.45,7.66a16,16,0,0,0,8.55,1.8A9,9,0,0,0,419.19,41.53Z"/><path class="cls-2" d="M412.42,23c-.43,3-2.33,4.73-5.41,4.59a13.78,13.78,0,0,1-10.09-5.21c-.74-.86-1.47-1.73-2.26-2.54a5.15,5.15,0,0,0-4.12-1.72l.33-.05A4.46,4.46,0,0,1,395,19.53c.69.7,1.32,1.46,2,2.21a12,12,0,0,0,8.78,4.54,4.21,4.21,0,0,0,4.71-4c.45-3.2-.39-6.17-1.49-9.13a6.38,6.38,0,0,0-4.24-4,22.33,22.33,0,0,0-7.44-.93c-.39,0-.77,0-1.15,0-2.88.25-5.82.06-8.49,1.49-2.37,1.28-3.53,3.2-3,5.08a5.18,5.18,0,0,0,5.24,3.42h.25l-.27,0a6.69,6.69,0,0,1-1.13.12c-2.88,0-5.4-1.61-6-3.93-.58-2.16.76-4.37,3.48-5.84,3.07-1.65,6.46-1.43,9.76-1.71.44,0,.88,0,1.32,0a25.81,25.81,0,0,1,8.56,1.08,7.37,7.37,0,0,1,4.88,4.61C412,15.95,412.94,19.36,412.42,23Z"/><path class="cls-2" d="M469.67,46.88l.49-.76a62.62,62.62,0,0,0,20.76,3.37.85.85,0,0,1-.74,1.11,64.44,64.44,0,0,1-18.07-2.79C471.28,47.55,470.48,47.2,469.67,46.88Z"/><path class="cls-2" d="M.82,201.57c2.74-.92,5.49-1.78,8.21-2.77,5.81-2.11,10.58-.45,14.67,3.87a19.16,19.16,0,0,1,3.6,5.28c2.15,4.79,5.94,7.88,10.34,10.35a28.44,28.44,0,0,0,14.51,4.1c4.2-.06,7.66,2.22,11,4.5a61.54,61.54,0,0,1,9.61,8.45,32.33,32.33,0,0,0,16.41,9.5,8.47,8.47,0,0,0,5-.15c2.57-1,3.09-2.87,1.38-5a15.67,15.67,0,0,0-5.25-3.93,30.65,30.65,0,0,0-8.7-3,12.66,12.66,0,0,1-7.85-4.82c-.82-1-1.61-2.09-2.36-3.18a20.21,20.21,0,0,0-10.2-8C53.64,214,48.6,208.29,44.08,202c-3.77-5.27-6.75-11.07-10.84-16.11-7.69-9.46-17.65-14.06-29.88-13.59-.62,0-1.24.16-1.86.25C1,172.3.16,172.81.17,172s.84-.43,1.32-.51c1-.17,2.08-.27,3.11-.4,2.06.18,4.14.26,6.19.55C21.74,173.18,30,179,36.17,188c4.12,5.93,7.59,12.31,12.23,17.9,3.89,4.68,8.45,8.37,14.32,10.35a18.3,18.3,0,0,1,8.9,7c.81,1.12,1.64,2.23,2.44,3.35a12.7,12.7,0,0,0,8.2,5.24,28.17,28.17,0,0,1,12.6,5.68c1.75,1.44,3.32,3.06,2.53,5.62-.59,1.9-2.94,3.15-5.8,3-5.76-.25-10.57-3-15.18-6.12-2.72-1.87-4.79-4.44-7.17-6.68A53.06,53.06,0,0,0,61,226.78a24.87,24.87,0,0,0-10.95-3.51C39.91,222.2,31.37,218,26.4,208.43a22.79,22.79,0,0,0-3.56-5.09c-3.8-4.07-8.26-5.47-13.66-3.51-3,1.09-5.91,2.48-9.11,2.94A1,1,0,0,1,.82,201.57Z"/><path class="cls-2" d="M.1,220.2a33.12,33.12,0,0,1,18.67,17.14c2.12,4.28,4.11,8.62,5.94,13,4,9.59,11.51,14.4,21.35,16.16a35.47,35.47,0,0,0,12,.09,18.63,18.63,0,0,0,8.75-3.68c3-2.34,6.16-4.39,10.2-4.32a16.86,16.86,0,0,1,8.77,3c.35.36,1.16.47.74,1.28-1.83-.83-3.63-1.72-5.5-2.47a10.41,10.41,0,0,0-9.11.46,15.75,15.75,0,0,0-3.06,1.85c-5.55,4.82-12.19,5.69-19.13,5.22-7.19-.49-13.8-2.62-19.34-7.49-3-2.65-4.88-6-6.55-9.58-2.3-4.89-4.21-10-6.83-14.71A31.28,31.28,0,0,0,.82,221.66C-.12,221.52.09,220.81.1,220.2Z"/><path class="cls-2" d="M97.09,330.7c-4.26,2.27-7.73,5.59-11.39,8.65-8.67,7.24-18.81,9.76-29.87,9.36-12.77-.46-24.12-5-34.67-11.94-6.33-4.18-13.07-7.53-20.7-8.67-.52-.37-.36-.89-.33-1.39,11.08,2,19.91,8.67,29.55,13.74,13.9,7.31,28.55,9.87,43.89,4.72,5.34-1.79,9.78-5.06,14-8.75a36.46,36.46,0,0,1,8.33-6.08C96.32,330.27,96.89,329.84,97.09,330.7Z"/><path class="cls-2" d="M490.91,411.14c-3.82-.26-7.65-.28-11.48-.22-8.06.14-13.66-4.08-16.7-11-3.33-7.63-9.31-10.44-16.81-11.33a25.5,25.5,0,0,0-9.73.63,15.47,15.47,0,0,0-4.15,1.76c-2.84,1.77-3.71,3.58-2.57,6.65a29.68,29.68,0,0,1,1.28,16.66c-.66,3.28,0,6.5.94,9.65.17.45.28.88-.45.89-2-3.86-2.1-8-1.33-12.12A26,26,0,0,0,428.81,399c-1.73-5-.57-7.87,4.34-9.72,8.69-3.28,17.14-2.57,25,2.61A12.84,12.84,0,0,1,462.9,398a20.88,20.88,0,0,0,4.79,7.15A15.76,15.76,0,0,0,480,409.94a88.89,88.89,0,0,1,10.92.2Z"/><path class="cls-2" d="M490.56,172.59c-10.52.33-21-.56-31.47-1.24-3.84-.25-7.54.32-10.75,2.69a10.09,10.09,0,0,0-4.23,6.87c-.41,2.87.39,4.46,3.08,5.52a73,73,0,0,0,7,2.27,46.46,46.46,0,0,1,19.91,11.05,12.08,12.08,0,0,0,5.6,3,2,2,0,0,1,1.28.67c.52-.15.63.11.52.55a12.31,12.31,0,0,1-8.16-3.45,46.46,46.46,0,0,0-20.14-11c-1.7-.47-3.37-1-5-1.55-4.9-1.59-7-4.6-3.79-10.86,2.38-4.66,6.84-6.53,11.9-6.76,4.84-.22,9.67.39,14.49.75a193,193,0,0,0,20.17.39C490.92,171.9,491,172.33,490.56,172.59Z"/><path class="cls-2" d="M.09,347c5.81,2,11.39,4.48,15.83,8.81,3.93,3.84,5,9,5.69,14.27.51,4.05.78,8.13,1.5,12.16a15.76,15.76,0,0,0,6.33,10.33c4.44,3.29,9.16,6.2,13.35,9.84.17.47.24.88-.48.86-3.71-2.7-7.29-5.61-11.16-8a19.5,19.5,0,0,1-9.56-15.79c-.27-3.26-.76-6.5-1.09-9.75-.8-7.77-4.08-13.89-11.32-17.52a81.7,81.7,0,0,0-9.08-4.13Z"/><path class="cls-2" d="M490.56,276.73c-2.75-1-5.67-1-8.52-1.4a28.16,28.16,0,0,1-17-8.5,11.63,11.63,0,0,0-5.55-3.4,5.88,5.88,0,0,0-2.79-.15c-1.75.4-3.51,1-4.2,2.81s.51,3,1.53,4.21a36.88,36.88,0,0,0,7.39,6.1c1.44,1,2.91,2,4.37,2.94,0,.4.86.63.23,1.15A57.35,57.35,0,0,1,454,271.83a4.2,4.2,0,0,1-.39-.41c-1.4-1.78-3.07-3.53-1.95-6.06.91-2.06,4.34-3.53,7-3.18a9.9,9.9,0,0,1,6.17,3c5.57,6.12,12.62,8.9,20.68,9.58,1.56.13,3.11.43,4.67.65C490.7,275.7,491.36,276,490.56,276.73Z"/><path class="cls-2" d="M238.36,490.85l-.76.34h-.41a3.53,3.53,0,0,1,0-.36c-.91-.73-.51-1.61-.21-2.42a31.56,31.56,0,0,1,5-8.37c2.25-2.89,5.16-5.17,7.33-8.11,2.48-3.37,4.71-6.84,5.17-11.16a12.37,12.37,0,0,0-4.64-11.35,18.83,18.83,0,0,0-5.77-3.15c-.8-.29-1.76-.43-2-1.49a1.47,1.47,0,0,1,.47-1.09,2,2,0,0,1,2.13-.31c6.24,2.12,11,5.72,12.54,12.57a17.86,17.86,0,0,1-2.11,12.54,35.81,35.81,0,0,1-5.86,8.06c-3.71,3.85-7.43,7.71-9.51,12.77C239.44,490,238.81,490.34,238.36,490.85Z"/><path class="cls-2" d="M49.52,166.62c-2.16-1.91-3.74-4.4-6.17-6.05a79.08,79.08,0,0,0-32-12.56c-3.6-.59-7.24-.83-10.87-1.1-.43-.27-.37-.71-.36-1.12,11,.56,21.74,2.57,31.77,7.16,6.76,3.09,13.55,6.42,18.1,12.77A.66.66,0,0,1,49.52,166.62Z"/><path class="cls-2" d="M42.73,180.87c-10.56-14.45-24-23.65-42.65-23.07-.09-.59.08-1,.74-1.11,8,.12,15.62,1.48,22.75,5.25s12.65,9.24,17.76,15.29c.49.57.93,1.19,1.39,1.78C42.59,179.62,44.13,180.23,42.73,180.87Z"/><path class="cls-2" d="M447.49,125c6.53,6.62,14.53,9.2,23.68,8.44,4.63-.38,8.62,1.36,12.56,3.4a28,28,0,0,0,5.32,2.38c.52.66,1.79.44,1.89,1.6a16.84,16.84,0,0,1-6.64-2.52,29,29,0,0,0-15.84-3.8,26.47,26.47,0,0,1-21.61-8.84C446.92,125.35,447.08,125.07,447.49,125Z"/><path class="cls-2" d="M468.64,444.14c6.42,3.8,11.15,9.25,15.05,15.5a63.49,63.49,0,0,1,6.8,16.25,36.42,36.42,0,0,1,.38,8.53l-.13.27-.13-.26c-1.4-14.91-7.42-27.44-19.09-37.05-1.06-.87-2.18-1.67-3.28-2.51C468,444.43,468.27,444.25,468.64,444.14Z"/><path class="cls-2" d="M466,280.48c-.1-.38-.45-.71-.23-1.15a145,145,0,0,1,13.29,8.13,18,18,0,0,1,7.45,10.71,18.53,18.53,0,0,0,3.63,7.35c.38.83,1,1.6.78,2.61a17.52,17.52,0,0,1-5.17-9c-1.44-6-5.3-9.82-10.28-12.87Z"/><path class="cls-2" d="M457.37,116.92a91,91,0,0,0,14.85,4.71c5.1,1.24,9.78,3.49,14.48,5.7,1.13.53,2.29,1,3.44,1.52.44.34,1,.63.75,1.35a58.17,58.17,0,0,1-8.74-3.86c-5.79-2.83-12.1-4-18.2-5.88a34.59,34.59,0,0,1-7-2.71C456.8,117.32,457,117.09,457.37,116.92Z"/><path class="cls-2" d="M.11,307.07a49.17,49.17,0,0,0,7.4,7.13,26.28,26.28,0,0,0,16.7,5.17c.38.14.59.37.4.8-8.34.86-15.18-2.34-21.13-7.86-1.19-1.1-2.24-2.35-3.36-3.53Z"/><path class="cls-2" d="M490.87,113.91c-8.61-.2-16.73-2.71-24.87-5.19-.29-.15-.55-.39-.35-.7s.52-.25.8-.05a41.52,41.52,0,0,1,6.72,1.79,76.54,76.54,0,0,0,17.75,3.17Z"/><path class="cls-2" d="M20.46,272.92c-3.63-2.24-7.14-4.69-11.12-6.34a27.58,27.58,0,0,0-7.76-2.21c-.68-.28-2.3.15-1.14-1.51a48.52,48.52,0,0,1,19.34,8.41c.25.18.48.39.72.59C20.53,272.2,20.94,272.57,20.46,272.92Z"/><path class="cls-2" d="M490.87,106c-7.05-1-14.23-1-21.16-2.9-.36-.1-.7-.24-1.05-.36a.57.57,0,0,1,0-.84c7.3,1.84,14.83,2.08,22.24,3.13Z"/><path class="cls-2" d="M2,490.82l-1.24,0,0-.74C.22,488,1,485.79.76,483.59a29.93,29.93,0,0,1-.28-5.66c-.64-1.77-.41-3.61-.36-5.43a35,35,0,0,1,2,17C2.12,490,2.08,490.39,2,490.82Z"/><path class="cls-2" d="M.09,250c1.84,0,3.63-.28,4.39-2.21s-.14-3.66-1.45-5.13A5.57,5.57,0,0,0,.82,241c-1-.14-.74-.87-.71-1.5a8.16,8.16,0,0,1,4.61,3.63c2.2,3.53,1.17,6.42-2.82,8C1.22,250.86,0,251.6.09,250Z"/><path class="cls-2" d="M10.65,280.89c-3-1.26-5.85-2.95-9.08-3.67-.41-.42-1.34.24-1.48-.73-.07-.52.1-.84.68-.83C4.27,277,7.9,278,11,280.2,11.23,280.6,11,280.77,10.65,280.89Z"/><path class="cls-2" d="M481.49,204l-.52-.55c1-.71,2.07-.18,3.1-.26,2.33-.18,4.57-.79,6.86-1.15l0,1.06C487.79,203.68,484.72,204.66,481.49,204Z"/><path class="cls-2" d="M490.9,490.88l-.42-.1.13-6.36h.26Z"/><path class="cls-2" d="M176.39,464c4.56-.86,9.13-1.69,13.68-2.61a27.28,27.28,0,0,0,8.5-3,7.91,7.91,0,0,0,4.18-8.88c-1.94-12-13.07-21.59-25.15-21.4-12.62.2-24.73,2.69-35.64,9.45a28.93,28.93,0,0,0-12.06,14.3,12.93,12.93,0,0,0,.41,11.1c2.27,4.5,4.33,9.07,5.13,14.12a58.49,58.49,0,0,1,.24,13.73l-1.22,0A40.24,40.24,0,0,0,131,466.8c-.06-.11-.11-.23-.17-.33-5.17-8.82-3.65-15.32,3.73-24,5.4-6.33,12.82-9.59,20.61-11.95a77.38,77.38,0,0,1,23.41-3.47c12.28.15,24.13,11,25.35,23.28.43,4.26-1.48,7.48-5.63,9.51-4.47,2.19-9.35,2.86-14.16,3.76-2.53.47-5.08.83-7.62,1.24-.23.13-.44.11-.51-.17S176.19,464.2,176.39,464Z"/><path class="cls-2" d="M146.22,424.06c-5.15,2.3-10.48,4.22-15.39,7.07-7.62,4.44-11.06,11-10.45,19.77a48.39,48.39,0,0,0,1.23,8.19c2.47,10.07,3.22,20.21,1.22,30.46a7.54,7.54,0,0,0,0,1.31l-1.08-.36a80.15,80.15,0,0,0,1.12-16.69c-.28-5.94-1.72-11.67-2.85-17.46a37.93,37.93,0,0,1-.65-8.44,19.56,19.56,0,0,1,9.41-16.67c5.3-3.46,11.2-5.65,17-8.06C146.43,423.19,146.46,423.55,146.22,424.06Z"/><path class="cls-2" d="M220.81,490.79c-.72-6.19-2.33-12.08-6.19-17.12-4.12-5.39-9.59-7.26-16.16-5.78a34.66,34.66,0,0,0-14,7c-5,4-7.31,9.58-7.94,15.88l-1.22.06c.17-.86.37-1.71.51-2.57,1.5-9.25,7.31-15,15.39-18.87a32,32,0,0,1,7.24-2.6c7.66-1.62,14.21,1.21,18.32,8a36.59,36.59,0,0,1,5.08,16Z"/><path class="cls-2" d="M176.39,464l.1.85a10.46,10.46,0,0,0-6.12,5.72,48.07,48.07,0,0,0-3,8.68c-1.09,3.85-2.19,7.7-3.29,11.54l-1.28.06c2.06-5,2.95-10.26,4.53-15.35a29.29,29.29,0,0,1,2.82-6.77C171.61,466.36,173.5,464.51,176.39,464Z"/><path class="cls-2" d="M204.66,490.83c-1.1-4.13-4-6.54-7.77-8.1-2-.85-3.51-.18-4.56,1.78a13.47,13.47,0,0,0-1.56,6.34l-1.22,0a19.73,19.73,0,0,1,1.67-6.53c1.39-2.78,3.77-3.73,6.59-2.39,3.89,1.85,6.86,4.62,8.07,8.93Z"/><path class="cls-2" d="M68.43,185.76a131.5,131.5,0,0,0,19.68,15.46c6.85,4.2,14,6.4,22.1,4.25,4.25-1.13,8.57-2,12.85-3a6.61,6.61,0,0,0,4.75-3.92,21.86,21.86,0,0,0,1.91-5.9,23.54,23.54,0,0,1,.51-2.4c1.83-7.06,6.92-9.91,13.76-7.38a20.58,20.58,0,0,1,12.83,13.39c.91,2.69,2.82,4.73,4.84,6.64a49.23,49.23,0,0,0,9.06,6.44,51.38,51.38,0,0,1,14.44,13.1c.58.74,1.21,1.45,1.73,2.23,7.72,11.63,19.21,15.72,32.49,16.37,8.51.42,17-.66,25.46-.49,6.59.14,12.85,1.61,18.41,5.34a17,17,0,0,1,7.83,13.92,39.92,39.92,0,0,1-.33,8.28c-.47,2.37.15,4.81-.63,7.19a33.23,33.23,0,0,1-.12-7.4c0-2,0-4,.08-6,.28-8.23-3.77-13.71-11-17.1a34.6,34.6,0,0,0-14.64-3.18c-7.93-.05-15.84.85-23.77.51a68.9,68.9,0,0,1-12.34-1.51,34.27,34.27,0,0,1-20.67-13.17c-3.49-4.68-7.07-9.33-11.64-13.08-3.71-3-8-5.2-11.87-8a27.31,27.31,0,0,1-7.63-8c-.94-1.58-1-3.45-2-5-2.8-4.44-6.26-8-11.43-9.61-5.76-1.76-9.56.14-11.5,5.83-.69,2-1,4.15-1.53,6.21-1.21,4.58-3.81,7.59-8.81,8.35-3.84.59-7.63,1.59-11.41,2.53-7.12,1.76-13.73.36-20-3.15-8-4.48-15-10.33-21.7-16.54a5.19,5.19,0,0,1-.56-.75A.59.59,0,0,1,68.43,185.76Z"/><path class="cls-2" d="M162.42,187.25a2.84,2.84,0,0,1,1.79.92,32.56,32.56,0,0,0,9.71,6.74,20.78,20.78,0,0,1,10.76,11.32A20.6,20.6,0,0,0,191.4,215c8,6.1,16.72,11,26.76,12.87a17.23,17.23,0,0,0,10.55-1,8.5,8.5,0,0,0,5.24-9.79,16,16,0,0,0-4.62-8.87c-4.77-4.81-10.36-8.55-15.74-12.59q-2.41-1.81-4.75-3.71c-6.28-5.11-8.93-11.93-9.37-19.83-.14-2.57-.48-5.13-.78-7.69-.7-6.06-4-10.13-9.53-12.57-4.85-2.15-10.06-3.19-15-5-1.24-.46-2.46-1-3.69-1.43-6.2-2.33-9.88-6.92-11.69-13.14q-1.56-5.33-2.95-10.72C153,110.77,145.68,105,135.19,102.72c-.74-.16-1.48-.29-2.22-.44-.25-.15-.54-.33-.34-.66s.6-.17.93-.09c9.69.37,19.12,7.6,22.48,17.2,1.66,4.75,2.44,9.75,4.14,14.5a18.08,18.08,0,0,0,10.7,11.22c4.26,1.73,8.68,3,13.06,4.33q2.43.76,4.8,1.7c6.46,2.56,10.35,7.15,11.07,14.19.34,3.25.74,6.5,1,9.76.59,7.85,4.6,13.66,10.69,18.29,4.76,3.61,9.77,6.89,14.29,10.81,3.5,3,7.11,6,8.6,10.73,2.34,7.45-.88,13.05-8.53,14.59a18.22,18.22,0,0,1-6.76.17c-11.65-2.06-21.68-7.47-30.5-15.18a18.12,18.12,0,0,1-4.85-7.13,19.81,19.81,0,0,0-10.38-10.93,33.18,33.18,0,0,1-10-7C162.93,188.35,162.35,188,162.42,187.25Z"/><path class="cls-2" d="M82.74,428.94c-.64-10.23,2-19.31,9.56-26.56,2.93-2.82,6.8-4,10.64-5a75.44,75.44,0,0,0,8.3-2.49c4.59-1.8,8.14-4.64,9.91-9.42a21.87,21.87,0,0,1,8.76-10.79c.68-.45,1.27-1,2-1.48,8.77-5.81,7.5-14.77,4.48-20.81a12.74,12.74,0,0,0-10-7.39c-2.84-.43-5.75-.62-8.44-1.8.31-1,1-.5,1.57-.38l7.62,1.28c7,1.19,10.32,6.09,11.88,12.39,1.66,6.71.31,12.62-5.61,16.92-.81.59-1.59,1.24-2.41,1.81-3.87,2.65-7.09,5.87-8.69,10.39-2,5.75-6.38,8.87-11.86,10.71-2.74.92-5.53,1.69-8.34,2.38-8.5,2.11-13.51,7.82-16.35,15.77a40,40,0,0,0-2.22,12.2C82.91,427.33,84,428.52,82.74,428.94Z"/><path class="cls-2" d="M170.31,303.25a20.67,20.67,0,0,0,19.42,3.81c6.48-1.85,11.48,0,16.52,3.53a78.17,78.17,0,0,0,17.9,9.57,47,47,0,0,0,25.41,2.24c.23-.13.44-.11.51.17s-.2.49-.42.65a39,39,0,0,1-17.91.13c-9.28-1.83-17.51-6-25.24-11.37-.67-.46-1.41-.82-2.07-1.3a15.68,15.68,0,0,0-14.33-2.64c-6.32,1.7-12.74,1.24-18.47-2.61a6.63,6.63,0,0,1-2.09-1.86C169.7,303.23,169.92,303,170.31,303.25Z"/><path class="cls-2" d="M247.64,311.06c2.82-1,5.37-2.42,6.86-5.24a7.63,7.63,0,0,0-1-9.26c-2.19-2.57-5-4.34-7.8-6.19-5.23-3.48-10.59-6.79-15-11.39a27.06,27.06,0,0,1-3.48-4.2c-4.85-7.8-11.89-13-19.87-17.15-.78-.4-1.54-.85-2.3-1.27-.26-.48-.26-.81.42-.75,8.72,4.07,16.51,9.3,21.89,17.54,3.58,5.48,8.6,9.43,13.92,13.05,3.68,2.51,7.58,4.71,10.95,7.66,3,2.65,5.26,5.71,4.07,10-1.25,4.56-4.35,7.19-9,8.06C247,311.49,247.69,311.39,247.64,311.06Z"/><path class="cls-2" d="M96.76,195.46c4.29.65,8.58,1.13,12.91.21s7.45-3.38,8.83-7.78a24.38,24.38,0,0,1,3-6.88c3.68-5.24,9-7.74,15.07-8.72,9.1-1.47,16.76,1.16,22.33,8.83.44.6,1,1.15.87,2-.62.44-.83,0-1.1-.47-8.31-13-24.33-11.31-32.79-4.74a16.17,16.17,0,0,0-5,6.49,21.58,21.58,0,0,0-1.11,3c-1.62,6.1-5.85,9-11.85,9.6a29.73,29.73,0,0,1-11.21-.69A.58.58,0,0,1,96.76,195.46Z"/><path class="cls-2" d="M142.41,206.44c-4.9,6.79-11.42,9.75-19.79,8.51-3-.44-5.56.76-7.87,2.53-1.85,1.41-3.6,3-5.44,4.37-7.12,5.47-14.76,5.11-21.4-.94-2.85-2.6-5.09-5.72-7.54-8.66.4-.44.82-.31,1.25,0,1.88,2.19,3.66,4.47,5.65,6.55,4.07,4.24,8.77,6.95,15,5.5a17.69,17.69,0,0,0,6.94-3.67c1.92-1.52,3.79-3.11,5.78-4.54a11.12,11.12,0,0,1,8.37-2.08c7.59,1.09,13.48-1.84,18-7.82.34-.19.62-.61,1.08-.32C142.67,206,142.57,206.24,142.41,206.44Z"/><path class="cls-2" d="M247.64,311.06c.16.37-.07.61-.26.87-4.18,1.22-8.36.6-12.48-.24a62.93,62.93,0,0,1-23.46-10.27,87.79,87.79,0,0,0-11.59-7,26.23,26.23,0,0,0-12.51-3,10.86,10.86,0,0,1-3.73-.37c-.4-.94.17-.91.81-.82,9.89-.63,18.07,3.64,25.8,9.09,8,5.65,16.63,9.87,26.35,11.62A32.14,32.14,0,0,0,247.64,311.06Z"/><path class="cls-2" d="M133.56,101.54c-.41.08-.67.28-.59.74a34.49,34.49,0,0,0-13.32,1.9c-7.13,2.41-14.62,3-22,3.94l-29.87,4c-.62.08-1.25.1-1.87.15-.25.1-.5.11-.51-.23,0-.51.58-.33.77-.62,6-1.15,12.16-1.8,18.25-2.62,9.27-1.25,18.59-2.19,27.82-3.73,4.23-.71,8.19-2.43,12.37-3.27A22.08,22.08,0,0,1,133.56,101.54Z"/><path class="cls-2" d="M82.74,428.94l.73-2.26c.14,4.82,1.1,9.66.08,14.47-1.65,7.75-6.54,9.69-13.1,5.27-4.17-2.81-6.72-6.92-8.85-11.3-2.8-5.76-5-11.8-7.91-17.53a.5.5,0,0,1-.07-.66c.23-.3.51-.27.79-.07,2.68,4.91,4.65,10.15,6.94,15.24,2.15,4.78,4.6,9.36,8.78,12.76A14.31,14.31,0,0,0,74,447.18c3.13,1.21,5.54.39,7.18-2.54A15.85,15.85,0,0,0,83,436.09C82.88,433.71,82.82,431.33,82.74,428.94Z"/><path class="cls-2" d="M86.52,263l-.74-1.28A27.22,27.22,0,0,0,97,264.61a25,25,0,0,0,14.84-4.77c4.44-3.13,9.18-5.51,14.74-5.69A10.36,10.36,0,0,1,137,260.5a31.09,31.09,0,0,0,2.12,3.76c-.14.38-.39.57-.8.4a7.13,7.13,0,0,1-1.92-3c-2.36-5.14-6.09-7.19-11.71-6.35a26,26,0,0,0-11.37,4.79c-5.69,4.09-11.92,6.13-19,5.3A18.94,18.94,0,0,1,86.52,263Z"/><path class="cls-2" d="M73.32,274.51c5.9-1.09,11.64,0,17.35,1.3,7.51,1.71,14.7.66,21.69-2.3a55.4,55.4,0,0,1,9.2-3.3,15,15,0,0,1,9.93.85c-.1,1-.7.58-1.2.44-6.44-2-12.08.65-17.77,3.08a35.31,35.31,0,0,1-21.75,2.3,61.53,61.53,0,0,0-14.56-1.8c-.81,0-1.61.14-2.42.22-.44.12-1,.43-1.2-.2C72.44,274.65,73.11,274.76,73.32,274.51Z"/><path class="cls-2" d="M24.61,320.17l-.4-.8c7.38-.84,13.21-4.76,18.7-9.38a92,92,0,0,1,8.31-6.78,9.83,9.83,0,0,1,5.45-1.8,5.11,5.11,0,0,0,5.3-3.68,5.68,5.68,0,0,0-2.3-6.45l-1.24-.85c.16-.44.56-.44.93-.49,4.08,2.87,5.06,6.62,2.61,10a5,5,0,0,1-4.26,2.41c-3.53-.18-6.1,1.63-8.6,3.68-4,3.3-7.77,7-12.22,9.74A26.15,26.15,0,0,1,24.61,320.17Z"/><path class="cls-2" d="M244.65,271.14c-4.39-2.93-9.39-4.76-13.79-7.66-1.61-1.06-3.64-2.06-3.44-4.32s2.52-2.74,4.29-3.41c4.73-1.79,9.57-3,14.7-2.45,4.64.51,8,3,10.46,6.83a.92.92,0,0,1-.76.82c-.8.05-1.27-.54-1.7-1-4-4.55-9-5.59-14.72-4.37a49,49,0,0,0-7.77,2.28c-.76.3-1.63.54-1.76,1.51s.63,1.59,1.35,2.1a38.16,38.16,0,0,0,5.36,3.14A73.94,73.94,0,0,1,245,269c.77.5,1.7,1,1.26,2.22C245.65,272,245.16,271.27,244.65,271.14Z"/><path class="cls-2" d="M59.37,289.94l-.93.49c-4.51-1.7-8.92-.56-13.32.49a79.33,79.33,0,0,1-10.3,2.27,12.45,12.45,0,0,1-8.76-2.13c-5-3.53-10.11-7-15.4-10.19l.35-.69c3.66,1.58,6.81,4,10.1,6.17a44.69,44.69,0,0,1,4,2.81c3.89,3.23,8.25,3.58,13,2.46,4.4-1,8.7-2.52,13.23-3C54.12,288.4,56.85,288.48,59.37,289.94Z"/><path class="cls-2" d="M51.05,127.24a16.79,16.79,0,0,0,6.25,6.64c5.62,3.39,7.85,8.61,8,14.88.14,5.4.09,10.8.12,16.2a3.14,3.14,0,0,1,.07,2c-.19.69-.57.39-.83-.06-.75-5.07,0-10.16-.27-15.23-.08-1.63-.19-3.26-.33-4.88a14.92,14.92,0,0,0-7.27-11.9,15.27,15.27,0,0,1-6.18-6.42C50.53,128,50.09,127.36,51.05,127.24Z"/><path class="cls-2" d="M142.41,206.44c-.26-.47-.68-.33-1.07-.28,2-2.1,4.61-2.1,7.18-1.62,6.14,1.16,10.52,4.87,13.54,10.16,3.27,5.72,5.5,11.94,8.31,17.88-.3.67-.32.66-1.19-.34-2.34-5-4.63-10.11-7-15.13a20.68,20.68,0,0,0-10.36-10.45C148.74,205.3,145.58,204.61,142.41,206.44Z"/><path class="cls-2" d="M20.46,272.92l0-1.07c3.72,2.32,7.35,4.8,11.48,6.37,8.11,3.08,16.33,2.72,24.58.61l3.82-1c.59-.08,1.28-.59,1.6.4C47.24,283.49,33.26,282.77,20.46,272.92Z"/><path class="cls-2" d="M81.62,212.21l-1.25,0c-4-3.66-9.15-5.41-13.75-8.06-5.06-2.91-10.2-5.69-14.3-10a31,31,0,0,1-4-5c.36-1.13.78,0,1.18,0,5,7.36,12.61,11.32,20.11,15.42,3.62,2,7.57,3.42,10.68,6.27C80.78,211.28,81.19,211.76,81.62,212.21Z"/><path class="cls-2" d="M67.33,325c-.52,4.09-4.65,7.73-9.16,7.69a7.22,7.22,0,0,1-5.07-2.12,3.53,3.53,0,0,1-.8-3.84c.53-1.43,1.75-1.6,3.11-1.54A12,12,0,0,0,61,323.64a27.06,27.06,0,0,1,3.1-1.37C66.47,321.53,67.63,322.55,67.33,325ZM66,323.44c-1-1-2.21.09-3.27.52s-1.91.95-2.9,1.33a11.37,11.37,0,0,1-4.38,1c-.88,0-1.8-.18-2.2.92a2.49,2.49,0,0,0,.86,2.87,6.64,6.64,0,0,0,4.52,1.57,8,8,0,0,0,7-4.69C66.16,325.82,67,324.44,66,323.44Z"/><path class="cls-2" d="M249.65,323.23l-.08-.82a24.18,24.18,0,0,1,2.88-.83c6-1,10.82-4.17,15.63-7.52,4-2.81,6.64-6.44,7-11.47a5.34,5.34,0,0,1,.22-.9.49.49,0,0,1,.74,0,13.31,13.31,0,0,1-4.44,10.79C265.33,318.09,258.17,322.11,249.65,323.23Z"/><path class="cls-2" d="M138.32,264.66l.8-.4c4.2,3.71,9.53,4.26,14.69,5.28,1.42.28,2.83.6,4.24.89,4.7,1,7.79,4.1,10.42,7.84-.14.35-.44.4-.77.41a2.3,2.3,0,0,1-.58-.46c-3.38-5.37-8.77-7-14.58-7.88a39.39,39.39,0,0,1-9.49-2.37A10.71,10.71,0,0,1,138.32,264.66Z"/><path class="cls-2" d="M96.76,195.46l0,.86A46,46,0,0,1,75,185.2a28.34,28.34,0,0,1-4.33-4.66c-.15-.47-.49-1,.38-1.14C77.73,187.75,86.49,192.81,96.76,195.46Z"/><path class="cls-2" d="M119.45,342.83l-1.57.38a9.06,9.06,0,0,1-6.12-5.36c-.53-1.2-.9-2.47-1.41-3.68-1.8-4.28-5-5.88-9.54-4.71-1.27.33-2.49.83-3.73,1.25l-1.23-.36a14.29,14.29,0,0,1,8.23-2.24,7.2,7.2,0,0,1,6.5,4.14,38.65,38.65,0,0,1,1.86,4.53C113.65,340.13,116.3,341.75,119.45,342.83Z"/><path class="cls-2" d="M130.29,271.5l1.2-.44a16.9,16.9,0,0,1,5.26,2.83c5.7,4.26,11.74,7.87,18.63,9.86a10.4,10.4,0,0,1,1.37.61c.32.16.6.36.56.77a.44.44,0,0,1-.6.41c-3.28-1.57-6.86-2.38-10.08-4.1a74.08,74.08,0,0,1-10-6.33A32.12,32.12,0,0,0,130.29,271.5Z"/><path class="cls-2" d="M244.65,271.14l1.23,0c.64-.51,1.16-.2,1.66.24s1.08,1,1.66,1.52c2.44,2,3.73,2.23,5.92,1a6,6,0,0,0,2.88-6.06,17,17,0,0,0-1.77-5.31c-.29-.6-1-1.29-.08-2l.71-.39a12.9,12.9,0,0,1,3.15,8.8,7.64,7.64,0,0,1-6,7.65A5.28,5.28,0,0,1,248.7,275Z"/><path class="cls-2" d="M51.05,127.24l-.41,1.19c-3.3-6.17-1.5-11.56,5-14.53a29.41,29.41,0,0,1,10.54-2.54c-.18.25-.4.5-.26.85-3.23.7-6.53,1.13-9.58,2.53a13.31,13.31,0,0,0-4,2.76C49.43,120.42,49.66,123.76,51.05,127.24Z"/><path class="cls-2" d="M205.52,255.6l-.42.75c-7.18-3.3-14.61-6-22-8.85a18.42,18.42,0,0,1-1.81-.95c.38-.63,1-.18,1.48-.31,6.9,2.8,14,5.12,20.73,8.31C204.22,254.87,204.86,255.25,205.52,255.6Z"/><path class="cls-2" d="M270,267.88v6.49c.71-2.07,0-4.24.75-6.28-.7,7.92,1.4,15.39,3.67,22.84.42,1.37.63,2.8.94,4.2.13.3.22.66-.05.85s-.56,0-.71-.34c-1.57-6.77-4.28-13.28-4.81-20.29A25,25,0,0,1,270,267.88Z"/><path class="cls-2" d="M182.81,246.25l-1.48.31c-4.3-1.92-7.06-5.42-9.47-9.27-.56-.9-1-1.85-1.53-2.78,0-.72.34-.64.79-.41,1.68,2.58,3.15,5.29,5.28,7.55A21.71,21.71,0,0,0,182.81,246.25Z"/><path class="cls-2" d="M71,179.4l-.38,1.14a24.46,24.46,0,0,1-5.94-13.67c1.38-.19.34-1.34.75-1.91.45,3.8,1.17,7.52,3.25,10.83C69.46,177,70.24,178.2,71,179.4Z"/><path class="cls-2" d="M171.83,282.08a36,36,0,0,0,8.33,6.79c.29.52.21.85-.46.87a31.61,31.61,0,0,1-8.95-7.32C170.85,281.45,171.39,281.91,171.83,282.08Z"/><path class="cls-2" d="M62,278.26l-1.6-.4a98.54,98.54,0,0,1,12.94-3.35c-.49.65,0,.71.47.79Z"/><path class="cls-2" d="M49.53,189.17l-1.18,0-5.62-8.34c.34-.63,0-1.25,0-1.87C45.26,182.21,47.3,185.75,49.53,189.17Z"/><path class="cls-2" d="M62.36,180.93a66.76,66.76,0,0,1-5.69-6.07c0-.71.41-.62.86-.48a60.54,60.54,0,0,1,5.22,5.74C62.92,180.53,62.74,180.77,62.36,180.93Z"/><path class="cls-2" d="M42.31,403.32l.48-.86a24.16,24.16,0,0,1,4.81,4.62c-.24.5.74,1,0,1.5Z"/><path class="cls-2" d="M165,297.22l-2.59-5.73c.19-.38-.15-.95.43-1.19a19.53,19.53,0,0,1,2.94,6.49A.71.71,0,0,1,165,297.22Z"/><path class="cls-2" d="M47.63,408.57c0-.5-.46-1,0-1.5l4.28,5.19c-.36,1.08-.79.19-1.19,0Z"/><path class="cls-2" d="M50.69,412.3a1.53,1.53,0,0,0,1.19,0,17.93,17.93,0,0,1,2.54,4.61.78.78,0,0,0-.73.73Z"/><path class="cls-2" d="M274.61,295.65c.44.1.65-.13.77-.52a18.46,18.46,0,0,1,.66,6.55h-.74Z"/><path class="cls-2" d="M171.83,282.08a1.36,1.36,0,0,0-1.07.33,21.87,21.87,0,0,1-3-3.73l.77-.41Z"/><path class="cls-2" d="M156.71,285.54c.43-.38.28-.78,0-1.18a12.91,12.91,0,0,1,4.19,3.34c-.14.39-.48.41-.82.43Z"/><path class="cls-2" d="M62.36,180.93l.39-.82,2.57,2.4c.34.32.62.73.31,1.13s-.77,0-1-.27A12.31,12.31,0,0,1,62.36,180.93Z"/><path class="cls-2" d="M165,297.22c.11-.42.41-.48.78-.42l2,3.32c0,.68-.36.71-.87.46Z"/><path class="cls-2" d="M179.71,289.73l.46-.87,4.25,1.39a1.14,1.14,0,0,0-.81.82A12,12,0,0,1,179.71,289.73Z"/><path class="cls-2" d="M49.52,166.62l.44-.91,3,3.42c-.15.42-.54.43-.89.49A15.55,15.55,0,0,1,49.52,166.62Z"/><path class="cls-2" d="M160.12,288.14l.82-.43a10.29,10.29,0,0,1,1.92,2.6c-.09.41,0,.88-.43,1.19Z"/><path class="cls-2" d="M57.53,174.37l-.86.48-2.64-3c.14-.41.5-.42.85-.46A13.32,13.32,0,0,1,57.53,174.37Z"/><path class="cls-2" d="M166.95,300.57l.87-.46,2.5,3.14-.77.33A8.17,8.17,0,0,1,166.95,300.57Z"/><path class="cls-2" d="M54.87,171.38l-.85.46-2-2.21.89-.49Z"/><path class="cls-2" d="M160.16,183.88a3.38,3.38,0,0,1,2.28,3.06C161,186.43,160,185.57,160.16,183.88Z"/><path class="cls-2" d="M68.43,185.76l-.84.4c-.63-.46-1.51-.74-1.45-1.75,0-.12.28-.35.37-.33C67.4,184.33,67.86,185.11,68.43,185.76Z"/><path class="cls-2" d="M171.13,234.1l-.79.41a6,6,0,0,1-1.15-2.27c.4.1.7.53,1.19.34A3.13,3.13,0,0,1,171.13,234.1Z"/><path class="cls-2" d="M266.59,411.26c-6.84,0-13.58-.57-19.8-3.82-3.66-1.91-6.79-4.34-8.29-8.37a8.89,8.89,0,0,1-.47-4.83c1.15-5.82-1.25-10.29-5.27-14.15a27.78,27.78,0,0,0-7.82-5.18,16.35,16.35,0,0,1-6-4.14c-1.5-1.79-2.32-3.8-1.56-6.1s2.76-3.29,5-3.73a7.88,7.88,0,0,1,2.06-.24c10.32.8,20.6-.77,30.91-.56a19.77,19.77,0,0,1,5.24.54c2.41.71,2.78,2.29.93,4a29.87,29.87,0,0,1-5.41,3.42,29.45,29.45,0,0,0-7.1,5.23c-3.06,3.31-3.41,7-1.71,11,1.84,4.32,5.16,7.18,9.2,9.35,4.37,2.34,9.11,3.56,13.87,4.73.46.6.11,1-.35,1.35a2.07,2.07,0,0,1-1.82.16c-6.29-1.49-12.34-3.56-17.45-7.71a17.87,17.87,0,0,1-6.09-9.54c-1.31-5,.67-8.85,4.25-12.11,2.49-2.27,5.55-3.66,8.38-5.43.8-.5,2.18-.79,1.88-2s-1.6-.72-2.47-.91a14.72,14.72,0,0,0-4.89-.15c-4.06.45-8.16.32-12.23.64-2.56.2-5.15-.07-7.72.34a12.1,12.1,0,0,1-3.76-.13,13,13,0,0,0-6.16.34c-2.59.86-3.38,3-2,5.38a10.4,10.4,0,0,0,5,4.1,32.22,32.22,0,0,1,10.7,7.59c3.39,3.79,5.23,8.08,4.44,13.29s1.74,8.57,5.86,11.09a31.16,31.16,0,0,0,16,4.45c2.46,0,4.89.34,7.33.47.63,0,1.28.1,1.57.82s-.13,1-.83,1A18.79,18.79,0,0,1,266.59,411.26Z"/><path class="cls-2" d="M325.92,442.55c6.79-2.68,11.72-7.52,15.3-13.71,4.2-7.26,3-14.67-3.21-21.18-7.08-7.42-16.09-11.12-26-12.66s-19.87-2.21-29.69-4.19a47.41,47.41,0,0,1-9.07-2.55,17.75,17.75,0,0,1-2.85-1.45c-2.3-1.5-2.58-3.25-.8-5.35a25.46,25.46,0,0,1,14.43-8.35,27.93,27.93,0,0,1,19.24,2.5l4.51,2.32c.56.38.62.8.11,1.26-1.14.72-2.06,0-3-.52-3.82-2-7.71-3.71-12.06-4.11a25.88,25.88,0,0,0-20.49,6.79c-2.08,1.88-1.7,3.63.92,4.76,4.78,2.06,9.89,2.84,15,3.75,9.1,1.63,18.41,1.83,27.44,3.8s17.33,5.78,23.77,12.69c3.82,4.1,6.31,8.93,6.23,14.75a17.13,17.13,0,0,1-2.53,8.21c-3.58,6.34-8.4,11.44-15.14,14.47-1.36.61-2.89,1.52-4.28-.08C323.78,442,325.3,443.12,325.92,442.55Z"/><path class="cls-2" d="M414.36,330.35c1.1,2.2.94,4.65,1.42,7,2,9.82,7.17,17.16,16.7,21a19.16,19.16,0,0,0,8.5,1.27c8.07-.53,15.42,3.91,17.88,10.83a8.14,8.14,0,0,1,.41,5,3.67,3.67,0,0,1-4,3c-3,0-5.66-1.08-8.39-2a69.17,69.17,0,0,0-10.7-2.94c-2.91-.47-5.76,0-8.62.36-1.06.36-1.1-.22-.93-1,1.11-1.44,2.8-1.29,4.31-1.42A31,31,0,0,1,443,373c3.12,1,6.16,2.21,9.35,3,1.47.35,3.06.77,4.28-.49s.75-3,.21-4.46c-1.69-4.6-5.17-7.31-9.74-8.73a20.43,20.43,0,0,0-6.91-.76,23.42,23.42,0,0,1-17.42-6.88,29.31,29.31,0,0,1-9-17.44c-.3-2-.94-4-.79-6.14C413.32,330.58,413.66,330.11,414.36,330.35Z"/><path class="cls-2" d="M414.36,330.35l-.48,1.21c-1,.31-1.19-.5-1.47-1.08-2.41-5-6.7-6.78-11.9-6.68-10.34.2-20,2.74-28.43,9a20.56,20.56,0,0,0-6.7,8.49c-1.19,2.76-.4,4.77,2.33,6a19.46,19.46,0,0,0,7.16,1.46,28.8,28.8,0,0,1,13,3.92c.49.28,1,.56,1.08,1.21,0,.84-.55.93-1.21.85a34.08,34.08,0,0,0-15.68-4.25,13.18,13.18,0,0,1-5.78-1.56c-3.49-1.79-4.48-4.58-2.92-8.18a23.37,23.37,0,0,1,8.81-10.57,51.9,51.9,0,0,1,29.29-8.37,14,14,0,0,1,9.7,3.55A10.07,10.07,0,0,1,414.36,330.35Z"/><path class="cls-2" d="M474.67,490.49l-1.1.37a4.84,4.84,0,0,1-1.38-2.19c-4.21-13-12.82-22.43-24-29.8-5.34-3.53-11.24-6.15-16.28-10.19-7.41-5.93-13-13-15.27-22.46a8.17,8.17,0,0,1-.19-3.36c.45-.52.53-1.33,1.26-1.63a33.91,33.91,0,0,0,5.48,15.48,50.86,50.86,0,0,0,15.12,14c4.72,3,9.86,5.3,14.33,8.72,9.8,7.51,17.59,16.5,21.41,28.49C474.35,488.77,474.48,489.64,474.67,490.49Z"/><path class="cls-2" d="M307.73,378.75l.08-.81c2.26.93,4.52,1.88,6.79,2.8a23.85,23.85,0,0,0,20.91-1.17,41.55,41.55,0,0,1,18-5,20.49,20.49,0,0,1,8.13,1.34,9.37,9.37,0,0,1,3.91,2.51.82.82,0,0,1-.49,1.05,1.63,1.63,0,0,1-1.42-.32c-5-3-10.39-3-15.86-1.83a47,47,0,0,0-11.67,4.17,26.21,26.21,0,0,1-13.22,3.1c-5.22-.21-9.88-2.16-14.51-4.3A1.1,1.1,0,0,1,307.73,378.75Z"/><path class="cls-2" d="M387.79,354.69l.82-.54c1-.74,1.79-.11,2.57.39a26.13,26.13,0,0,1,8.17,8c3.92,6.26,9.85,8.64,16.72,9.56a30,30,0,0,0,8.83.15c.8-.13,1.82-.31,2.22.85a.56.56,0,0,0,.46.75c-8.53,1.26-16.76.68-24.26-4.12a14.49,14.49,0,0,1-4.64-4.6A31.73,31.73,0,0,0,387.79,354.69Z"/><path class="cls-2" d="M468.64,444.14l-.39.72c-5.78-3.51-12.44-4.47-18.72-6.54-5.93-2-11.6-4.45-15.79-9.37a11.45,11.45,0,0,1-2.49-4.16l.45-.89c3,6.39,8.48,9.73,14.7,12.2a81.27,81.27,0,0,0,11.37,3.41A32.27,32.27,0,0,1,468.64,444.14Z"/><path class="cls-2" d="M296.87,473.9a1.52,1.52,0,0,1,.39-1.37c6.51-8.9,10.49-18.75,11-29.85.1-2.18-.1-4.38-.16-6.57a1.11,1.11,0,0,1,1.24,0,3.12,3.12,0,0,1,.88,2.39,48.87,48.87,0,0,1-3.8,21.69A60.87,60.87,0,0,1,300.2,472c-.73,1.05-1.31,2.56-3.12,2.14Z"/><path class="cls-2" d="M365.19,379.12l.37-.71c1.66.64,2.67,2,3.72,3.34a105.42,105.42,0,0,0,7.39,8.78,19,19,0,0,0,16.09,5.71c1.06-.1,2.12-.12,3.19-.17a14.51,14.51,0,0,1,3.5-.16c.35,0,.82-.09.89.4s-.26.69-.55.92a4.22,4.22,0,0,1-2.3.55,46,46,0,0,1-9.76.34c-5.44-.18-9.6-3-13.2-6.81-3.21-3.36-5.89-7.17-8.91-10.7C365.27,380.18,364.81,379.77,365.19,379.12Z"/><path class="cls-2" d="M297.23,401.79c10.1,1.15,18.81,4.67,24,14.17a10.14,10.14,0,0,1,1.35,3.87c.43,1.25,0,1.59-1.18,1.1a3.3,3.3,0,0,1-1-1.75c-2.15-6.15-6.64-10-12.38-12.62a33.1,33.1,0,0,0-8.81-2.54c-.85-.31-1.91-.27-2.28-1.36A1.08,1.08,0,0,1,297.23,401.79Z"/><path class="cls-2" d="M417.75,421.24a4.31,4.31,0,0,1-.48,2c-1.49-.2-1.22-1.41-1.25-2.33a61.35,61.35,0,0,1,.71-12.53c.83-4.8-1-7.75-5.59-9.48a14.85,14.85,0,0,0-2.89-.79,2.74,2.74,0,0,1-2-1c-.08-.5-.48-1.16.54-1.12a16.77,16.77,0,0,1,6.54,1.62c4,1.82,6,5.15,5.51,9.54C418.36,411.85,417.56,416.5,417.75,421.24Z"/><path class="cls-2" d="M308.93,436.49l-.83-.37c-.42-1.57-.81-3.15-1.28-4.71A24.13,24.13,0,0,0,291.9,415.3c-.87-.35-1.74-.72-2.61-1.08-.16-.78.4-.84.93-.94a7.42,7.42,0,0,1,3.24.68,2,2,0,0,1,.78.42c8.79,3.68,13.4,10.64,15.32,19.67C309.75,434.92,310.16,435.95,308.93,436.49Z"/><path class="cls-2" d="M321.79,420.25c.6.47.7.07.76-.42,1.29,4.2.94,8.4.07,12.61-.37,1.78-.94,3.53-1.15,5.32-.48,4,.51,5,4.46,4.79-.58.44-1.5.28-1.88,1.06a2,2,0,0,1-3.47-.43,8.32,8.32,0,0,1-1.16-5.4,15.88,15.88,0,0,1,.55-3.14,34.08,34.08,0,0,0,1.17-12.44C321.09,421.45,320.88,420.67,321.79,420.25Z"/><path class="cls-2" d="M287.89,490.8l-1.26.05a43.4,43.4,0,0,1,8.53-15.76c.44-.52.7-1.43,1.71-1.2l0,0A1.32,1.32,0,0,1,297,476c-3.18,4-6,8.26-7.58,13.24A2.68,2.68,0,0,1,287.89,490.8Z"/><path class="cls-2" d="M277.94,399.58l12.9,1.47c.22.45.78.84.27,1.42s-1.22.33-1.85.39c-1.23-.25-2.63-.11-3.69-.39-1.69-.44-3.39,0-5-.59a4,4,0,0,1-2.68-.82C277.44,400.55,277.62,400.07,277.94,399.58Z"/><path class="cls-2" d="M290.5,413.8l-1.21.43c-4.24-1.52-8.76-1.62-13.12-2.52a.81.81,0,0,1-.12-1.26c1.09-.92,2.26-.28,3.31,0a55.35,55.35,0,0,0,6.63.76,37.19,37.19,0,0,1,4,1.75C290.3,413.17,290.54,413.38,290.5,413.8Z"/><path class="cls-2" d="M406.85,396l-.12.83c-.32.8-1,.86-1.73.87-2.13,0-4.27,0-6.4,0-.69,0-1.41-.08-1.68-.92.77-.49,1.71-.16,2.52-.73h-3.49A37.77,37.77,0,0,1,406.85,396Z"/><path class="cls-2" d="M276.1,410.86l.06.85c-3.19-.22-6.41.08-9.58-.46l2.89-.08c.46,0,1.05.09.92-.71.71-1.3,1.85-.79,2.89-.68C274.2,410.21,275.49,409.66,276.1,410.86Z"/><path class="cls-2" d="M269.62,399.17c.41-.12.75-.31.78-.79l6.12,1c-.51.93-1.49,1-2.35,1.34a32.64,32.64,0,0,1-3.28-.36C270.24,400.21,269.53,400.11,269.62,399.17Z"/><path class="cls-2" d="M291.22,402.07l-.38-1,6.38.73,0,.79c-.51.6-1.21.47-1.87.49C294,402.63,292.4,403.18,291.22,402.07Z"/><path class="cls-2" d="M274.62,400.15c.23-1.3,1.31-.41,1.91-.73l1.42.17a1.14,1.14,0,0,1,0,1c-.31.73-1,.55-1.54.61a1.75,1.75,0,0,1-1.57-.52A1.15,1.15,0,0,1,274.62,400.15Z"/><path class="cls-2" d="M162,243.19c3.85,4.53,8.94,7.47,13.76,10.76,4.26,2.9,8.65,5.61,12.67,8.85a14.16,14.16,0,0,1,3.38,3.51c1.23,2,.3,3.8-2.05,4a8.52,8.52,0,0,1-4.68-1.24c-3.79-2-7.52-4.05-11.32-6a17.62,17.62,0,0,0-10-1.82c-8.52.84-14.61-3-17.87-10.81a13.54,13.54,0,0,0-13.49-7.69,8.31,8.31,0,0,0-3.55,1.64,21.72,21.72,0,0,1-9.31,3.89c-3.46.48-5.24-.87-5.75-4.33a21,21,0,0,1,.34-9.71,7.87,7.87,0,0,1,1.62-3.15.91.91,0,0,1,1.08.28c.46.62.13,1.17-.13,1.76-1.58,3.41-1.52,7-.83,10.54.42,2.17,1.64,2.92,3.85,2.53a17.54,17.54,0,0,0,7.43-3.12c4.77-3.52,9.52-2.89,14.33-.31a13.15,13.15,0,0,1,6.36,7.18,14.6,14.6,0,0,0,16,9.3c5.65-.74,10.47,1.5,15.17,4.18,2.35,1.34,4.68,2.71,7.14,3.85a7.67,7.67,0,0,0,2,.69c.51.09,1,.11,1.36-.39a1.16,1.16,0,0,0-.25-1.39,20.42,20.42,0,0,0-3.87-3.29c-6.51-4.84-13.55-8.93-20-13.84a36.79,36.79,0,0,1-4.22-4c-.5-.52-.87-1.1-.39-1.85C161.05,242.73,161.51,243,162,243.19Z"/><path class="cls-2" d="M162,243.19l-1,0c-.81.47-1.27,0-1.72-.61-.85-1.1-1.63-2.24-2.44-3.36a14.17,14.17,0,0,0-11.66-6,19.72,19.72,0,0,1-9.52-2.65,16.23,16.23,0,0,0-11.8-2,12.69,12.69,0,0,0-5.32,2.27c-.57.43-1.09,1.15-2,.63l-.78-.39c3.68-4.86,8.92-5.06,14.3-4.75a13.91,13.91,0,0,1,6,2.19,19,19,0,0,0,8.93,2.64,16.78,16.78,0,0,1,14.69,8.4C160.31,240.82,161.16,242,162,243.19Z"/><path class="cls-2" d="M53.83,238.58c3.7,2,7.49,3.85,11.09,6,4.73,2.84,4.71,5.45,0,8.31a27.35,27.35,0,0,1-15.1,4c-5.31-.13-7.07-1.76-8.35-7.32a.88.88,0,0,1,.69-.52c1.07-.07,1.48.74,1.64,1.51.75,3.49,3.4,4.43,6.36,4.38a26.9,26.9,0,0,0,14.1-4.08c2.27-1.43,2.23-2.75,0-4.3-3.15-2.19-6.83-3.45-10-5.55-.82-.53-2.13-.86-1.51-2.36A.9.9,0,0,1,53.83,238.58Z"/><path class="cls-2" d="M42.31,249.59l-.83,0A26,26,0,0,0,34.37,242c-1.17-.88-2.19-2-1.88-3.64s1.77-2.17,3.15-2.59A28.44,28.44,0,0,1,43,234.5a15.12,15.12,0,0,1,10.8,4.08l-.91.46c-.74.65-1.37.27-2-.18-4.59-3.15-9.49-2.67-14.44-1.15-1.7.52-1.85,1.48-.59,2.77s2.89,2.4,4.18,3.79a17.14,17.14,0,0,1,2.34,3.17C42.79,248.13,43.22,248.9,42.31,249.59Z"/><path class="cls-2" d="M230.72,298c-3.36-.29-6.42-1.08-9-3.3-.56-.49-1.21-1.06-.94-1.91s1.22-1,2-1a15.73,15.73,0,0,1,8.81,2.91c.8.59,1.8,1.27,1.42,2.41S231.5,297.83,230.72,298Z"/><path class="cls-2" d="M106.91,351.61c2.89,1.51,5.84,2.93,8.67,4.54,6.37,3.61,7.29,8,3,14-2.13,2.94-5,5.09-7.82,7.31s-5.54,4.66-6.72,8.36c-.65,2.06-2.58,3-4.49,3.74-1.64.62-3.33,1.13-5,1.61a16.15,16.15,0,0,0-8.1,5.23,43.69,43.69,0,0,1-6.85,7c-2.63,2-5.51,3.25-8.9,2.91a1.09,1.09,0,0,1-.34-.77,1.52,1.52,0,0,1,1.53-1.18c4.81-.41,8-3.41,10.87-6.84,3.5-4.23,7.48-7.6,13-8.82a23.48,23.48,0,0,0,2.88-.89,5.81,5.81,0,0,0,3.89-3.57,15.48,15.48,0,0,1,5-6.68c2.9-2.49,6.09-4.67,8.59-7.62a14.91,14.91,0,0,0,2.26-3.46c1.32-2.89.86-5-1.63-7-2.76-2.25-6.08-3.53-9.19-5.17a5.83,5.83,0,0,1-2.32-1.57,1,1,0,0,1-.1-1.07C105.75,350.77,106.32,351.74,106.91,351.61Z"/><path class="cls-2" d="M106.91,351.61l-1.63,0c-.6.57-1.14.32-1.66-.12a6.94,6.94,0,0,1-.85-1c-2.68-3.27-5.65-4-9.53-2.32a32.83,32.83,0,0,0-4.94,2.72c-6,4-12.4,7.22-19.56,8.52C62.42,360.55,56.11,360.57,50,358c-.68-.29-1.46-.47-1.78-1.28-.12-.72-.16-1.38.92-1,3,.82,5.91,2.05,9.08,2.33,9.22.82,17.43-2.15,25.28-6.55,2.63-1.47,5-3.44,7.71-4.69a12.8,12.8,0,0,1,7.29-1.39,7.58,7.58,0,0,1,5.34,3.19A11.91,11.91,0,0,0,106.91,351.61Z"/><path class="cls-2" d="M49.19,355.67a.53.53,0,0,0-.41.73c-.44,1-1.27.63-2,.49-1.54-.3-3.06-.73-4.62-.93a8.52,8.52,0,0,0-9.49,10.86,23,23,0,0,0,1,3.06c.25.59.49,1.18,0,1.78a1.12,1.12,0,0,1-1.16.28c-2.27-4.32-3.3-8.6-.54-13.22a9,9,0,0,1,8.2-4.75A22,22,0,0,1,49.19,355.67Z"/><path class="cls-2" d="M32.53,371.95l.74-.4c.88-.17,1.22.43,1.57,1.05a26.26,26.26,0,0,1,2.22,5.19,11.74,11.74,0,0,0,7.87,8.2,17,17,0,0,1,6.41,3.49c.74.69,1.54,1.33,1.22,2.53-.54.77-1,.18-1.55-.05a12.18,12.18,0,0,0-5.79-3.68c-5.33-1.65-8.81-5-10.29-10.43A49.55,49.55,0,0,0,32.53,371.95Z"/><path class="cls-2" d="M70.69,405.61v.66c-1.78-.09-3.61.09-5.29-.75-.36-.5-.18-.89.25-1.23C67.89,403.7,69.69,404.16,70.69,405.61Z"/><path class="cls-2" d="M62.38,404.44c-1.72-.38-2.91-1.58-4.19-2.65a.82.82,0,0,1,.17-1.15c2.08-.48,3,1.17,4.23,2.28A1.63,1.63,0,0,1,62.38,404.44Z"/><path class="cls-2" d="M58.67,400.92l-.49.87a14,14,0,0,1-3.05-3.73c0-.4,0-.81.44-1A3.73,3.73,0,0,1,58.67,400.92Z"/><path class="cls-2" d="M51,392l1.17,0c1.73,0,2.77,1.62,2.31,3.56a1.06,1.06,0,0,1-1.21-.15Z"/><path class="cls-2" d="M62.38,404.44,62,403.31a2.63,2.63,0,0,1,3.85,1.42l-.42.79A5.41,5.41,0,0,1,62.38,404.44Z"/><path class="cls-2" d="M53.29,395.34h1.15c1.28,0,1.76.58,1.2,1.82l-.51.91A9.15,9.15,0,0,1,53.29,395.34Z"/><path class="cls-2" d="M468.68,101.87l0,.84c-3.64-.68-7.1-2.07-10.76-2.7-7.14-1.23-13.89-.44-20,3.65-2.7,1.8-5.77,2.74-8.75,3.91a24.54,24.54,0,0,0-3.24,1.49,4.29,4.29,0,0,0-2.28,4.22,4.38,4.38,0,0,0,2.77,3.93c2.61,1.25,5.46,1.38,8.26,1.7,4.87.55,9.36,1.88,12.69,5.79a2.13,2.13,0,0,1,.19.32l-.64.68c-3.24-3.78-7.54-5.25-12.32-5.77a30.76,30.76,0,0,1-7.78-1.39c-2.34-.89-4-2.35-4.2-5a5.51,5.51,0,0,1,3.42-5.75c3.38-1.69,7.14-2.48,10.4-4.42a34.06,34.06,0,0,1,7-3.61A30.24,30.24,0,0,1,458,99,68.07,68.07,0,0,1,468.68,101.87Z"/><path class="cls-2" d="M19.34,490.86l-1.2,0c.64-2.93,0-5.73-.83-8.52a76.89,76.89,0,0,1-2.19-8,25.79,25.79,0,0,1-.25-9.36A24.48,24.48,0,0,0,13,450.82c-.81-1.9-1.73-3.76-2.59-5.64a33.25,33.25,0,0,1-1.51-3.44c-.67-2.07.14-3,2.29-2.81a8.66,8.66,0,0,1,5.5,2.56c.16.67-.2,1-.77,1.2-1.05.14-1.66-.81-2.55-1.06-.55-.15-1.11-.41-1.59.07s-.23,1.06,0,1.58c1,2.24,2.21,4.37,3.11,6.66,2,5.07,3,10.24,2,15.67C16,470,17,474.09,18.2,478.22c1,3.36,2.34,6.66,2.06,10.28A2.87,2.87,0,0,1,19.34,490.86Z"/><path class="cls-2" d="M16,442.14l.67-.65a28.67,28.67,0,0,1,6.7,9.22,115.18,115.18,0,0,1,11.35,39.21c0,.31.09.62.14.93h-1.2c-1.14-1-1.08-2.47-1.28-3.82-2.07-13.44-5.6-26.39-12.49-38.25a25.2,25.2,0,0,0-3.44-4.7C15.93,443.54,15.3,443,16,442.14Z"/><path class="cls-2" d="M466.45,108a.56.56,0,0,0-.45.75c-1.78-.31-3.56-.64-5.34-.92a12,12,0,0,0-4.65.1,4.21,4.21,0,0,0-3.42,3.09c-.46,1.71.48,2.9,1.68,3.87,1,.78,2.07,1.38,3.11,2.06l-.41.83a11.66,11.66,0,0,1-3.37-2c-1.5-1.28-2.56-2.78-2-4.92a5,5,0,0,1,4.32-3.94C459.5,106.19,463,106.91,466.45,108Z"/><path class="cls-2" d="M242.49,444.7c-9.13-2.37-18.62-2.47-27.82-4.41a28.18,28.18,0,0,1-10.79-4.21,11,11,0,0,1-4.14-4.75c-.12-.23-.12-.45.16-.53s.51.17.69.4c3.24,4.86,8.22,6.75,13.6,8,6.94,1.56,14.06,1.86,21.05,3,2.57.43,5.25.56,7.59,1.94Z"/><path class="cls-2" d="M382.14,474a13.53,13.53,0,0,1-3.86-1.47c-9.76-5.25-18.53-3.43-26.56,3.67a92.36,92.36,0,0,0-12.43,14.13,1.48,1.48,0,0,0-.13.53l-.38.11-1.18-.13c4.67-6.3,9.43-12.53,15.77-17.31,7.69-5.79,15.84-6.71,24.52-2.32,1.51.76,3.11,1.33,4.67,2C382.71,473.61,382.49,473.83,382.14,474Z"/><path class="cls-2" d="M440.94,490.79c-2.17-5.75-6.17-10-11-13.53-6.83-5-14.55-8.19-22.34-11.26-1.57-.62-3.14-1.26-4.71-1.89a2,2,0,0,1,1-1.1,2.59,2.59,0,0,1,1.66.12c9.16,3.39,18.22,7,26.14,12.89,4.39,3.27,8.14,7.13,10.44,12.2.35.77.93,1.63-.24,2.27l-.4.39Z"/><path class="cls-2" d="M405.58,490.86c-2.86-1.75-6.11-2.46-9.26-3.4-4.8-1.43-9.72-2.4-14.63-3.37a14.77,14.77,0,0,0-8.14.4c-.72.06-.65-.3-.41-.75a11.63,11.63,0,0,1,7.7-.81c8.57,1.55,17.09,3.34,25.18,6.68a5.5,5.5,0,0,1,2.3,1.22Z"/><path class="cls-2" d="M373.13,483.72l.41.75a30.23,30.23,0,0,0-7.12,6.32l-1.32-.42C367.75,488.13,369.67,485,373.13,483.72Z"/><path class="cls-2" d="M427.79,490.82c-1.68-2.48-4.41-3.61-6.78-5.2a.85.85,0,0,1,.44-.8,17.4,17.4,0,0,1,7.17,5.29Z"/><path class="cls-2" d="M391.2,409.8a48.66,48.66,0,0,0-9.86-1.38c-5.95-.46-10.53-3.39-14.11-8.08-2.29-3-4.09-6.33-6.12-9.51-2.86-4.47-5.09-5.44-10.3-4.33a24.39,24.39,0,0,0-6.47,2c-3.3,1.74-4.07,4.19-2.43,7.55a19.92,19.92,0,0,0,7.14,7.89c7.55,5,9.44,12,8,20.38-2,11.23-7.1,21-14.32,29.73a157.28,157.28,0,0,1-30.16,28,42.7,42.7,0,0,0-8.16,8l-.71-.34c2.3-4,5.81-6.67,9.39-9.36,13-9.73,24.93-20.58,34-34.2a53.71,53.71,0,0,0,9.24-24.65c.66-6.75-1.47-12.37-7.3-16.3a25.15,25.15,0,0,1-7.26-7.31c-3.21-5-1.8-9.19,3.79-11.1a35.57,35.57,0,0,1,7.16-1.64,8.1,8.1,0,0,1,8.41,3.8c2,3.11,4,6.25,6,9.34,3.92,5.91,9.3,9.15,16.54,9.22a21.54,21.54,0,0,1,7.94,1.44C391.78,409.4,391.56,409.64,391.2,409.8Z"/><path class="cls-2" d="M314.22,490.86c3.09-5.25,8.17-8.22,13-11.45,3.25-2.15,6.4-4.45,9.55-6.75a62.41,62.41,0,0,0,14.38-14,32.35,32.35,0,0,1,4.34-5c6.25-5.8,12.63-6.67,20.47-2.79,3,1.48,5.78,3.32,8.71,4.91,4.27,2.3,8.92,3.73,13.34,5.69.36.3,1,.39.74,1.13-6.44-2.17-12.79-4.52-18.59-8.16a35.51,35.51,0,0,0-8.09-4,14.49,14.49,0,0,0-15.19,3.39,32.16,32.16,0,0,0-4.68,5.16c-4.82,6.94-11.28,12.11-18,17-4.09,2.93-8.29,5.69-12.5,8.45a17.79,17.79,0,0,0-5.91,6.44Z"/><path class="cls-2" d="M451.58,490.82a39.3,39.3,0,0,0-7.73-10.12,110.29,110.29,0,0,0-17.71-14.28c-6.85-4.58-12.68-10.06-16.19-17.68-.37-.79-.64-1.63-1-2.44a.74.74,0,0,1,.76-.36l.39.36a.71.71,0,0,1,.33.77c2.7,7,7.58,12.22,13.52,16.5s12.08,8.34,17.47,13.37c4.42,4.12,8.61,8.43,11.38,13.9Z"/><path class="cls-2" d="M279.7,156.41c-2.7.71-5.89-1.57-7-5a11,11,0,0,1-.49-3.59,17.84,17.84,0,0,1,1.56-7.26c.92-2.09,2.43-2.82,4.59-2a13.25,13.25,0,0,1,7.71,7.53,2.49,2.49,0,0,1,.18.72C286.62,149.63,282.46,155.69,279.7,156.41Zm5.43-9.51a2.12,2.12,0,0,0-.15-.6,11,11,0,0,0-6.42-6.28,2.73,2.73,0,0,0-3.82,1.7,14.83,14.83,0,0,0-1.3,6,9.12,9.12,0,0,0,.41,3c.88,2.85,3.54,4.75,5.8,4.17S285.4,149.26,285.12,146.9Z"/><path class="cls-2" d="M200.61,431.19l-.86.13c-.83-1.82-1.66-3.65-2.5-5.47a25.54,25.54,0,0,0-6.33-8.82c-5.15-4.45-11.18-5-17.58-3.77a67.58,67.58,0,0,0-13.19,4.46c-.33-.57.17-.82.45-1.15,6.33-3.1,12.91-5.26,20.05-4.82,7.78.48,12.86,5,16.49,11.54A60.48,60.48,0,0,1,200.61,431.19Z"/><path class="cls-2" d="M154.14,420.64c-1.9.71-3.56,2-5.67,2.21a.44.44,0,0,1,0-.71l4.91-2.23C153.64,420.14,154.11,420.16,154.14,420.64Z"/><path class="cls-2" d="M160.59,416.56l-.45,1.15a8.82,8.82,0,0,1-3,1.42c-.47.07-1,.34-1.18-.42A17.65,17.65,0,0,1,160.59,416.56Z"/><path class="cls-2" d="M156,418.71l1.18.42a9.88,9.88,0,0,1-3,1.5l-.77-.73Z"/><path class="cls-2" d="M148.46,422.14l0,.71a4.18,4.18,0,0,1-2.26,1.21l-.47-.88Z"/><path class="cls-2" d="M173,456.48a27.4,27.4,0,0,0-8.49,6.08c-2.43,2.62-5.82,3-9.23,2.88a17.19,17.19,0,0,1-8.36-2.58c-6.35-3.95-7.2-10.83-2-16.26a54,54,0,0,1,6.58-5.55,1.23,1.23,0,0,1,.89,1.11c-.11,1-.92,1.46-1.61,2a32.26,32.26,0,0,0-4.63,4.14c-4,4.37-3.23,9.69,1.78,12.79a15.57,15.57,0,0,0,8.4,2.41,9.66,9.66,0,0,0,7.6-3.15,22.28,22.28,0,0,1,8.06-5.45c.82-.36,1.71-1,2.6-.08C174.83,456.07,173.51,455.9,173,456.48Z"/><path class="cls-2" d="M151.86,442.09l-.37-1c10.32-6.67,21.35-7.82,33-4.19a14.19,14.19,0,0,1,5.14,2.69c-.12,1.09-.94,1-1.7,1a35.69,35.69,0,0,0-15.83-3.75,31.87,31.87,0,0,0-16.26,4.15c-.77.42-1.52.88-2.29,1.31C152.95,442.58,152.35,442.76,151.86,442.09Z"/><path class="cls-2" d="M188,439.57l1.64,0a9.11,9.11,0,0,1,3.9,6.75,4.11,4.11,0,0,1-2.32,4.31,25.13,25.13,0,0,1-5.62,2.07c-4.21,1.17-8.44,2.31-12.55,3.8l1.51-1.48c-.11-1.44,1.09-1.54,2-1.83,2.93-.94,5.9-1.73,8.86-2.55a23.19,23.19,0,0,0,3.91-1.34c2.08-1,2.59-2.27,1.83-4.46a7.93,7.93,0,0,0-2.41-3.53C188.16,440.83,187.56,440.42,188,439.57Z"/><path class="cls-2" d="M369.08,181.78c-2.08,2.66-4.82,4.58-7.48,6.58a28.05,28.05,0,0,0-7,7.3,13.61,13.61,0,0,1-11.16,6.45,12,12,0,0,1-10.94-6.19c-2.1-3.6-1.13-7.31.9-10.73a15.44,15.44,0,0,1,3.16-4,42.36,42.36,0,0,0,8.61-10.89c4.5-7.62,7.44-8.83,16-6.5a28.35,28.35,0,0,1,3.74,1.26C371.91,168.08,373.8,175.77,369.08,181.78Zm-5.9-14.43a23.36,23.36,0,0,0-3.25-1.1c-7.46-2-10-1-13.91,5.65a37,37,0,0,1-7.48,9.46,13.6,13.6,0,0,0-2.75,3.44c-1.75,3-2.6,6.19-.77,9.32a10.42,10.42,0,0,0,9.5,5.38,11.82,11.82,0,0,0,9.69-5.59,24.28,24.28,0,0,1,6.06-6.34,33,33,0,0,0,6.5-5.71C370.86,176.64,369.23,170,363.18,167.36Z"/><path class="cls-2" d="M77.47,140.84c1,3.44.41,6.84-.2,10.24-.43,2.41-1,4.8-1.36,7.22a14.42,14.42,0,0,0,3.53,12.07A36.47,36.47,0,0,0,90.08,179c5.41,2.9,10.63,2.34,15.67-1,4.11-2.73,7.51-6.28,11.14-9.56,2.56-2.31,5-4.76,8.2-6.27a13,13,0,0,1,3.72-1.3c.17-.07.36-.1.43.1.12.36-.19.51-.4.69-6.27,2.08-10.46,7-15.14,11.22a60.08,60.08,0,0,1-7.61,6.15c-5.58,3.6-11.27,3.87-17.08.59a41.3,41.3,0,0,1-9.69-7.71,16.26,16.26,0,0,1-4.27-15c.31-1.67.63-3.33,1-5a27.8,27.8,0,0,0,.64-11c-.09-.17-.13-.38.07-.46C77.13,140.28,77.3,140.59,77.47,140.84Z"/><path class="cls-2" d="M182,161.17c-.35.08-.82.34-1,.2-6.53-4.25-14.23-5.54-21.3-8.42a56.81,56.81,0,0,1-7.3-3.49,16,16,0,0,1-8.15-12.62c-.41-3.36-.31-6.78-1.06-10.11a32.5,32.5,0,0,0-2-6.26c-2.45-5.4-8-8.39-14.4-7.86a23.89,23.89,0,0,0-5,.9c-.59.18-1.2.5-1.65-.24a16,16,0,0,1,22.78,8.67A34.82,34.82,0,0,1,145,133.39c0,8.13,3.74,13.65,11.18,16.92,5.71,2.51,11.69,4.23,17.52,6.39a44,44,0,0,1,6.54,2.9A4,4,0,0,1,182,161.17Z"/><path class="cls-2" d="M77.47,140.84l-.8.07a23.77,23.77,0,0,0-4-7.22,12.65,12.65,0,0,1-2.85-8.55,6.76,6.76,0,0,1,4.36-6.25,19.62,19.62,0,0,1,8.48-1.38c8,.19,16.06.58,24.07-.43a32.81,32.81,0,0,0,10.47-2.89,6.09,6.09,0,0,1,2.53-.6c-.89,1.48-2.51,1.78-3.93,2.35-5.58,2.22-11.47,2.54-17.38,2.78-5.21.21-10.42-.14-15.63-.16a28.18,28.18,0,0,0-5.25.39c-7.14,1.31-8,6.52-5.44,11.83a32.11,32.11,0,0,0,2.49,3.76A15.41,15.41,0,0,1,77.47,140.84Z"/><path class="cls-2" d="M128.83,161.64l0-.8c4.74-1.39,9.47-.94,14.15.22,8.29,2.06,15.89,5.88,23.55,9.52,1.42.67,2.83,1.37,4.24,2.05.18.24.49.37.66.59s.26.67-.34.49c-4.4-1.56-8.4-4-12.67-5.8-6.13-2.63-12.18-5.42-18.85-6.48A33.73,33.73,0,0,0,128.83,161.64Z"/><path class="cls-2" d="M171.05,173.72l-.32-1.08A16.77,16.77,0,0,0,175,174c4.63,1,7-.31,8.73-4.76,1-2.62.79-4.87-1.3-6.82a.94.94,0,0,1-.33-.82c1.81.25,3.15,2,3.32,4.33.48,6.74-5.26,11.11-11.54,8.78Z"/><path class="cls-2" d="M421.45,484.82l-.44.8c-9-4.15-18.79-5.81-28.29-8.32A66.29,66.29,0,0,1,382.14,474l.4-.8c9.09,3.18,18.58,4.87,27.83,7.47A50.13,50.13,0,0,1,421.45,484.82Z"/><path class="cls-2" d="M400.85,462.47c1,.74,2.19.73,3.23,1.22l-1.24.42a3.5,3.5,0,0,1-2.17-.84c-.25-.14-.5-.31-.37-.64S400.63,462.36,400.85,462.47Z"/><path class="cls-2" d="M400.85,462.47l-.17.8-1.89-.68-.74-1.13Z"/><path class="cls-2" d="M409.74,445.95l-.76.36c-2-4.42-2.61-9.16-3.37-13.87-.43-2.67-.71-5.36-1.24-8a17.94,17.94,0,0,0-12.14-14.19c-.35-.13-.69-.29-1-.44l.41-.82c8.85,2.64,13.1,9,14.25,17.78C406.71,433.24,407.65,439.71,409.74,445.95Z"/><path class="cls-2" d="M386.75,418c1,1.37,2,2.71,3,4.11a3.28,3.28,0,0,1,.1,3.89c-2.48,3.78-4.94,7.57-7.5,11.29a5.83,5.83,0,0,1-3.73,2.69c-1,.29-1.3-.15-1-1.09,4.29-2.94,6.08-7.84,9.12-11.75,1.94-2.5,1.86-3.23.09-5.84-.64-.95-2-1.76-1.11-3.27A.83.83,0,0,1,386.75,418Z"/><path class="cls-2" d="M365.16,424.64a4.4,4.4,0,0,1,1-2.79c3.77-4.55,8.18-8,14.52-7.62,1.09.94.1,1.36-.51,1.73a4.88,4.88,0,0,1-2,.35,17.45,17.45,0,0,0-9.9,6,7.29,7.29,0,0,0-1.48,3.62,1.74,1.74,0,0,1-.54,1.14c-.28.22-.59.5-1,.33s-.29-.51-.28-.8A5.66,5.66,0,0,1,365.16,424.64Z"/><path class="cls-2" d="M378.41,439.12c-.28.36-.34.67.21.83-4,1-9-1.45-11.62-5.69a16.66,16.66,0,0,1-.74-1.5c.08-.37.08-.78.48-1,1-.27,1.4.46,1.78,1.06a11.09,11.09,0,0,0,8.56,5.44A1.48,1.48,0,0,1,378.41,439.12Z"/><path class="cls-2" d="M377.63,415.3a4.16,4.16,0,0,1,2.13-.35c.47,0,1.07.09.91-.73a8.61,8.61,0,0,1,6.08,3.74l-.86.48c-.67.46-1.18,0-1.68-.33a8.39,8.39,0,0,0-5.15-1.9C378.46,416.21,377.78,416.11,377.63,415.3Z"/><path class="cls-2" d="M366.78,431.81l-.53.95a5.77,5.77,0,0,1-1.13-3.69c-.06-1.06.61-.62,1.11-.54C367,429.52,367.73,430.53,366.78,431.81Z"/><path class="cls-2" d="M365.93,428.94l-.81.12a7.62,7.62,0,0,1,0-4.43l.11,2.31.66-1.78C367.1,426.52,367.11,427.57,365.93,428.94Z"/><path class="cls-2" d="M108.42,126.44c2.42-1.06,4.82-2.14,7.25-3.16,6.08-2.57,12-.47,15.56,5.66a18.38,18.38,0,0,1,2.58,11.39,10.29,10.29,0,0,1-8.79,9.25,24.36,24.36,0,0,1-7.88-.28c-3.87-.6-5.37.79-5.14,4.76.41,7.06-4.65,14.41-11.33,16.48-7,2.16-13.18-2.6-12.79-9.88a22.66,22.66,0,0,1,.61-4.1c.78-3.2,0-6.23-.84-9.28-.37-1,.26-1,1-.91a1.63,1.63,0,0,1,1.06,1.23c.84,2.78,1.54,5.58.92,8.53-.2,1-.38,2-.58,3-.64,3.27-.09,6.24,2.7,8.29a8,8,0,0,0,9.26.37c5-3,8.15-7.23,8.14-13.33,0-.76,0-1.51,0-2.26a5.11,5.11,0,0,1,5.66-5c1.31.08,2.62.32,3.92.53a13.34,13.34,0,0,0,5.8-.31,8.48,8.48,0,0,0,6.37-8.21c0-4.79-1.45-9.18-5.21-12.5a8.8,8.8,0,0,0-8.79-1.94c-2.37.69-4.49,2-6.81,2.77-1.26.43-2.59,1.55-4,.24C106.78,126.49,108,126.87,108.42,126.44Z"/><path class="cls-2" d="M108.42,126.44l-1.12,1.16c-.07,1.12-.92,1.26-1.75,1.28a34.53,34.53,0,0,1-6.94-.15c-3.09-.55-5.49.59-7.55,2.81-3.33,3.58-4.43,7.58-2.62,12.28.36.93,1.21,2.06,0,3.06a.55.55,0,0,0-.76.4c-1.31-3.27-2.6-6.55-1.93-10.19a12.54,12.54,0,0,1,13.72-10.3A25.78,25.78,0,0,0,108.42,126.44Z"/><path class="cls-2" d="M399.55,348.09a14,14,0,0,1-4.49-1,11.1,11.1,0,0,0-6.23-1,21.74,21.74,0,0,1-6.19.16c-3.59-.48-4.66-3-2.48-5.89a19,19,0,0,1,6.18-5.41,1.2,1.2,0,0,1,.79.87c0,1.13-1,1.51-1.72,2.09a16.42,16.42,0,0,0-3.3,3.35c-1,1.47-.54,2.46,1.17,2.93a8.34,8.34,0,0,0,3.18.17c3.21-.37,6.39-.44,9.47.83a11.28,11.28,0,0,0,4,.9,1.87,1.87,0,0,1,1.54.56c.35.78-.14,1-.76,1.07C400.32,347.8,399.87,347.72,399.55,348.09Z"/><path class="cls-2" d="M386.83,335.72l-.48-.76c4.58-2.81,9.36-3.57,14.25-1a8.9,8.9,0,0,1,3.94,10.72c-.86,2.44-2.27,3.39-5,3.38-.13-.22-.88-.45-.07-.66.65-.17,1.37,0,1.95-.49-.44-.73.16-1.16.47-1.67A6.92,6.92,0,0,0,398,335a12.48,12.48,0,0,0-8.79.7C388.43,336,387.62,336.77,386.83,335.72Z"/><path class="cls-2" d="M99.33,362.48c.75,4.55-.78,8.58-3,12.39a25.3,25.3,0,0,1-14.71,12c-9.29,2.9-18.48,2.57-27.35-1.72a15.9,15.9,0,0,1-7-6.17A10.69,10.69,0,0,1,47.57,367a6.91,6.91,0,0,1,6.72-3.35,36.27,36.27,0,0,1,6.3,1.15c4.92,1.2,9.86,2,14.89.6.58-.2.75.19.88.62,0,1.09-.77,1.26-1.59,1.51-3.28,1-6.59.63-9.9.21-2.81-.36-5.52-1.21-8.3-1.73-2.51-.48-5-.64-6.78,1.55a8.3,8.3,0,0,0-1.51,8.67,13.4,13.4,0,0,0,6,6.55,28.18,28.18,0,0,0,11,3.58,35.91,35.91,0,0,0,14.18-1,24.34,24.34,0,0,0,18.17-21.27,2.86,2.86,0,0,1,.43-1.8C98.57,361.88,99,361.83,99.33,362.48Z"/><path class="cls-2" d="M76,366.2l-.48-.76a37.55,37.55,0,0,0,10.8-5.94,12.38,12.38,0,0,1,5.66-2.38c4.21-.69,6.63,1.08,7.39,5.35l-.78.15c-.95.21-1.13-.58-1.47-1.14-1.29-2.14-2.76-2.77-5.22-2.24a14.54,14.54,0,0,0-5.54,2.7,28.18,28.18,0,0,1-7.8,4.46C77.65,366.68,76.74,367.2,76,366.2Z"/><path class="cls-2" d="M182.84,445.27c0,1.9-1.26,3.24-3,2.91a14.42,14.42,0,0,0-7,.75,11.68,11.68,0,0,1-3.66.81,1.91,1.91,0,0,1-2.12-2.25c.13-2.52,3.22-6,6.22-7s6.72-.07,8.49,2.05A4.43,4.43,0,0,1,182.84,445.27Z"/><path class="cls-2" d="M80.69,374.89a22.17,22.17,0,0,1-7.43,3.56A22.53,22.53,0,0,1,67,379.59h-.57c-2.75,0-4.4-1-4.67-2.62-.24-1.48,1.25-3.25,3.49-4.18a23.63,23.63,0,0,1,6.83-1.23c2.44-.24,4.87-.55,7.31-.75,1-.08,2.17-.06,2.54,1.13A2.7,2.7,0,0,1,80.69,374.89Zm.06-2.56c-.37-.9-1.57-.35-2.44-.46-3.46.39-7,.77-10.45,1.23a7.49,7.49,0,0,0-3.48,1.34c-.81.59-1.76,1.22-1.54,2.39s1.37,1.56,2.47,1.63c5.09.35,9.65-1.27,13.92-3.84C80,374.12,81.22,373.46,80.75,372.33Z"/></g></pattern></defs><title>PowerUp-Latest-Version-Final-Final</title><path class="cls-3" d="M22,128A75,75,0,1,0,22,22,74.84,74.84,0,0,0,22,128ZM68.33,39.67l-8.5,8.5L102,90.33l8.5-8.5V110.5H81.83l8.5-8.5L48,59.83l-8.33,8.5V39.67Z"/><path class="cls-4" d="M22,128A75,75,0,1,0,22,22,74.84,74.84,0,0,0,22,128ZM68.33,39.67l-8.5,8.5L102,90.33l8.5-8.5V110.5H81.83l8.5-8.5L48,59.83l-8.33,8.5V39.67Z"/></svg>