<?xml version="1.0" encoding="utf-8"?>
<!-- Generator: Adobe Illustrator 21.1.0, SVG Export Plug-In . SVG Version: 6.00 Build 0)  -->
<svg version="1.1" id="Layer_1" xmlns="http://www.w3.org/2000/svg" xmlns:xlink="http://www.w3.org/1999/xlink" x="0px" y="0px"
	 viewBox="0 0 150 150" style="enable-background:new 0 0 150 150;" xml:space="preserve">
<style type="text/css">
	.st0{fill:url(#SVGID_1_);}
	.st1{fill:#FFFFFF;}
</style>
<title>powerupArtboard 51</title>
<linearGradient id="SVGID_1_" gradientUnits="userSpaceOnUse" x1="47.6" y1="1128.75" x2="103.4" y2="1128.75" gradientTransform="matrix(1 0 0 1 0 -1048)">
	<stop  offset="0" style="stop-color:#5FCAFF"/>
	<stop  offset="1" style="stop-color:#29ABE2"/>
</linearGradient>
<path class="st0" d="M47.6,60.9v39.7h55.8V60.9H47.6z M89.5,76.6c-0.2,0.5-0.4,1-0.8,1.4l-4.8,4.7l1.1,6.7c0.2,1.3-0.7,2.6-2,2.8
	h-0.4c-0.4,0-0.8-0.1-1.1-0.3l-6-3.1l-6,3.1c-1.2,0.6-2.7,0.2-3.3-1c-0.2-0.5-0.3-1-0.2-1.5l1.1-6.7L62.2,78c-1-0.9-1-2.5,0-3.5
	c0.4-0.4,0.9-0.6,1.4-0.7l6.7-1l3-6.1c0.6-1.2,2.1-1.7,3.3-1.1c0.5,0.2,0.9,0.6,1.1,1.1l3,6.1l6.7,1C88.7,74,89.7,75.2,89.5,76.6z"
	/>
<path class="st1" d="M128.2,22.6l-0.1-0.1C98.8-6.8,51.3-6.9,22,22.4C-7.3,51.7-7.3,99.2,21.9,128.5c29.2,29.3,76.8,29.3,106.1,0.1
	c0,0,0,0,0.1-0.1C157.4,99.3,157.4,51.9,128.2,22.6z M111.6,101.6c0,4-3.3,7.3-7.3,7.3H46.6c-4,0-7.3-3.3-7.3-7.3v-51
	c0-4,3.3-7.3,7.3-7.3h7.6V39c0-1.9,1.6-3.5,3.5-3.5h0.6c1.9,0,3.5,1.6,3.5,3.5v4.3H89V39c0-1.9,1.6-3.5,3.5-3.5h0.6
	c1.9,0,3.5,1.6,3.5,3.5v4.3h7.7c4,0,7.3,3.3,7.3,7.3V101.6z M47.6,100.6h55.8V60.9H47.6V100.6z M62.2,74.5c0.4-0.4,0.9-0.6,1.4-0.7
	l6.7-1l3-6.1c0.6-1.2,2.1-1.7,3.3-1.1c0.5,0.2,0.9,0.6,1.1,1.1l3,6.1l6.7,1c1.3,0.2,2.3,1.4,2.1,2.8c-0.2,0.5-0.4,1-0.8,1.4
	l-4.8,4.7l1.1,6.7c0.2,1.3-0.7,2.6-2,2.8h-0.4c-0.4,0-0.8-0.1-1.1-0.3l-6-3.1l-6,3.1c-1.2,0.6-2.7,0.2-3.3-1c-0.2-0.5-0.3-1-0.2-1.5
	l1.1-6.7L62.2,78C61.2,77.1,61.2,75.5,62.2,74.5z"/>
<path class="st1" d="M47.6,60.9v39.7h55.8V60.9H47.6z M89.5,76.6c-0.2,0.5-0.4,1-0.8,1.4l-4.8,4.7l1.1,6.7c0.2,1.3-0.7,2.6-2,2.8
	h-0.4c-0.4,0-0.8-0.1-1.1-0.3l-6-3.1l-6,3.1c-1.2,0.6-2.7,0.2-3.3-1c-0.2-0.5-0.3-1-0.2-1.5l1.1-6.7L62.2,78c-1-0.9-1-2.5,0-3.5
	c0.4-0.4,0.9-0.6,1.4-0.7l6.7-1l3-6.1c0.6-1.2,2.1-1.7,3.3-1.1c0.5,0.2,0.9,0.6,1.1,1.1l3,6.1l6.7,1C88.7,74,89.7,75.2,89.5,76.6z"
	/>
</svg>
