<?xml version="1.0" encoding="utf-8"?>
<!-- Generator: Adobe Illustrator 21.1.0, SVG Export Plug-In . SVG Version: 6.00 Build 0)  -->
<svg version="1.1" id="Layer_1" xmlns="http://www.w3.org/2000/svg" xmlns:xlink="http://www.w3.org/1999/xlink" x="0px" y="0px"
	 viewBox="0 0 160 160" style="enable-background:new 0 0 160 160;" xml:space="preserve">
<style type="text/css">
	.st0{fill:#FFFFFF;}
</style>
<title>fist</title>
<path class="st0" d="M80,0C35.8,0,0,35.8,0,80s35.8,80,80,80s80-35.8,80-80S124.2,0,80,0z M107.9,35.9c2.9,0.6,5.1,2.9,5.6,5.8
	c0.4,1.8,0,3.8-1.2,5.3c-5.3,7-10.6,14.1-15.9,21c-1.3,1.7-3.4,2.6-5.5,2.4c-2.7,0-5.1-1.5-6.3-3.8c-1.4-2.3-1.3-5.3,0.3-7.5
	c2.5-3.5,5.2-7,7.8-10.5s5.1-6.8,7.7-10.1C102,36.1,105.1,35,107.9,35.9L107.9,35.9z M99.8,23.8c3.1,2.5,3.7,7.1,1.2,10.3
	c-3.5,4.7-7.1,9.3-10.6,14l-3.3,4.3c-0.4-2.9-1.2-5.4-3.3-6.9c-2.1-1.6-4.4-2.7-6.8-4.1c4.2-5.6,8.3-11.2,12.7-16.7
	c2.5-3.1,7-3.6,10.1-1.1C99.7,23.7,99.7,23.7,99.8,23.8L99.8,23.8z M64.7,29.6c2.6-3.4,5.1-6.9,7.8-10.3c2.4-3.3,7-4,10.3-1.7
	c3.3,2.4,4,7,1.7,10.3l0,0c-3,4.2-6.2,8.3-9.5,12.6l-13.3-6.8L64.7,29.6z M112.8,86.4c-2.4,5.1-5.4,9.9-9,14.3
	c-0.4,0.5-0.6,1.1-0.6,1.7c0.2,9.6,0.4,19.1,0.6,28.6c0,2.4,0,4.7,0,7.2c-7.6,0-15.3,5.5-22.9,5.5s-15.2-5.5-22.9-5.5
	c0.3-2.6,0.6-5,0.8-7.4c1-8.4,2-16.7,3-25c0.3-3,0.8-6,1-9.1c0-0.9-0.2-1.8-0.7-2.6c-5.6-8-11.2-16-16.8-24
	c-3.8-5-4.5-11.8-1.7-17.5c0.6-1.3,1-2.6,1.5-3.9c1.5-3.3,2.9-6.7,4.5-9.8c1.7-3.8,6.2-5.4,9.9-3.7c0.1,0.1,0.3,0.1,0.4,0.2
	c7,3.4,13.9,6.9,20.8,10.5c3.7,2.2,4.8,7,2.6,10.6c-2,3.3-6,4.6-9.6,3.2c-4-1.9-8-4-12-6c-0.6-0.3-1.1-0.5-1.8-0.8l-1.1,2.6
	c10.7,4.5,21,9.3,26.1,20.6l12.2-5.2c0.9,4.5,3.2,7.5,7.4,8.5c4.3,1,7.6-0.7,10.4-4.6C115.3,78.7,114.4,82.7,112.8,86.4L112.8,86.4z
	 M122.8,60.1c-0.2,1.1-0.7,2.1-1.4,3c-2.8,3.9-5.7,7.7-8.6,11.5c-1.9,2.6-5.3,3.6-8.3,2.4c-3-1.2-5-4-5.1-7.2
	c0.5-1.5,1.1-2.9,1.8-4.2c2.8-3.9,5.7-7.7,8.6-11.5c2-2.8,5.8-3.8,8.9-2.3C121.8,53.3,123.6,56.7,122.8,60.1L122.8,60.1z"/>
</svg>
