<svg xmlns="http://www.w3.org/2000/svg" viewBox="9225 3510 100 100"><defs><style>.a{fill:#fff;}</style></defs><g transform="translate(9225 3510)"><path class="a" d="M50,0a50,50,0,1,0,50,50A50.018,50.018,0,0,0,50,0ZM76.4,72.933l-4,4a7,7,0,0,1-2.867,1.133A47.238,47.238,0,0,1,21.867,30.333a7.065,7.065,0,0,1,1.2-2.733l4-4a6.692,6.692,0,0,1,6.267-1.467l.867.267a8.1,8.1,0,0,1,4.6,4.867l2,7.4A7.3,7.3,0,0,1,39.133,41l-2.667,2.667a28.468,28.468,0,0,0,19.933,20L59.067,61A7.3,7.3,0,0,1,65.4,59.333l7.4,2a7.99,7.99,0,0,1,4.867,4.533l.267.867a6.816,6.816,0,0,1-1.533,6.2Zm0,0"/></g></svg>