<?xml version="1.0" encoding="utf-8"?>
<!-- Generator: Adobe Illustrator 21.1.0, SVG Export Plug-In . SVG Version: 6.00 Build 0)  -->
<svg version="1.1" id="Layer_1" xmlns="http://www.w3.org/2000/svg" xmlns:xlink="http://www.w3.org/1999/xlink" x="0px" y="0px"
	 viewBox="0 0 150 150" style="enable-background:new 0 0 150 150;" xml:space="preserve">
<style type="text/css">
	.st0{fill:#FFFFFF;}
</style>
<title>powerupArtboard 50</title>
<path class="st0" d="M75,0.5C33.6,0.5,0,34,0,75.5c0,41.4,33.6,75,75,75s75-33.6,75-75C150,34,116.5,0.5,75,0.5z M57.1,49.7
	c0-9.9,8-18,18-18c9.9,0,18,8,18,18v26.9c0,9.9-8,17.9-18,17.9c-9.9,0-18-8-18-17.9V49.7z M105.3,76.6c-0.1,15.8-12.2,28.9-28,30.2
	v8h13.4c1.2,0,2.2,1,2.2,2.2c0,1.2-1,2.2-2.2,2.2H59.3c-1.2,0-2.2-1-2.2-2.2c0-1.2,1-2.2,2.2-2.2h13.5v-8
	c-15.8-1.2-27.9-14.4-28-30.2V64.2c0-1.2,0.9-2.1,2-2.3H47c1.2,0,2.2,0.9,2.3,2.2v12.4c0,14.2,11.5,25.8,25.8,25.8
	c14.2,0,25.8-11.5,25.8-25.8c0,0,0,0,0,0V64.2c0-1.2,1-2.2,2.2-2.2c1.2,0,2.2,1,2.2,2.2L105.3,76.6z"/>
</svg>
