<svg id="Layer_1" data-name="Layer 1" xmlns="http://www.w3.org/2000/svg" viewBox="0 0 150 150"><defs><style>.cls-1{fill:#fff;}</style></defs><title>PowerUp-Latest-Version-Final-Final</title><path class="cls-1" d="M89.44,47.44a2.36,2.36,0,1,0,.36,3.32A2.39,2.39,0,0,0,89.44,47.44Z"/><path class="cls-1" d="M84.8,43.71A2.36,2.36,0,1,0,85.16,47,2.39,2.39,0,0,0,84.8,43.71Z"/><path class="cls-1" d="M94.08,51.18a2.36,2.36,0,1,0,.36,3.32A2.39,2.39,0,0,0,94.08,51.18Z"/><path class="cls-1" d="M80.16,40a2.36,2.36,0,1,0,.36,3.32A2.39,2.39,0,0,0,80.16,40Z"/><path class="cls-1" d="M103.36,58.65a2.36,2.36,0,1,0,.36,3.32A2.39,2.39,0,0,0,103.36,58.65Z"/><path class="cls-1" d="M98.72,54.92a2.36,2.36,0,1,0,.36,3.32A2.39,2.39,0,0,0,98.72,54.92Z"/><path class="cls-1" d="M75,0a75,75,0,1,0,75,75A75,75,0,0,0,75,0Zm45.51,55.85-8.24,10.24a2.28,2.28,0,0,0-2.83,3.52L66,123.6a3.79,3.79,0,0,1-5.34.58l-8.8-7.08a8.32,8.32,0,0,0-13-10.43l-8.8-7.08a3.79,3.79,0,0,1-.58-5.34L73,40.16a2.28,2.28,0,0,0,2.83-3.52L84.1,26.4a3.79,3.79,0,0,1,5.34-.58l8.8,7.08a8.42,8.42,0,0,0,1.26,11.7,8.26,8.26,0,0,0,11.63-1.18l8.8,7.08A3.79,3.79,0,0,1,120.51,55.85Z"/><path class="cls-1" d="M107.92,62.32a2.36,2.36,0,1,0,.36,3.32A2.39,2.39,0,0,0,107.92,62.32Z"/></svg>