<?xml version="1.0" encoding="utf-8"?>
<!-- Generator: Adobe Illustrator 24.0.2, SVG Export Plug-In . SVG Version: 6.00 Build 0)  -->
<svg version="1.1" id="Ebene_1" xmlns="http://www.w3.org/2000/svg" xmlns:xlink="http://www.w3.org/1999/xlink" x="0px" y="0px"
	 viewBox="0 0 2800 2800" style="enable-background:new 0 0 2800 2800;" xml:space="preserve">
<style type="text/css">
	.st0{fill:#FFFFFF;}
</style>
<g>
	<path class="st0" d="M1398.34,2454.43c-432.03,0-816.91-258.37-980.54-658.24c-221.16-540.5,38.62-1160.14,579.09-1381.28
		c128.36-52.53,263.19-79.16,400.74-79.16c432.04,0,816.92,258.38,980.54,658.23c221.17,540.48-38.61,1160.11-579.09,1381.28
		C1670.72,2427.81,1535.89,2454.43,1398.34,2454.43z M1397.63,436.98c-124.34,0-246.27,24.09-362.41,71.61
		c-488.81,200.02-723.76,760.43-523.75,1249.24c148.01,361.68,496.12,595.37,886.86,595.37c124.33,0,246.26-24.09,362.4-71.62
		c488.82-200.03,723.77-760.46,523.74-1249.26C2136.5,670.67,1788.39,436.98,1397.63,436.98z"/>
	<g>
		<g>
			<g>
				<g>
					<g>
						<g>
							<g>
								<path class="st0" d="M964.18,383.17c-19.71,0-38.43-11.58-46.62-30.86c0,0-27.8-65.49-61.31-147.43
									c-14.42-35.24-59.1-19.79-64.14-17.92c-26.2,9.76-55.33-3.63-65.07-29.82c-9.73-26.21,3.63-55.33,29.83-65.06
									c56.74-21.09,154.98-18.63,193.07,74.48c33.25,81.27,60.81,146.21,60.81,146.21c10.92,25.73-1.09,55.44-26.82,66.36
									C977.47,381.86,970.77,383.17,964.18,383.17z"/>
								<path class="st0" d="M936.49,317.94c-19.95,0-38.84-11.86-46.87-31.47l-33.38-81.6c-38.1-93.11,30.25-163.71,85.48-188.44
									c25.49-11.44,55.46,0,66.87,25.51c11.43,25.51,0.01,55.46-25.5,66.87c-10.87,5.12-46.58,24.94-33.17,57.73l33.39,81.6
									c10.58,25.86-1.81,55.42-27.69,66.01C949.36,316.73,942.87,317.94,936.49,317.94z"/>
							</g>
						</g>
					</g>
				</g>
			</g>
		</g>
	</g>
	<g>
		<g>
			<g>
				<g>
					<g>
						<g>
							<g>
								<path class="st0" d="M1981.31,2718.74c-50.13,0-104.99-21.09-131.26-85.31l-65.66-160.44c-10.6-25.87,1.79-55.42,27.67-66
									c25.84-10.61,55.42,1.79,66.01,27.68l65.67,160.44c14.42,35.21,59.07,19.8,64.12,17.93c26.23-9.72,55.33,3.62,65.06,29.82
									c9.74,26.2-3.62,55.33-29.82,65.06C2025.49,2714.45,2003.89,2718.74,1981.31,2718.74z"/>
								<path class="st0" d="M1837.59,2788c-19.34,0-37.81-11.15-46.22-29.95c-11.43-25.5-0.01-55.45,25.5-66.87
									c10.87-5.12,46.6-24.96,33.18-57.75l-50.85-124.26c-10.59-25.86,1.8-55.42,27.67-66c25.89-10.58,55.43,1.81,66.01,27.68
									l50.85,124.26c38.11,93.11-30.25,163.7-85.5,188.45C1851.53,2786.57,1844.5,2788,1837.59,2788z"/>
							</g>
						</g>
					</g>
				</g>
			</g>
		</g>
	</g>
	<g>
		<g>
			<g>
				<g>
					<g>
						<g>
							<g>
								<path class="st0" d="M139.3,2075.89c-20.49,0-39.67-12.45-47.22-32.79c-21.07-56.73-18.62-154.94,74.48-193.06l155.76-63.73
									c25.85-10.58,55.42,1.79,66.02,27.66c10.59,25.88-1.79,55.42-27.66,66.02l-155.79,63.74
									c-32.78,13.41-21.89,52.77-17.77,64.54c9.19,26.2-4.37,55.15-30.5,64.59C150.9,2074.91,145.04,2075.89,139.3,2075.89z"/>
								<path class="st0" d="M151.45,1954.79c-66.31,0-115.26-52.44-135-96.53c-11.43-25.5-0.01-55.44,25.51-66.87
									c25.49-11.42,55.46-0.02,66.87,25.5c5.12,10.88,24.97,46.59,57.73,33.15l124.26-50.85c25.85-10.58,55.43,1.8,66.02,27.68
									c10.6,25.87-1.79,55.42-27.66,66l-124.28,50.86C186.09,1951.43,168.21,1954.79,151.45,1954.79z"/>
							</g>
						</g>
					</g>
				</g>
			</g>
		</g>
	</g>
	<g>
		<g>
			<g>
				<g>
					<g>
						<g>
							<g>
								<path class="st0" d="M2459.64,1016.99c-19.94,0-38.83-11.86-46.86-31.45c-10.59-25.87,1.79-55.43,27.66-66.02l154.65-63.28
									c32.78-13.41,21.89-52.78,17.77-64.53c-9.18-26.21,4.38-55.15,30.5-64.59c26.1-9.45,54.88,3.72,64.54,29.75
									c21.07,56.73,18.63,154.94-74.48,193.05l-154.63,63.28C2472.53,1015.77,2466.04,1016.99,2459.64,1016.99z"/>
								<path class="st0" d="M2737.39,1013.05c-19.33,0-37.8-11.15-46.22-29.95c-5.11-10.87-25.02-46.58-57.74-33.17l-110.36,45.16
									c-25.85,10.6-55.42-1.79-66.03-27.65c-10.6-25.87,1.79-55.43,27.65-66.03l110.4-45.17
									c93.09-38.07,163.71,30.25,188.45,85.49c11.43,25.5,0.01,55.45-25.5,66.87C2751.34,1011.62,2744.31,1013.05,2737.39,1013.05
									z"/>
							</g>
						</g>
					</g>
				</g>
			</g>
		</g>
	</g>
	<g>
		<g>
			<g>
				<g>
					<g>
						<g>
							<g>
								<path class="st0" d="M66.33,1001.36c-7.16,0-14.42-1.52-21.31-4.76c-25.14-11.8-36.19-41.43-24.62-66.68
									c25.21-55.01,96.39-122.78,189.17-83.87l136.97,57.43c25.78,10.81,37.92,40.47,27.11,66.24
									c-10.79,25.79-40.42,37.97-66.24,27.11L170.43,939.4c-32.67-13.7-52.79,21.86-58.19,33.07
									C103.52,990.64,85.29,1001.36,66.33,1001.36z"/>
								<path class="st0" d="M341.47,1006.87c-6.52,0-13.15-1.27-19.54-3.95l-151.5-63.51c-92.79-38.89-94.37-137.15-72.79-193.7
									c9.96-26.11,39.25-39.21,65.33-29.24c26.12,9.96,39.21,39.21,29.24,65.33c-4.07,11.3-15.31,50.57,17.36,64.26l151.49,63.51
									c25.78,10.8,37.92,40.46,27.11,66.24C380.05,995.19,361.26,1006.87,341.47,1006.87z"/>
							</g>
						</g>
					</g>
				</g>
			</g>
		</g>
	</g>
	<g>
		<g>
			<g>
				<g>
					<g>
						<g>
							<g>
								<path class="st0" d="M2644.83,1965.44c-17.09,0-35.31-3.5-54.44-11.5l-160.23-67.19c-25.78-10.81-37.92-40.46-27.11-66.23
									c10.8-25.77,40.45-37.95,66.24-27.12l160.25,67.19c32.67,13.67,52.82-21.85,58.21-33.07
									c12.03-25.03,42.08-35.94,67.23-24.11c25.14,11.8,36.18,41.42,24.61,66.66C2759.57,1913.77,2710.58,1965.44,2644.83,1965.44
									z"/>
								<path class="st0" d="M2655.05,2086.88c-6,0-12.09-1.07-18.03-3.34c-26.11-9.95-39.21-39.21-29.25-65.33
									c4.06-11.3,15.31-50.56-17.38-64.27c-79.46-33.33-125.6-51.07-126.06-51.27c-26.09-10.02-39.12-39.28-29.1-65.38
									c10.02-26.11,39.31-39.11,65.39-29.11c1.91,0.74,47.85,18.4,128.91,52.41c92.79,38.9,94.38,137.14,72.81,193.7
									C2694.65,2074.47,2675.43,2086.88,2655.05,2086.88z"/>
							</g>
						</g>
					</g>
				</g>
			</g>
		</g>
	</g>
	<g>
		<g>
			<g>
				<g>
					<g>
						<g>
							<g>
								<path class="st0" d="M950.86,2784.18c-7.01,0-14.13-1.48-20.93-4.58c-55.03-25.22-122.76-96.41-83.85-189.21
									c33.87-80.8,67.2-156.26,67.53-157.02c11.29-25.57,41.18-37.12,66.75-25.85c25.56,11.28,37.14,41.17,25.84,66.74
									c-0.33,0.76-33.28,75.4-66.77,155.27c-13.7,32.69,21.84,52.82,33.06,58.21c25.03,12.03,35.92,42.1,24.12,67.24
									C987.99,2773.34,969.84,2784.18,950.86,2784.18z"/>
								<path class="st0" d="M808.98,2713.71c-23.14,0-45.3-4.52-63.26-11.37c-26.11-9.97-39.21-39.21-29.25-65.33
									c9.96-26.13,39.21-39.19,65.33-29.24c11.29,4.07,50.56,15.31,64.27-17.38l51.82-123.6l93.35,39.13l-51.82,123.62
									C912.87,2692.87,858.68,2713.71,808.98,2713.71z"/>
							</g>
						</g>
					</g>
				</g>
			</g>
		</g>
	</g>
	<g>
		<g>
			<g>
				<g>
					<g>
						<g>
							<g>
								<path class="st0" d="M1843.97,391.53c-6.52,0-13.15-1.27-19.54-3.95c-25.78-10.8-37.92-40.46-27.11-66.24l63.26-150.9
									c13.69-32.66-21.86-52.8-33.08-58.19c-25.04-12.03-35.92-42.09-24.12-67.22c11.8-25.15,41.43-36.18,66.68-24.62
									c55.03,25.21,122.77,96.4,83.87,189.18l-63.26,150.89C1882.55,379.85,1863.76,391.53,1843.97,391.53z"/>
								<path class="st0" d="M1862.75,346.72c-6.52,0-13.15-1.27-19.54-3.95c-25.78-10.81-37.92-40.46-27.12-66.25l44.48-106.1
									c38.9-92.77,137.16-94.34,193.71-72.8c26.11,9.97,39.21,39.21,29.25,65.34c-9.96,26.13-39.19,39.2-65.34,29.25
									c-11.31-4.08-50.59-15.32-64.28,17.36l-44.47,106.08C1901.33,335.04,1882.54,346.72,1862.75,346.72z"/>
							</g>
						</g>
					</g>
				</g>
			</g>
		</g>
	</g>
	<g>
		<g>
			<g>
				<g>
					<g>
						<g>
							<g>
								<g>
									<g>
										<g>
											<path class="st0" d="M680.47,714.64c-13.11,0-26.21-5.06-36.11-15.16l-90.49-92.18c-26.67-27.18-62.18,3.99-66.13,7.64
												c-20.57,18.91-52.59,17.57-71.52-3c-18.92-20.58-17.58-52.6,3-71.52c44.56-40.95,136.43-75.86,206.9-4.03l90.47,92.17
												c19.59,19.94,19.29,51.99-0.66,71.57C706.07,709.81,693.27,714.64,680.47,714.64z"/>
											<path class="st0" d="M740.53,784.26c-13.87,0-27.68-5.67-37.68-16.8c-0.88-0.99-88.75-98.79-148.98-160.16
												c-70.47-71.83-33.88-163.02,7.91-206.79c19.31-20.23,51.34-20.97,71.55-1.66c20.23,19.3,20.97,51.34,1.67,71.55
												c-8.12,8.85-33.7,40.7-8.88,66c61.82,63,148.4,159.36,152.06,163.43c18.67,20.8,16.94,52.8-3.85,71.48
												C764.66,779.98,752.57,784.26,740.53,784.26z"/>
										</g>
									</g>
								</g>
							</g>
						</g>
					</g>
				</g>
				<g>
					<g>
						<g>
							<g>
								<g>
									<g>
										<g>
											<path class="st0" d="M2264.78,2295.25c-32.02,0-65.34-11.34-94.92-41.47l-90.46-92.16
												c-19.58-19.95-19.29-51.98,0.65-71.59c19.93-19.57,51.98-19.31,71.58,0.66l90.48,92.2c26.67,27.15,62.17-4.02,66.13-7.66
												c20.57-18.93,52.6-17.58,71.51,2.98c18.92,20.59,17.59,52.59-2.99,71.52C2350.91,2273.5,2309.09,2295.25,2264.78,2295.25
												z"/>
											<path class="st0" d="M2197.58,2405.33c-12.56,0-25.14-4.65-34.94-14c-20.22-19.31-20.96-51.34-1.66-71.57
												c8.13-8.83,33.7-40.69,8.88-65.99c-60.52-61.67-151.07-148.69-151.98-149.58c-20.16-19.36-20.81-51.4-1.44-71.55
												c19.35-20.17,51.4-20.81,71.56-1.43c0.92,0.87,92.56,88.94,154.1,151.68c70.48,71.8,33.89,163.01-7.91,206.77
												C2224.26,2400.08,2210.93,2405.33,2197.58,2405.33z"/>
										</g>
									</g>
								</g>
							</g>
						</g>
					</g>
				</g>
			</g>
			<g>
				<g>
					<g>
						<g>
							<g>
								<g>
									<g>
										<g>
											<path class="st0" d="M580.61,2390.21c-13.67,0-27.29-5.5-37.27-16.34c-40.98-44.55-75.86-136.42-4.05-206.9l92.2-90.48
												c19.96-19.57,51.98-19.28,71.58,0.69c19.57,19.94,19.27,52-0.68,71.57l-92.18,90.47c-27.17,26.66,3.99,62.16,7.64,66.12
												c18.92,20.58,17.59,52.59-2.99,71.52C605.14,2385.79,592.86,2390.21,580.61,2390.21z"/>
											<path class="st0" d="M517.04,2278.93c-45.26,0-87.73-22.9-113.63-47.63c-20.22-19.29-20.96-51.34-1.66-71.55
												c19.3-20.23,51.35-20.96,71.56-1.67c8.82,8.12,40.71,33.69,65.98,8.88c61.98-60.83,149.5-148.64,150.38-149.53
												c19.72-19.79,51.77-19.87,71.58-0.13c19.8,19.74,19.85,51.78,0.12,71.59c-0.88,0.87-88.79,89.08-151.17,150.32
												C580.88,2267.99,548.3,2278.93,517.04,2278.93z"/>
										</g>
									</g>
								</g>
							</g>
						</g>
					</g>
				</g>
				<g>
					<g>
						<g>
							<g>
								<g>
									<g>
										<g>
											<path class="st0" d="M2129.05,728.16c-13.11,0-26.21-5.06-36.12-15.16c-19.59-19.94-19.29-51.99,0.66-71.57l92.18-90.47
												c27.15-26.66-4.01-62.17-7.65-66.13c-18.92-20.58-17.59-52.59,2.99-71.51c20.57-18.94,52.6-17.57,71.51,2.99
												c40.97,44.54,75.85,136.4,4.05,206.89l-92.17,90.46C2154.65,723.33,2141.85,728.16,2129.05,728.16z"/>
											<path class="st0" d="M2074.54,799.46c-11.47,0-22.99-3.87-32.47-11.8c-21.43-17.95-24.26-49.87-6.32-71.3
												c3.48-4.16,86.06-102.64,150.02-165.39c71.78-70.48,163-33.9,206.79,7.91c20.22,19.3,20.97,51.34,1.66,71.55
												c-19.3,20.23-51.34,20.97-71.55,1.66c-8.86-8.12-40.71-33.72-65.99-8.89c-60.39,59.27-142.48,157.15-143.31,158.13
												C2103.37,793.29,2089,799.46,2074.54,799.46z"/>
										</g>
									</g>
								</g>
							</g>
						</g>
					</g>
				</g>
			</g>
		</g>
		<g>
			<g>
				<g>
					<g>
						<g>
							<g>
								<g>
									<g>
										<g>
											<path class="st0" d="M152.15,1535.32c-0.86,0-1.72,0-2.59-0.06c-27.73-1.42-49.15-24.65-48-52.41
												c2.53-60.47,42.95-149.57,143.44-149.15l129.17,1.2c27.95,0.27,50.39,23.15,50.13,51.1
												c-0.27,27.79-22.88,50.14-50.61,50.14c-0.16,0-0.33,0-0.49,0l-129.13-1.22c-35.97-0.07-40.63,40.17-41.39,52.59
												C201.06,1514.36,178.76,1535.32,152.15,1535.32z"/>
											<path class="st0" d="M373.69,1436.14c-0.16,0-0.33,0-0.49,0l-129.13-1.22c-100.63-0.92-139.25-91.31-140.64-151.82
												c-0.65-27.94,21.49-51.13,49.43-51.77c27.93-0.53,51.12,21.48,51.77,49.43c0.51,12,4.94,52.62,40.37,52.94l129.17,1.2
												c27.95,0.27,50.39,23.15,50.13,51.1C424.02,1413.79,401.42,1436.14,373.69,1436.14z"/>
										</g>
									</g>
								</g>
							</g>
						</g>
					</g>
				</g>
				<g>
					<g>
						<g>
							<g>
								<g>
									<g>
										<g>
											<path class="st0" d="M2552.53,1456.47c-0.52,0-1.03,0-1.56,0l-129.18-1.22c-27.95-0.26-50.4-23.13-50.13-51.08
												c0.27-27.95,23.48-50.1,51.09-50.14l129.16,1.21c38.37,0.67,41.14-46.79,41.36-52.17c1.18-27.92,24.75-49.39,52.7-48.45
												c27.93,1.18,49.62,24.77,48.45,52.7C2691.89,1367.46,2651.99,1456.47,2552.53,1456.47z"/>
											<path class="st0" d="M2641.93,1558.85c-27.4,0-49.93-21.88-50.57-49.43c-0.51-12.01-4.96-52.62-40.38-52.95l-129.18-1.22
												c-27.95-0.26-50.4-23.13-50.13-51.08c0.27-27.95,23.48-50.1,51.09-50.14l129.16,1.21
												c100.6,0.93,139.23,91.31,140.64,151.81c0.66,27.95-21.47,51.14-49.42,51.78
												C2642.74,1558.85,2642.33,1558.85,2641.93,1558.85z"/>
										</g>
									</g>
								</g>
							</g>
						</g>
					</g>
				</g>
			</g>
			<g>
				<g>
					<g>
						<g>
							<g>
								<g>
									<g>
										<g>
											<path class="st0" d="M1487.91,2691.55c-0.71,0-1.43-0.02-2.16-0.03c-60.46-2.54-150.07-42.83-149.15-143.44l1.21-129.19
												c0.27-27.79,22.88-50.13,50.61-50.13c0.16,0,0.33,0,0.49,0c27.95,0.28,50.39,23.16,50.13,51.1l-1.21,129.14
												c-0.35,38.06,46.79,41.14,52.17,41.35c27.93,1.19,49.62,24.78,48.45,52.7
												C1537.3,2670.27,1514.89,2691.55,1487.91,2691.55z"/>
											<path class="st0" d="M1284.81,2689.67c-27.4,0-49.93-21.89-50.57-49.44c-0.66-27.94,21.47-51.13,49.42-51.78
												c12-0.5,52.62-4.94,52.94-40.37l1.21-129.19c0.27-27.79,22.88-50.13,50.61-50.13c0.16,0,0.33,0,0.49,0
												c27.95,0.28,50.39,23.16,50.13,51.1l-1.21,129.14c-0.92,100.6-91.29,139.24-151.82,140.64
												C1285.62,2689.66,1285.22,2689.67,1284.81,2689.67z"/>
										</g>
									</g>
								</g>
							</g>
						</g>
					</g>
				</g>
				<g>
					<g>
						<g>
							<g>
								<g>
									<g>
										<g>
											<path class="st0" d="M1407.56,421.4c-0.16,0-0.32,0-0.49,0c-27.95-0.26-50.4-23.14-50.14-51.09l1.2-129.14
												c0.35-38.06-46.79-41.15-52.17-41.37c-27.93-1.18-49.61-24.77-48.44-52.71c1.19-27.93,24.81-49.5,52.71-48.44
												c60.45,2.55,150.06,42.85,149.13,143.45l-1.2,129.16C1457.9,399.05,1435.28,421.4,1407.56,421.4z"/>
											<path class="st0" d="M1407.56,421.4c-0.16,0-0.32,0-0.49,0c-27.95-0.26-50.4-23.14-50.14-51.09l1.2-129.14
												c0.93-100.6,91.31-139.23,151.82-140.65c27.43-0.8,51.13,21.47,51.78,49.41c0.66,27.94-21.47,51.13-49.41,51.78
												c-12.01,0.51-52.64,4.96-52.97,40.39l-1.2,129.16C1457.9,399.05,1435.28,421.4,1407.56,421.4z"/>
										</g>
									</g>
								</g>
							</g>
						</g>
					</g>
				</g>
			</g>
		</g>
	</g>
	<g>
		<path class="st0" d="M1106.43,743.7v340.49h-77.39l-0.1-229.87l-30.81,229.87h-54.89l-32.49-224.61l-0.11,224.61h-77.39V743.7
			h114.57c3.4,20.47,6.9,44.6,10.51,72.39l12.57,86.61l20.35-158.99H1106.43z"/>
		<path class="st0" d="M1295.03,743.7l50.63,340.49h-90.48l-4.75-61.2h-31.67l-5.32,61.2h-91.54l45.16-340.49H1295.03z
			 M1248.1,962.63c-4.48-38.56-8.98-86.23-13.49-143.01c-9.02,65.2-14.69,112.87-16.99,143.01H1248.1z"/>
		<path class="st0" d="M1571.74,743.7l-50.79,153.73l55.63,186.75h-91.48l-35.86-145.95v145.95h-88.54V743.7h88.54v132.28
			l39.43-132.28H1571.74z"/>
		<path class="st0" d="M1591.82,743.7h147.64v68.14h-59.1v64.56h55.31v64.77h-55.31v74.87h64.99v68.14h-153.52V743.7z"/>
		<path class="st0" d="M1770.8,743.7h62.67c41.78,0,70.06,1.61,84.86,4.84c14.79,3.23,26.85,11.46,36.17,24.71
			c9.32,13.25,13.99,34.39,13.99,63.41c0,26.5-3.3,44.31-9.88,53.42c-6.59,9.12-19.56,14.58-38.91,16.4
			c17.52,4.35,29.3,10.17,35.33,17.46c6.03,7.29,9.78,13.99,11.25,20.08c1.47,6.1,2.21,22.89,2.21,50.37v89.8h-82.23V971.04
			c0-18.22-1.44-29.51-4.31-33.86c-2.88-4.34-10.41-6.52-22.61-6.52v153.52h-88.54V743.7z M1859.34,801.96v75.71
			c9.95,0,16.93-1.37,20.93-4.1c4-2.73,5.99-11.6,5.99-26.6v-18.72c0-10.79-1.93-17.88-5.78-21.24
			C1876.61,803.64,1869.57,801.96,1859.34,801.96z"/>
		<path class="st0" d="M1364.69,1260.55l-45.06,340.49h-134.49l-51.16-340.49h93.38c10.85,93.79,18.6,173.15,23.24,238.07
			c4.57-65.61,9.43-123.86,14.57-174.75l6.15-63.32H1364.69z"/>
		<path class="st0" d="M1567.22,1363.6h-82.23v-25.24c0-11.78-1.05-19.28-3.16-22.5c-2.1-3.22-5.61-4.84-10.51-4.84
			c-5.33,0-9.36,2.17-12.09,6.53c-2.73,4.35-4.1,10.94-4.1,19.78c0,11.36,1.53,19.92,4.61,25.67c2.93,5.75,11.27,12.69,25.02,20.82
			c39.41,23.39,64.24,42.59,74.47,57.59c10.23,15,15.35,39.19,15.35,72.56c0,24.26-2.84,42.13-8.52,53.63
			c-5.68,11.5-16.65,21.14-32.91,28.92c-16.27,7.78-35.19,11.67-56.78,11.67c-23.7,0-43.92-4.49-60.67-13.46
			c-16.76-8.97-27.73-20.4-32.91-34.28c-5.19-13.88-7.78-33.58-7.78-59.1v-22.29h82.23v41.43c0,12.76,1.16,20.96,3.47,24.61
			c2.31,3.65,6.41,5.47,12.3,5.47c5.89,0,10.27-2.31,13.14-6.94c2.87-4.63,4.31-11.49,4.31-20.61c0-20.05-2.73-33.16-8.2-39.33
			c-5.61-6.17-19.42-16.47-41.43-30.92c-22.01-14.58-36.59-25.16-43.74-31.76c-7.15-6.59-13.08-15.7-17.77-27.34
			c-4.7-11.64-7.05-26.5-7.05-44.58c0-26.08,3.33-45.14,9.99-57.2c6.66-12.06,17.42-21.48,32.28-28.29
			c14.86-6.8,32.81-10.2,53.84-10.2c22.99,0,42.59,3.72,58.78,11.15c16.19,7.43,26.92,16.79,32.18,28.08
			c5.26,11.29,7.89,30.46,7.89,57.52V1363.6z"/>
		<path class="st0" d="M1656.39,1531.64v69.4h-64.14v-69.4H1656.39z"/>
		<path class="st0" d="M1108.64,1777.4l-45.06,340.49H929.09l-51.16-340.49h93.38c10.85,93.79,18.6,173.15,23.24,238.07
			c4.57-65.61,9.43-123.86,14.57-174.75l6.15-63.32H1108.64z"/>
		<path class="st0" d="M1212.11,1777.4v340.49h-88.54V1777.4H1212.11z"/>
		<path class="st0" d="M1247.66,1777.4h62.67c41.78,0,70.07,1.61,84.86,4.84c14.79,3.23,26.85,11.46,36.17,24.71
			c9.32,13.25,13.99,34.38,13.99,63.41c0,26.5-3.3,44.31-9.89,53.42c-6.59,9.12-19.56,14.58-38.91,16.4
			c17.52,4.35,29.3,10.17,35.33,17.45c6.03,7.29,9.78,13.99,11.25,20.08c1.47,6.1,2.21,22.89,2.21,50.37v89.8h-82.23v-113.14
			c0-18.22-1.44-29.51-4.31-33.86c-2.88-4.34-10.41-6.52-22.61-6.52v153.52h-88.54V1777.4z M1336.2,1835.66v75.71
			c9.95,0,16.93-1.37,20.93-4.1c4-2.73,5.99-11.6,5.99-26.6v-18.72c0-10.8-1.93-17.88-5.78-21.24
			C1353.47,1837.34,1346.43,1835.66,1336.2,1835.66z"/>
		<path class="st0" d="M1680.89,1777.4v227.55c0,25.8-0.84,43.92-2.52,54.36c-1.68,10.45-6.66,21.17-14.93,32.18
			c-8.27,11.01-19.17,19.35-32.7,25.03c-13.53,5.68-29.48,8.52-47.84,8.52c-20.33,0-38.28-3.36-53.84-10.09
			c-15.56-6.73-27.2-15.49-34.91-26.29c-7.71-10.79-12.27-22.19-13.67-34.17c-1.4-11.99-2.1-37.19-2.1-75.61V1777.4h88.54v255.31
			c0,14.86,0.81,24.36,2.42,28.5c1.61,4.14,4.87,6.2,9.78,6.2c5.61,0,9.22-2.28,10.83-6.84c1.61-4.55,2.42-15.32,2.42-32.28v-250.9
			H1680.89z"/>
		<path class="st0" d="M1902.76,1880.45h-82.23v-25.24c0-11.78-1.05-19.28-3.16-22.5c-2.1-3.22-5.61-4.84-10.51-4.84
			c-5.33,0-9.36,2.18-12.09,6.53c-2.73,4.35-4.1,10.94-4.1,19.78c0,11.36,1.53,19.92,4.61,25.67c2.93,5.75,11.27,12.69,25.02,20.82
			c39.41,23.39,64.24,42.59,74.47,57.59c10.23,15,15.35,39.19,15.35,72.56c0,24.26-2.84,42.13-8.52,53.63
			c-5.68,11.5-16.65,21.14-32.91,28.92c-16.27,7.78-35.19,11.67-56.78,11.67c-23.7,0-43.92-4.49-60.67-13.46
			c-16.76-8.97-27.73-20.4-32.91-34.28c-5.19-13.88-7.78-33.58-7.78-59.1v-22.29h82.23v41.43c0,12.76,1.16,20.96,3.47,24.61
			c2.31,3.65,6.41,5.47,12.3,5.47c5.89,0,10.27-2.31,13.14-6.94c2.87-4.63,4.31-11.5,4.31-20.61c0-20.05-2.73-33.16-8.2-39.33
			c-5.61-6.17-19.42-16.47-41.43-30.92c-22.01-14.58-36.59-25.16-43.74-31.76c-7.15-6.59-13.08-15.7-17.77-27.34
			c-4.7-11.64-7.04-26.5-7.04-44.59c0-26.08,3.33-45.14,9.99-57.2c6.66-12.06,17.42-21.48,32.28-28.29
			c14.86-6.8,32.81-10.2,53.84-10.2c22.99,0,42.59,3.72,58.78,11.15c16.19,7.43,26.92,16.79,32.18,28.08
			c5.26,11.29,7.89,30.46,7.89,57.52V1880.45z"/>
	</g>
</g>
</svg>
