<?xml version="1.0" encoding="utf-8"?>
<!-- Generator: Adobe Illustrator 24.0.2, SVG Export Plug-In . SVG Version: 6.00 Build 0)  -->
<svg version="1.1" id="Ebene_1" xmlns="http://www.w3.org/2000/svg" xmlns:xlink="http://www.w3.org/1999/xlink" x="0px" y="0px"
	 viewBox="0 0 357.3 124" style="enable-background:new 0 0 357.3 124;" xml:space="preserve">
<style type="text/css">
	.st0{fill:#FFFFFF;}
</style>
<g>
	<path class="st0" d="M297.7,107.2c-18.5,0-35-11.1-42-28.2c-9.5-23.2,1.7-49.7,24.8-59.2c5.5-2.3,11.3-3.4,17.2-3.4
		c18.5,0,35,11.1,42,28.2c9.5,23.2-1.7,49.7-24.8,59.2C309.4,106,303.6,107.2,297.7,107.2z M297.7,20.7c-5.3,0-10.6,1-15.5,3.1
		c-20.9,8.6-31,32.6-22.4,53.5c6.3,15.5,21.3,25.5,38,25.5c5.3,0,10.6-1,15.5-3.1c20.9-8.6,31-32.6,22.4-53.5
		C329.3,30.8,314.4,20.7,297.7,20.7z"/>
	<g>
		<g>
			<g>
				<g>
					<g>
						<g>
							<g>
								<path class="st0" d="M279.1,18.4c-0.8,0-1.6-0.5-2-1.3c0,0-1.2-2.8-2.6-6.3c-0.6-1.5-2.5-0.8-2.7-0.8
									c-1.1,0.4-2.4-0.2-2.8-1.3c-0.4-1.1,0.2-2.4,1.3-2.8c2.4-0.9,6.6-0.8,8.3,3.2c1.4,3.5,2.6,6.3,2.6,6.3
									c0.5,1.1,0,2.4-1.1,2.8C279.7,18.4,279.4,18.4,279.1,18.4z"/>
								<path class="st0" d="M277.9,15.6c-0.9,0-1.7-0.5-2-1.3l-1.4-3.5c-1.6-4,1.3-7,3.7-8.1c1.1-0.5,2.4,0,2.9,1.1
									c0.5,1.1,0,2.4-1.1,2.9c-0.5,0.2-2,1.1-1.4,2.5l1.4,3.5c0.5,1.1-0.1,2.4-1.2,2.8C278.5,15.6,278.2,15.6,277.9,15.6z"/>
							</g>
						</g>
					</g>
				</g>
			</g>
		</g>
	</g>
	<g>
		<g>
			<g>
				<g>
					<g>
						<g>
							<g>
								<path class="st0" d="M322.7,118.5c-2.1,0-4.5-0.9-5.6-3.7l-2.8-6.9c-0.5-1.1,0.1-2.4,1.2-2.8c1.1-0.5,2.4,0.1,2.8,1.2
									l2.8,6.9c0.6,1.5,2.5,0.8,2.7,0.8c1.1-0.4,2.4,0.2,2.8,1.3c0.4,1.1-0.2,2.4-1.3,2.8C324.6,118.3,323.7,118.5,322.7,118.5z"
									/>
								<path class="st0" d="M316.5,121.5c-0.8,0-1.6-0.5-2-1.3c-0.5-1.1,0-2.4,1.1-2.9c0.5-0.2,2-1.1,1.4-2.5l-2.2-5.3
									c-0.5-1.1,0.1-2.4,1.2-2.8c1.1-0.5,2.4,0.1,2.8,1.2l2.2,5.3c1.6,4-1.3,7-3.7,8.1C317.1,121.4,316.8,121.5,316.5,121.5z"/>
							</g>
						</g>
					</g>
				</g>
			</g>
		</g>
	</g>
	<g>
		<g>
			<g>
				<g>
					<g>
						<g>
							<g>
								<path class="st0" d="M243.8,91c-0.9,0-1.7-0.5-2-1.4c-0.9-2.4-0.8-6.6,3.2-8.3l6.7-2.7c1.1-0.5,2.4,0.1,2.8,1.2
									c0.5,1.1-0.1,2.4-1.2,2.8l-6.7,2.7c-1.4,0.6-0.9,2.3-0.8,2.8c0.4,1.1-0.2,2.4-1.3,2.8C244.3,90.9,244,91,243.8,91z"/>
								<path class="st0" d="M244.3,85.8c-2.8,0-4.9-2.2-5.8-4.1c-0.5-1.1,0-2.4,1.1-2.9c1.1-0.5,2.4,0,2.9,1.1
									c0.2,0.5,1.1,2,2.5,1.4l5.3-2.2c1.1-0.5,2.4,0.1,2.8,1.2c0.5,1.1-0.1,2.4-1.2,2.8l-5.3,2.2C245.8,85.6,245,85.8,244.3,85.8z
									"/>
							</g>
						</g>
					</g>
				</g>
			</g>
		</g>
	</g>
	<g>
		<g>
			<g>
				<g>
					<g>
						<g>
							<g>
								<path class="st0" d="M343.2,45.6c-0.9,0-1.7-0.5-2-1.3c-0.5-1.1,0.1-2.4,1.2-2.8l6.6-2.7c1.4-0.6,0.9-2.3,0.8-2.8
									c-0.4-1.1,0.2-2.4,1.3-2.8c1.1-0.4,2.4,0.2,2.8,1.3c0.9,2.4,0.8,6.6-3.2,8.3l-6.6,2.7C343.7,45.5,343.5,45.6,343.2,45.6z"/>
								<path class="st0" d="M355.1,45.4c-0.8,0-1.6-0.5-2-1.3c-0.2-0.5-1.1-2-2.5-1.4l-4.7,1.9c-1.1,0.5-2.4-0.1-2.8-1.2
									c-0.5-1.1,0.1-2.4,1.2-2.8l4.7-1.9c4-1.6,7,1.3,8.1,3.7c0.5,1.1,0,2.4-1.1,2.9C355.7,45.4,355.4,45.4,355.1,45.4z"/>
							</g>
						</g>
					</g>
				</g>
			</g>
		</g>
	</g>
	<g>
		<g>
			<g>
				<g>
					<g>
						<g>
							<g>
								<path class="st0" d="M240.6,44.9c-0.3,0-0.6-0.1-0.9-0.2c-1.1-0.5-1.6-1.8-1.1-2.9c1.1-2.4,4.1-5.3,8.1-3.6l5.9,2.5
									c1.1,0.5,1.6,1.7,1.2,2.8c-0.5,1.1-1.7,1.6-2.8,1.2l-5.9-2.5c-1.4-0.6-2.3,0.9-2.5,1.4C242.2,44.5,241.5,44.9,240.6,44.9z"
									/>
								<path class="st0" d="M252.4,45.2c-0.3,0-0.6-0.1-0.8-0.2l-6.5-2.7c-4-1.7-4-5.9-3.1-8.3c0.4-1.1,1.7-1.7,2.8-1.3
									c1.1,0.4,1.7,1.7,1.3,2.8c-0.2,0.5-0.7,2.2,0.7,2.8l6.5,2.7c1.1,0.5,1.6,1.7,1.2,2.8C254.1,44.7,253.3,45.2,252.4,45.2z"/>
							</g>
						</g>
					</g>
				</g>
			</g>
		</g>
	</g>
	<g>
		<g>
			<g>
				<g>
					<g>
						<g>
							<g>
								<path class="st0" d="M351.1,86.2c-0.7,0-1.5-0.1-2.3-0.5l-6.9-2.9c-1.1-0.5-1.6-1.7-1.2-2.8c0.5-1.1,1.7-1.6,2.8-1.2
									l6.9,2.9c1.4,0.6,2.3-0.9,2.5-1.4c0.5-1.1,1.8-1.5,2.9-1c1.1,0.5,1.6,1.8,1.1,2.9C356,84,353.9,86.2,351.1,86.2z"/>
								<path class="st0" d="M351.6,91.4c-0.3,0-0.5,0-0.8-0.1c-1.1-0.4-1.7-1.7-1.3-2.8c0.2-0.5,0.7-2.2-0.7-2.8
									c-3.4-1.4-5.4-2.2-5.4-2.2c-1.1-0.4-1.7-1.7-1.2-2.8c0.4-1.1,1.7-1.7,2.8-1.2c0.1,0,2.1,0.8,5.5,2.2c4,1.7,4,5.9,3.1,8.3
									C353.3,90.9,352.4,91.4,351.6,91.4z"/>
							</g>
						</g>
					</g>
				</g>
			</g>
		</g>
	</g>
	<g>
		<g>
			<g>
				<g>
					<g>
						<g>
							<g>
								<path class="st0" d="M278.5,121.3c-0.3,0-0.6-0.1-0.9-0.2c-2.4-1.1-5.3-4.1-3.6-8.1c1.5-3.5,2.9-6.7,2.9-6.7
									c0.5-1.1,1.8-1.6,2.9-1.1c1.1,0.5,1.6,1.8,1.1,2.9c0,0-1.4,3.2-2.9,6.7c-0.6,1.4,0.9,2.3,1.4,2.5c1.1,0.5,1.5,1.8,1,2.9
									C280.1,120.8,279.4,121.3,278.5,121.3z"/>
								<path class="st0" d="M272.5,118.3c-1,0-1.9-0.2-2.7-0.5c-1.1-0.4-1.7-1.7-1.3-2.8c0.4-1.1,1.7-1.7,2.8-1.3
									c0.5,0.2,2.2,0.7,2.8-0.7l2.2-5.3l4,1.7l-2.2,5.3C276.9,117.4,274.6,118.3,272.5,118.3z"/>
							</g>
						</g>
					</g>
				</g>
			</g>
		</g>
	</g>
	<g>
		<g>
			<g>
				<g>
					<g>
						<g>
							<g>
								<path class="st0" d="M316.8,18.8c-0.3,0-0.6-0.1-0.8-0.2c-1.1-0.5-1.6-1.7-1.2-2.8l2.7-6.5c0.6-1.4-0.9-2.3-1.4-2.5
									c-1.1-0.5-1.5-1.8-1-2.9c0.5-1.1,1.8-1.6,2.9-1.1c2.4,1.1,5.3,4.1,3.6,8.1l-2.7,6.5C318.5,18.3,317.7,18.8,316.8,18.8z"/>
								<path class="st0" d="M317.6,16.9c-0.3,0-0.6-0.1-0.8-0.2c-1.1-0.5-1.6-1.7-1.2-2.8l1.9-4.5c1.7-4,5.9-4,8.3-3.1
									c1.1,0.4,1.7,1.7,1.3,2.8c-0.4,1.1-1.7,1.7-2.8,1.3c-0.5-0.2-2.2-0.7-2.8,0.7l-1.9,4.5C319.3,16.4,318.5,16.9,317.6,16.9z"
									/>
							</g>
						</g>
					</g>
				</g>
			</g>
		</g>
	</g>
	<g>
		<g>
			<g>
				<g>
					<g>
						<g>
							<g>
								<g>
									<g>
										<g>
											<path class="st0" d="M267,32.6c-0.6,0-1.1-0.2-1.5-0.6l-3.9-3.9c-1.1-1.2-2.7,0.2-2.8,0.3c-0.9,0.8-2.3,0.8-3.1-0.1
												c-0.8-0.9-0.8-2.3,0.1-3.1c1.9-1.8,5.8-3.3,8.9-0.2l3.9,3.9c0.8,0.9,0.8,2.2,0,3.1C268.1,32.4,267.5,32.6,267,32.6z"/>
											<path class="st0" d="M269.5,35.6c-0.6,0-1.2-0.2-1.6-0.7c0,0-3.8-4.2-6.4-6.9c-3-3.1-1.5-7,0.3-8.9
												c0.8-0.9,2.2-0.9,3.1-0.1c0.9,0.8,0.9,2.2,0.1,3.1c-0.3,0.4-1.4,1.7-0.4,2.8c2.6,2.7,6.4,6.8,6.5,7
												c0.8,0.9,0.7,2.3-0.2,3.1C270.6,35.4,270,35.6,269.5,35.6z"/>
										</g>
									</g>
								</g>
							</g>
						</g>
					</g>
				</g>
				<g>
					<g>
						<g>
							<g>
								<g>
									<g>
										<g>
											<path class="st0" d="M334.8,100.4c-1.4,0-2.8-0.5-4.1-1.8l-3.9-3.9c-0.8-0.9-0.8-2.2,0-3.1c0.9-0.8,2.2-0.8,3.1,0l3.9,4
												c1.1,1.2,2.7-0.2,2.8-0.3c0.9-0.8,2.3-0.8,3.1,0.1c0.8,0.9,0.8,2.3-0.1,3.1C338.5,99.4,336.7,100.4,334.8,100.4z"/>
											<path class="st0" d="M332,105.1c-0.5,0-1.1-0.2-1.5-0.6c-0.9-0.8-0.9-2.2-0.1-3.1c0.3-0.4,1.4-1.7,0.4-2.8
												c-2.6-2.6-6.5-6.4-6.5-6.4c-0.9-0.8-0.9-2.2-0.1-3.1c0.8-0.9,2.2-0.9,3.1-0.1c0,0,4,3.8,6.6,6.5c3,3.1,1.5,7-0.3,8.9
												C333.1,104.8,332.5,105.1,332,105.1z"/>
										</g>
									</g>
								</g>
							</g>
						</g>
					</g>
				</g>
			</g>
			<g>
				<g>
					<g>
						<g>
							<g>
								<g>
									<g>
										<g>
											<path class="st0" d="M262.7,104.4c-0.6,0-1.2-0.2-1.6-0.7c-1.8-1.9-3.3-5.8-0.2-8.9l4-3.9c0.9-0.8,2.2-0.8,3.1,0
												c0.8,0.9,0.8,2.2,0,3.1l-3.9,3.9c-1.2,1.1,0.2,2.7,0.3,2.8c0.8,0.9,0.8,2.3-0.1,3.1C263.7,104.2,263.2,104.4,262.7,104.4
												z"/>
											<path class="st0" d="M260,99.7c-1.9,0-3.8-1-4.9-2c-0.9-0.8-0.9-2.2-0.1-3.1c0.8-0.9,2.2-0.9,3.1-0.1
												c0.4,0.3,1.7,1.4,2.8,0.4c2.7-2.6,6.4-6.4,6.4-6.4c0.8-0.8,2.2-0.9,3.1,0c0.8,0.8,0.9,2.2,0,3.1c0,0-3.8,3.8-6.5,6.4
												C262.7,99.2,261.3,99.7,260,99.7z"/>
										</g>
									</g>
								</g>
							</g>
						</g>
					</g>
				</g>
				<g>
					<g>
						<g>
							<g>
								<g>
									<g>
										<g>
											<path class="st0" d="M329,33.2c-0.6,0-1.1-0.2-1.5-0.6c-0.8-0.9-0.8-2.2,0-3.1l3.9-3.9c1.2-1.1-0.2-2.7-0.3-2.8
												c-0.8-0.9-0.8-2.3,0.1-3.1c0.9-0.8,2.3-0.8,3.1,0.1c1.8,1.9,3.2,5.8,0.2,8.9l-3.9,3.9C330.1,33,329.6,33.2,329,33.2z"/>
											<path class="st0" d="M326.7,36.3c-0.5,0-1-0.2-1.4-0.5c-0.9-0.8-1-2.1-0.3-3.1c0.1-0.2,3.7-4.4,6.4-7.1
												c3.1-3,7-1.5,8.9,0.3c0.9,0.8,0.9,2.2,0.1,3.1c-0.8,0.9-2.2,0.9-3.1,0.1c-0.4-0.3-1.7-1.4-2.8-0.4
												c-2.6,2.5-6.1,6.7-6.1,6.8C327.9,36,327.3,36.3,326.7,36.3z"/>
										</g>
									</g>
								</g>
							</g>
						</g>
					</g>
				</g>
			</g>
		</g>
		<g>
			<g>
				<g>
					<g>
						<g>
							<g>
								<g>
									<g>
										<g>
											<path class="st0" d="M244.3,67.8c0,0-0.1,0-0.1,0c-1.2-0.1-2.1-1.1-2.1-2.2c0.1-2.6,1.8-6.4,6.1-6.4l5.5,0.1
												c1.2,0,2.2,1,2.1,2.2c0,1.2-1,2.1-2.2,2.1c0,0,0,0,0,0l-5.5-0.1c-1.5,0-1.7,1.7-1.8,2.3
												C246.4,66.9,245.5,67.8,244.3,67.8z"/>
											<path class="st0" d="M253.8,63.5C253.8,63.5,253.8,63.5,253.8,63.5l-5.6-0.1c-4.3,0-6-3.9-6-6.5c0-1.2,0.9-2.2,2.1-2.2
												c1.2,0,2.2,0.9,2.2,2.1c0,0.5,0.2,2.3,1.7,2.3l5.5,0.1c1.2,0,2.2,1,2.1,2.2C256,62.6,255,63.5,253.8,63.5z"/>
										</g>
									</g>
								</g>
							</g>
						</g>
					</g>
				</g>
				<g>
					<g>
						<g>
							<g>
								<g>
									<g>
										<g>
											<path class="st0" d="M347.2,64.4C347.1,64.4,347.1,64.4,347.2,64.4l-5.6-0.1c-1.2,0-2.2-1-2.1-2.2c0-1.2,1-2.1,2.2-2.1
												l5.5,0.1c1.6,0,1.8-2,1.8-2.2c0.1-1.2,1.1-2.1,2.3-2.1c1.2,0.1,2.1,1.1,2.1,2.3C353.1,60.6,351.4,64.4,347.2,64.4z"/>
											<path class="st0" d="M351,68.8c-1.2,0-2.1-0.9-2.2-2.1c0-0.5-0.2-2.3-1.7-2.3l-5.5-0.1c-1.2,0-2.2-1-2.1-2.2
												c0-1.2,1-2.1,2.2-2.1l5.5,0.1c4.3,0,6,3.9,6,6.5C353.2,67.8,352.2,68.8,351,68.8C351,68.8,351,68.8,351,68.8z"/>
										</g>
									</g>
								</g>
							</g>
						</g>
					</g>
				</g>
			</g>
			<g>
				<g>
					<g>
						<g>
							<g>
								<g>
									<g>
										<g>
											<path class="st0" d="M301.5,117.3C301.5,117.3,301.5,117.3,301.5,117.3c-2.7-0.1-6.5-1.8-6.5-6.1l0.1-5.5
												c0-1.2,1-2.1,2.2-2.1c0,0,0,0,0,0c1.2,0,2.2,1,2.1,2.2l-0.1,5.5c0,1.6,2,1.8,2.2,1.8c1.2,0.1,2.1,1.1,2.1,2.3
												C303.7,116.4,302.7,117.3,301.5,117.3z"/>
											<path class="st0" d="M292.8,117.3c-1.2,0-2.1-0.9-2.2-2.1c0-1.2,0.9-2.2,2.1-2.2c0.5,0,2.3-0.2,2.3-1.7l0.1-5.5
												c0-1.2,1-2.1,2.2-2.1c0,0,0,0,0,0c1.2,0,2.2,1,2.1,2.2l-0.1,5.5C299.4,115.5,295.5,117.2,292.8,117.3
												C292.9,117.3,292.9,117.3,292.8,117.3z"/>
										</g>
									</g>
								</g>
							</g>
						</g>
					</g>
				</g>
				<g>
					<g>
						<g>
							<g>
								<g>
									<g>
										<g>
											<path class="st0" d="M298.1,20.1C298.1,20.1,298.1,20.1,298.1,20.1c-1.2,0-2.2-1-2.2-2.2l0.1-5.5c0-1.6-2-1.8-2.2-1.8
												c-1.2-0.1-2.1-1.1-2.1-2.3c0.1-1.2,1.1-2.1,2.3-2.1c2.6,0.1,6.4,1.8,6.4,6.1l-0.1,5.5C300.3,19.1,299.3,20.1,298.1,20.1z
												"/>
											<path class="st0" d="M298.1,20.1C298.1,20.1,298.1,20.1,298.1,20.1c-1.2,0-2.2-1-2.2-2.2l0.1-5.5c0-4.3,3.9-6,6.5-6
												c1.2,0,2.2,0.9,2.2,2.1c0,1.2-0.9,2.2-2.1,2.2c-0.5,0-2.3,0.2-2.3,1.7l-0.1,5.5C300.3,19.1,299.3,20.1,298.1,20.1z"/>
										</g>
									</g>
								</g>
							</g>
						</g>
					</g>
				</g>
			</g>
		</g>
	</g>
	<g>
		<g>
			<g>
				<g>
					<g>
						<g>
							<g>
								<g>
									<g>
										<path class="st0" d="M298.1,35.6c-1.2,0-2.2-1-2.2-2.2c0-2.7-3.1-2.8-3.5-2.8c-1.2,0-2.1-1-2.1-2.2c0-1.2,1-2.1,2.2-2.1
											c3.1,0.1,7.7,2.1,7.7,7.2C300.3,34.6,299.3,35.6,298.1,35.6z"/>
										<path class="st0" d="M298.1,35.6c-1.2,0-2.2-1-2.2-2.2c0-5.1,4.6-7.1,7.7-7.2c1.2,0,2.2,0.9,2.2,2.1
											c0,1.2-0.9,2.2-2.1,2.2c-0.6,0-3.5,0.3-3.5,2.8C300.3,34.6,299.3,35.6,298.1,35.6z"/>
									</g>
								</g>
							</g>
						</g>
					</g>
				</g>
			</g>
		</g>
		<g>
			<g>
				<g>
					<g>
						<g>
							<g>
								<g>
									<g>
										<path class="st0" d="M303.7,97.8C303.6,97.8,303.6,97.8,303.7,97.8c-3.2-0.1-7.7-2.1-7.7-7.2c0-1.2,1-2.2,2.2-2.2
											s2.2,1,2.2,2.2c0,2.7,3.1,2.8,3.5,2.8c1.2,0,2.1,1,2.1,2.2C305.8,96.9,304.8,97.8,303.7,97.8z"/>
										<path class="st0" d="M292.5,97.8c-1.2,0-2.1-0.9-2.2-2.1c0-1.2,0.9-2.2,2.1-2.2c0.6,0,3.5-0.3,3.5-2.8
											c0-1.2,1-2.2,2.2-2.2s2.2,1,2.2,2.2C300.3,95.7,295.7,97.7,292.5,97.8C292.6,97.8,292.6,97.8,292.5,97.8z"/>
									</g>
								</g>
							</g>
						</g>
					</g>
				</g>
			</g>
		</g>
	</g>
	<g>
		<g>
			<g>
				<g>
					<g>
						<g>
							<g>
								<g>
									<g>
										<path class="st0" d="M264.5,69.7C264.5,69.7,264.5,69.7,264.5,69.7c-1.3,0-2.2-1-2.2-2.2c0.1-3.1,2.1-7.7,7.2-7.7
											c1.2,0,2.2,1,2.2,2.2c0,1.2-1,2.2-2.2,2.2c-2.6,0-2.8,2.9-2.8,3.5C266.6,68.8,265.7,69.7,264.5,69.7z"/>
										<path class="st0" d="M269.5,64.2c-5.1,0-7.1-4.6-7.2-7.7c0-1.2,0.9-2.2,2.1-2.2c1.2,0,2.2,0.9,2.2,2.1
											c0,0.6,0.3,3.5,2.8,3.5c1.2,0,2.2,1,2.2,2.2C271.7,63.2,270.7,64.2,269.5,64.2z"/>
									</g>
								</g>
							</g>
						</g>
					</g>
				</g>
			</g>
		</g>
		<g>
			<g>
				<g>
					<g>
						<g>
							<g>
								<g>
									<g>
										<path class="st0" d="M326.7,64.2c-1.2,0-2.2-1-2.2-2.2c0-1.2,1-2.2,2.2-2.2c2.6,0,2.8-2.9,2.8-3.5
											c0.1-1.2,1.1-2.1,2.3-2.1c1.2,0,2.1,1,2.1,2.2C333.8,59.6,331.8,64.2,326.7,64.2z"/>
										<path class="st0" d="M331.7,69.8c-1.2,0-2.1-0.9-2.2-2.1c0-0.6-0.3-3.5-2.8-3.5c-1.2,0-2.2-1-2.2-2.2c0-1.2,1-2.2,2.2-2.2
											c5.1,0,7.1,4.6,7.2,7.7C333.9,68.7,333,69.7,331.7,69.8C331.7,69.8,331.7,69.8,331.7,69.8z"/>
									</g>
								</g>
							</g>
						</g>
					</g>
				</g>
			</g>
		</g>
	</g>
	<g>
		<g>
			<g>
				<g>
					<g>
						<g>
							<g>
								<g>
									<path class="st0" d="M275.5,53.4c-0.6,0-1.2-0.2-1.6-0.7c-0.8-0.9-0.8-2.2,0.1-3.1c2.6-2.4,8.7-5.6,13.8-0.5
										c0.8,0.8,0.8,2.2,0,3.1c-0.8,0.8-2.2,0.8-3.1,0c-3.4-3.4-7.6,0.4-7.8,0.6C276.5,53.3,276,53.4,275.5,53.4z"/>
									<path class="st0" d="M286.2,52.9c-0.6,0-1.1-0.2-1.5-0.6c-5.1-5.1-1.9-11.2,0.5-13.8c0.8-0.9,2.2-0.9,3.1-0.1
										c0.9,0.8,0.9,2.2,0.1,3.1c-0.4,0.4-3.9,4.5-0.6,7.8c0.8,0.8,0.8,2.2,0,3.1C287.4,52.7,286.8,52.9,286.2,52.9z"/>
								</g>
							</g>
						</g>
					</g>
				</g>
			</g>
		</g>
		<g>
			<g>
				<g>
					<g>
						<g>
							<g>
								<g>
									<path class="st0" d="M310.1,52.9c-0.6,0-1.1-0.2-1.5-0.6c-0.8-0.8-0.8-2.2,0-3.1c3.4-3.4-0.4-7.6-0.6-7.8
										c-0.8-0.9-0.8-2.2,0.1-3.1c0.9-0.8,2.2-0.8,3.1,0.1c2.4,2.6,5.6,8.7,0.5,13.8C311.2,52.7,310.6,52.9,310.1,52.9z"/>
									<path class="st0" d="M320.9,53.4c-0.5,0-1.1-0.2-1.5-0.6c-0.4-0.4-4.5-3.9-7.8-0.6c-0.8,0.8-2.2,0.8-3.1,0
										c-0.8-0.8-0.8-2.2,0-3.1c5.1-5.1,11.2-1.9,13.8,0.5c0.9,0.8,0.9,2.2,0.1,3.1C322,53.2,321.4,53.4,320.9,53.4z"/>
								</g>
							</g>
						</g>
					</g>
				</g>
			</g>
		</g>
	</g>
	<g>
		<g>
			<g>
				<g>
					<g>
						<g>
							<g>
								<g>
									<path class="st0" d="M314.7,78.8c-2,0-4.2-0.7-6.2-2.7c-0.8-0.8-0.8-2.2,0-3.1c0.8-0.8,2.2-0.8,3.1,0
										c3.3,3.3,7.3-0.2,7.8-0.6c0.9-0.8,2.2-0.8,3.1,0.1c0.8,0.9,0.8,2.2-0.1,3.1C320.8,77,317.9,78.8,314.7,78.8z"/>
									<path class="st0" d="M309.5,87.5c-0.5,0-1.1-0.2-1.5-0.6c-0.9-0.8-0.9-2.2-0.1-3.1c0.4-0.4,3.9-4.5,0.6-7.8
										c-0.8-0.8-0.8-2.2,0-3.1c0.8-0.8,2.2-0.8,3.1,0c5.1,5.1,1.9,11.2-0.5,13.8C310.7,87.2,310.1,87.5,309.5,87.5z"/>
								</g>
							</g>
						</g>
					</g>
				</g>
			</g>
		</g>
		<g>
			<g>
				<g>
					<g>
						<g>
							<g>
								<g>
									<path class="st0" d="M286.8,87.5c-0.6,0-1.2-0.2-1.6-0.7c-2.4-2.6-5.6-8.7-0.5-13.8c0.8-0.8,2.2-0.8,3.1,0
										c0.8,0.8,0.8,2.2,0,3.1c-3.4,3.4,0.4,7.6,0.6,7.8c0.8,0.9,0.8,2.2-0.1,3.1C287.9,87.3,287.3,87.5,286.8,87.5z"/>
									<path class="st0" d="M281.6,78.8c-3.2,0-6.1-1.8-7.6-3.2c-0.9-0.8-0.9-2.2-0.1-3.1c0.8-0.9,2.2-0.9,3.1-0.1
										c0.4,0.4,4.5,3.9,7.8,0.6c0.8-0.8,2.2-0.8,3.1,0c0.8,0.8,0.8,2.2,0,3.1C285.8,78,283.6,78.8,281.6,78.8z"/>
								</g>
							</g>
						</g>
					</g>
				</g>
			</g>
		</g>
	</g>
	<path class="st0" d="M289.2,55.9c-0.6,0-1.1-0.2-1.5-0.6l-3.7-3.7c-0.8-0.8-0.8-2.2,0-3.1c0.8-0.8,2.2-0.8,3.1,0l3.7,3.7
		c0.8,0.8,0.8,2.2,0,3.1C290.3,55.7,289.8,55.9,289.2,55.9z"/>
	<path class="st0" d="M307.1,55.9c-0.6,0-1.1-0.2-1.5-0.6c-0.8-0.8-0.8-2.2,0-3.1l3.7-3.7c0.8-0.8,2.2-0.8,3.1,0
		c0.8,0.8,0.8,2.2,0,3.1l-3.7,3.7C308.2,55.7,307.6,55.9,307.1,55.9z"/>
	<path class="st0" d="M310.8,77.4c-0.6,0-1.1-0.2-1.5-0.6l-3.7-3.7c-0.8-0.8-0.8-2.2,0-3.1c0.8-0.8,2.2-0.8,3.1,0l3.7,3.7
		c0.8,0.8,0.8,2.2,0,3.1C311.9,77.2,311.4,77.4,310.8,77.4z"/>
	<path class="st0" d="M285.5,77.4c-0.6,0-1.1-0.2-1.5-0.6c-0.8-0.8-0.8-2.2,0-3.1l3.7-3.7c0.8-0.8,2.2-0.8,3.1,0
		c0.8,0.8,0.8,2.2,0,3.1l-3.7,3.7C286.6,77.2,286.1,77.4,285.5,77.4z"/>
</g>
<g>
	<path class="st0" d="M39.6,10V114H29.1l0-70.2L24.8,114h-7.5L13,45.4l0,68.6H2.4V10H18c0.5,6.2,0.9,13.6,1.4,22.1l1.7,26.4L23.9,10
		H39.6z"/>
	<path class="st0" d="M64.3,10L71.2,114H58.8l-0.6-18.7h-4.3L53.2,114H40.7L46.8,10H64.3z M57.9,76.9c-0.6-11.8-1.2-26.3-1.8-43.7
		c-1.2,19.9-2,34.5-2.3,43.7H57.9z"/>
	<path class="st0" d="M100.9,10L94,57l7.6,57H89.1l-4.9-44.6V114H72.2V10h12.1v40.4L89.6,10H100.9z"/>
	<path class="st0" d="M102.7,10h20.1v20.8h-8v19.7h7.5v19.8h-7.5v22.9h8.8V114h-20.9V10z"/>
	<path class="st0" d="M126,10h8.5c5.7,0,9.5,0.5,11.6,1.5c2,1,3.7,3.5,4.9,7.5c1.3,4,1.9,10.5,1.9,19.4c0,8.1-0.4,13.5-1.3,16.3
		c-0.9,2.8-2.7,4.5-5.3,5c2.4,1.3,4,3.1,4.8,5.3c0.8,2.2,1.3,4.3,1.5,6.1c0.2,1.9,0.3,7,0.3,15.4V114h-11.2V79.4
		c0-5.6-0.2-9-0.6-10.3c-0.4-1.3-1.4-2-3.1-2V114H126V10z M138.1,27.8v23.1c1.4,0,2.3-0.4,2.8-1.3s0.8-3.5,0.8-8.1v-5.7
		c0-3.3-0.3-5.5-0.8-6.5C140.4,28.3,139.5,27.8,138.1,27.8z"/>
	<path class="st0" d="M194.6,10L188.5,114h-18.3l-7-103.9h12.7c1.5,28.6,2.5,52.9,3.2,72.7c0.6-20,1.3-37.8,2-53.3l0.8-19.3H194.6z"
		/>
	<path class="st0" d="M221.2,41.5H210v-7.7c0-3.6-0.1-5.9-0.4-6.9c-0.3-1-0.8-1.5-1.4-1.5c-0.7,0-1.3,0.7-1.6,2s-0.6,3.3-0.6,6
		c0,3.5,0.2,6.1,0.6,7.8c0.4,1.8,1.5,3.9,3.4,6.4c5.4,7.1,8.7,13,10.1,17.6c1.4,4.6,2.1,12,2.1,22.1c0,7.4-0.4,12.9-1.2,16.4
		c-0.8,3.5-2.3,6.5-4.5,8.8c-2.2,2.4-4.8,3.6-7.7,3.6c-3.2,0-6-1.4-8.3-4.1c-2.3-2.7-3.8-6.2-4.5-10.5c-0.7-4.2-1.1-10.2-1.1-18
		v-6.8h11.2v12.6c0,3.9,0.2,6.4,0.5,7.5c0.3,1.1,0.9,1.7,1.7,1.7c0.8,0,1.4-0.7,1.8-2.1c0.4-1.4,0.6-3.5,0.6-6.3
		c0-6.1-0.4-10.1-1.1-12c-0.8-1.9-2.6-5-5.6-9.4c-3-4.5-5-7.7-6-9.7c-1-2-1.8-4.8-2.4-8.3c-0.6-3.6-1-8.1-1-13.6
		c0-8,0.5-13.8,1.4-17.5c0.9-3.7,2.4-6.6,4.4-8.6c2-2.1,4.5-3.1,7.3-3.1c3.1,0,5.8,1.1,8,3.4c2.2,2.3,3.7,5.1,4.4,8.6
		c0.7,3.4,1.1,9.3,1.1,17.6V41.5z"/>
	<path class="st0" d="M232.3,92.8V114h-8.7V92.8H232.3z"/>
</g>
</svg>
