<svg width="2000" height="862" viewBox="0 0 2000 862" fill="none" xmlns="http://www.w3.org/2000/svg">
<rect x="261.632" y="227.101" width="17.4421" height="261.632" fill="white"/>
<rect x="335.084" y="308.942" width="17.4421" height="130.816" transform="rotate(90 335.084 308.942)" fill="white"/>
<path d="M704.451 497.308H722.273L811.384 711.778H789.031L761.24 644.718H664.88L637.391 711.778H614.736L704.451 497.308ZM756.407 628.104L713.211 522.077L669.411 628.104H756.407ZM888.389 714.799C876.105 714.799 864.122 712.785 852.442 708.757C840.762 704.73 830.693 698.89 822.235 691.237L831.599 677.342C840.46 684.592 849.422 690.029 858.484 693.654C867.747 697.279 877.615 699.091 888.087 699.091C900.774 699.091 910.843 696.574 918.294 691.539C925.946 686.303 929.773 678.953 929.773 669.488C929.773 665.058 928.766 661.433 926.752 658.614C924.738 655.593 921.717 652.975 917.69 650.76C913.863 648.545 908.93 646.631 902.888 645.02C897.048 643.208 890.201 641.395 882.347 639.583C873.285 637.368 865.431 635.153 858.786 632.937C852.14 630.722 846.602 628.205 842.172 625.386C837.943 622.566 834.721 619.143 832.506 615.115C830.492 610.886 829.485 605.65 829.485 599.408C829.485 591.554 830.995 584.606 834.016 578.565C837.238 572.523 841.467 567.589 846.703 563.763C852.14 559.736 858.383 556.715 865.431 554.701C872.681 552.687 880.334 551.68 888.389 551.68C900.472 551.68 911.447 553.694 921.315 557.722C931.182 561.548 939.137 566.683 945.178 573.127L935.21 585.21C929.37 579.169 922.221 574.638 913.763 571.617C905.506 568.596 896.847 567.086 887.785 567.086C882.347 567.086 877.313 567.69 872.681 568.898C868.049 569.905 863.921 571.617 860.296 574.034C856.873 576.45 854.154 579.572 852.14 583.398C850.126 587.023 849.12 591.352 849.12 596.387C849.12 600.616 849.824 604.039 851.234 606.657C852.644 609.275 854.96 611.591 858.182 613.605C861.404 615.417 865.431 617.129 870.265 618.74C875.299 620.15 881.341 621.66 888.389 623.271C898.458 625.688 907.319 628.104 914.971 630.521C922.624 632.937 928.967 635.757 934.002 638.979C939.237 642.201 943.164 646.128 945.782 650.76C948.4 655.391 949.709 661.03 949.709 667.676C949.709 682.175 944.171 693.654 933.095 702.112C922.019 710.57 907.117 714.799 888.389 714.799ZM1035.59 714.799C1023.31 714.799 1011.32 712.785 999.643 708.757C987.963 704.73 977.894 698.89 969.436 691.237L978.8 677.342C987.661 684.592 996.622 690.029 1005.68 693.654C1014.95 697.279 1024.82 699.091 1035.29 699.091C1047.97 699.091 1058.04 696.574 1065.49 691.539C1073.15 686.303 1076.97 678.953 1076.97 669.488C1076.97 665.058 1075.97 661.433 1073.95 658.614C1071.94 655.593 1068.92 652.975 1064.89 650.76C1061.06 648.545 1056.13 646.631 1050.09 645.02C1044.25 643.208 1037.4 641.395 1029.55 639.583C1020.49 637.368 1012.63 635.153 1005.99 632.937C999.341 630.722 993.803 628.205 989.373 625.386C985.144 622.566 981.922 619.143 979.706 615.115C977.693 610.886 976.686 605.65 976.686 599.408C976.686 591.554 978.196 584.606 981.217 578.565C984.439 572.523 988.668 567.589 993.904 563.763C999.341 559.736 1005.58 556.715 1012.63 554.701C1019.88 552.687 1027.53 551.68 1035.59 551.68C1047.67 551.68 1058.65 553.694 1068.52 557.722C1078.38 561.548 1086.34 566.683 1092.38 573.127L1082.41 585.21C1076.57 579.169 1069.42 574.638 1060.96 571.617C1052.71 568.596 1044.05 567.086 1034.99 567.086C1029.55 567.086 1024.51 567.69 1019.88 568.898C1015.25 569.905 1011.12 571.617 1007.5 574.034C1004.07 576.45 1001.35 579.572 999.341 583.398C997.327 587.023 996.32 591.352 996.32 596.387C996.32 600.616 997.025 604.039 998.435 606.657C999.844 609.275 1002.16 611.591 1005.38 613.605C1008.6 615.417 1012.63 617.129 1017.47 618.74C1022.5 620.15 1028.54 621.66 1035.59 623.271C1045.66 625.688 1054.52 628.104 1062.17 630.521C1069.82 632.937 1076.17 635.757 1081.2 638.979C1086.44 642.201 1090.37 646.128 1092.98 650.76C1095.6 655.391 1096.91 661.03 1096.91 667.676C1096.91 682.175 1091.37 693.654 1080.3 702.112C1069.22 710.57 1054.32 714.799 1035.59 714.799ZM1198.5 714.799C1187.02 714.799 1176.45 712.684 1166.78 708.455C1157.32 704.025 1149.06 698.084 1142.01 690.633C1134.96 682.981 1129.42 674.221 1125.4 664.353C1121.57 654.485 1119.66 643.913 1119.66 632.635C1119.66 621.559 1121.57 611.188 1125.4 601.522C1129.42 591.654 1134.86 583.096 1141.71 575.846C1148.76 568.395 1157.11 562.555 1166.78 558.326C1176.45 553.896 1186.92 551.68 1198.2 551.68C1209.67 551.68 1220.15 553.896 1229.61 558.326C1239.28 562.555 1247.53 568.395 1254.38 575.846C1261.23 583.297 1266.56 591.856 1270.39 601.522C1274.22 611.188 1276.13 621.459 1276.13 632.333C1276.13 633.944 1276.13 635.555 1276.13 637.166C1276.13 638.778 1276.03 639.885 1275.83 640.489H1141.1C1141.71 648.947 1143.62 656.801 1146.84 664.051C1150.27 671.099 1154.6 677.241 1159.83 682.477C1165.07 687.713 1171.01 691.841 1177.66 694.862C1184.5 697.681 1191.75 699.091 1199.4 699.091C1204.44 699.091 1209.47 698.386 1214.51 696.977C1219.54 695.567 1224.17 693.654 1228.4 691.237C1232.63 688.821 1236.46 685.901 1239.88 682.477C1243.31 678.852 1245.92 674.925 1247.74 670.696L1265.56 675.53C1263.14 681.37 1259.72 686.706 1255.29 691.539C1250.86 696.171 1245.72 700.299 1239.88 703.924C1234.04 707.348 1227.6 709.966 1220.55 711.778C1213.5 713.792 1206.15 714.799 1198.5 714.799ZM1256.5 624.782C1255.89 616.324 1253.88 608.671 1250.45 601.824C1247.23 594.776 1243 588.734 1237.77 583.7C1232.73 578.665 1226.79 574.738 1219.94 571.919C1213.3 569.1 1206.15 567.69 1198.5 567.69C1190.85 567.69 1183.6 569.1 1176.75 571.919C1169.9 574.738 1163.86 578.665 1158.62 583.7C1153.59 588.734 1149.46 594.776 1146.24 601.824C1143.22 608.872 1141.41 616.525 1140.8 624.782H1256.5ZM1541.93 711.778H1521.39V623.875C1521.39 605.55 1518.47 592.057 1512.63 583.398C1506.79 574.738 1498.13 570.409 1486.65 570.409C1480.61 570.409 1474.87 571.516 1469.43 573.732C1464.19 575.947 1459.26 579.068 1454.63 583.096C1450.2 587.123 1446.27 591.957 1442.85 597.595C1439.42 603.032 1436.81 609.074 1434.99 615.719V711.778H1414.45V623.875C1414.45 605.147 1411.63 591.554 1405.99 583.096C1400.36 574.638 1391.7 570.409 1380.02 570.409C1368.14 570.409 1357.56 574.537 1348.3 582.794C1339.04 591.05 1332.39 601.925 1328.36 615.417V711.778H1307.82V554.399H1326.55V590.043C1332.99 577.961 1341.45 568.596 1351.92 561.951C1362.4 555.104 1373.98 551.68 1386.66 551.68C1399.95 551.68 1410.53 555.406 1418.38 562.857C1426.44 570.308 1431.37 580.075 1433.18 592.158C1447.88 565.173 1468.12 551.68 1493.9 551.68C1502.76 551.68 1510.21 553.291 1516.25 556.513C1522.49 559.736 1527.43 564.367 1531.05 570.409C1534.88 576.249 1537.6 583.398 1539.21 591.856C1541.02 600.112 1541.93 609.376 1541.93 619.646V711.778ZM1662.44 714.799C1649.95 714.799 1638.47 711.677 1628 705.435C1617.73 699.192 1609.68 691.137 1603.83 681.269V711.778H1585.41V491.266H1605.95V587.325C1613 576.652 1621.46 568.093 1631.32 561.649C1641.19 555.003 1652.67 551.68 1665.76 551.68C1676.84 551.68 1686.7 553.996 1695.36 558.628C1704.22 563.26 1711.67 569.503 1717.72 577.356C1723.96 585.009 1728.69 593.769 1731.91 603.637C1735.34 613.303 1737.05 623.271 1737.05 633.542C1737.05 644.618 1735.14 655.089 1731.31 664.957C1727.48 674.825 1722.25 683.484 1715.6 690.935C1708.96 698.185 1701 704.025 1691.74 708.455C1682.68 712.684 1672.91 714.799 1662.44 714.799ZM1657.6 696.675C1666.26 696.675 1674.12 694.963 1681.17 691.539C1688.41 687.914 1694.56 683.182 1699.59 677.342C1704.83 671.301 1708.86 664.554 1711.67 657.103C1714.7 649.451 1716.21 641.597 1716.21 633.542C1716.21 625.285 1714.8 617.33 1711.98 609.678C1709.36 602.026 1705.53 595.279 1700.5 589.439C1695.66 583.398 1689.72 578.665 1682.68 575.242C1675.83 571.617 1668.28 569.805 1660.02 569.805C1653.78 569.805 1647.94 570.912 1642.5 573.127C1637.06 575.141 1632.03 577.961 1627.4 581.585C1622.76 585.21 1618.64 589.439 1615.01 594.272C1611.39 598.904 1608.37 603.838 1605.95 609.074V658.009C1606.75 663.447 1608.87 668.582 1612.29 673.415C1615.92 678.047 1620.15 682.074 1624.98 685.498C1630.01 688.921 1635.35 691.64 1640.99 693.654C1646.83 695.668 1652.37 696.675 1657.6 696.675ZM1772.75 491.266H1793.29V676.134C1793.29 681.974 1794.9 686.605 1798.12 690.029C1801.35 693.251 1805.88 694.862 1811.72 694.862C1813.93 694.862 1816.55 694.56 1819.57 693.956C1822.59 693.352 1825.41 692.546 1828.03 691.539L1831.65 708.153C1827.83 709.764 1823.09 711.073 1817.46 712.08C1812.02 713.087 1807.29 713.591 1803.26 713.591C1793.79 713.591 1786.34 710.973 1780.91 705.737C1775.47 700.299 1772.75 692.748 1772.75 683.081V491.266ZM1859.96 760.109C1861.57 760.311 1863.08 760.412 1864.49 760.412C1866.11 760.613 1867.62 760.714 1869.03 760.714C1872.65 760.714 1875.47 760.21 1877.48 759.203C1879.7 758.196 1881.81 755.981 1883.83 752.558C1885.84 749.134 1888.06 744.2 1890.47 737.756C1893.09 731.312 1896.71 722.653 1901.35 711.778L1832.78 554.399H1853.92L1912.22 692.748L1966.29 554.399H1985.93L1904.37 757.391C1902.15 763.231 1898.43 768.265 1893.19 772.494C1888.16 776.925 1881.21 779.14 1872.35 779.14C1870.33 779.14 1868.42 779.039 1866.61 778.838C1864.8 778.838 1862.58 778.636 1859.96 778.234V760.109Z" fill="white"/>
<path d="M737.842 171.696H761.338L796.936 261.405L832.891 171.696H856.742L812.6 279.56L861.014 393.832L952.503 169.916H979.558L872.406 422.667H850.334L797.292 297.716L743.894 422.667H722.179L615.383 169.916H642.082L733.927 393.832L781.985 279.56L737.842 171.696ZM1010.14 422.667V237.198H1034.34V422.667H1010.14ZM1010.14 198.395V162.796H1034.34V198.395H1010.14ZM1243.58 422.667H1219.38V319.075C1219.38 297.004 1216.05 280.984 1209.41 271.017C1203 261.049 1193.03 256.065 1179.51 256.065C1172.39 256.065 1165.27 257.37 1158.15 259.981C1151.03 262.592 1144.38 266.27 1138.21 271.017C1132.28 275.763 1126.94 281.459 1122.19 288.104C1117.45 294.512 1114 301.513 1111.87 309.107V422.667H1087.66V237.198H1109.73V279.204C1117.33 265.677 1128.12 254.76 1142.13 246.453C1156.37 238.147 1171.79 233.994 1188.41 233.994C1198.61 233.994 1207.27 235.892 1214.39 239.69C1221.51 243.487 1227.21 248.827 1231.48 255.709C1235.75 262.591 1238.84 271.017 1240.74 280.984C1242.63 290.952 1243.58 301.987 1243.58 314.091V422.667ZM1356.79 426.227C1342.31 426.227 1328.19 423.854 1314.43 419.107C1300.66 414.361 1288.8 407.478 1278.83 398.46L1289.86 382.084C1300.31 390.628 1310.87 397.036 1321.55 401.308C1332.46 405.58 1344.09 407.716 1356.43 407.716C1371.39 407.716 1383.25 404.749 1392.03 398.816C1401.05 392.645 1405.56 383.983 1405.56 372.829C1405.56 367.608 1404.37 363.336 1402 360.013C1399.63 356.453 1396.07 353.368 1391.32 350.758C1386.81 348.147 1381 345.892 1373.88 343.994C1366.99 341.858 1358.93 339.722 1349.67 337.586C1338.99 334.976 1329.73 332.365 1321.9 329.754C1314.07 327.144 1307.54 324.177 1302.32 320.855C1297.34 317.532 1293.54 313.498 1290.93 308.751C1288.56 303.767 1287.37 297.597 1287.37 290.24C1287.37 280.984 1289.15 272.796 1292.71 265.677C1296.51 258.557 1301.49 252.743 1307.66 248.233C1314.07 243.487 1321.43 239.927 1329.73 237.554C1338.28 235.18 1347.3 233.994 1356.79 233.994C1371.03 233.994 1383.96 236.367 1395.59 241.114C1407.22 245.623 1416.6 251.675 1423.72 259.269L1411.97 273.508C1405.09 266.389 1396.66 261.049 1386.69 257.489C1376.96 253.929 1366.76 252.149 1356.08 252.149C1349.67 252.149 1343.74 252.861 1338.28 254.285C1332.82 255.472 1327.95 257.489 1323.68 260.337C1319.65 263.185 1316.44 266.863 1314.07 271.373C1311.7 275.644 1310.51 280.747 1310.51 286.68C1310.51 291.664 1311.34 295.698 1313 298.784C1314.66 301.869 1317.39 304.598 1321.19 306.971C1324.99 309.107 1329.73 311.124 1335.43 313.023C1341.36 314.684 1348.48 316.464 1356.79 318.363C1368.66 321.211 1379.1 324.059 1388.12 326.906C1397.13 329.754 1404.61 333.077 1410.54 336.874C1416.71 340.671 1421.34 345.299 1424.43 350.758C1427.51 356.216 1429.06 362.861 1429.06 370.693C1429.06 387.78 1422.53 401.308 1409.48 411.275C1396.42 421.243 1378.86 426.227 1356.79 426.227ZM1557.67 413.767C1556.25 414.479 1554.12 415.429 1551.27 416.615C1548.66 417.802 1545.57 418.988 1542.01 420.175C1538.45 421.362 1534.42 422.43 1529.91 423.379C1525.4 424.328 1520.65 424.803 1515.67 424.803C1510.45 424.803 1505.46 424.091 1500.72 422.667C1495.97 421.243 1491.82 419.107 1488.26 416.259C1484.7 413.174 1481.85 409.377 1479.71 404.868C1477.58 400.358 1476.51 395.137 1476.51 389.204V256.421H1450.88V237.198H1476.51V174.544H1500.72V237.198H1543.44V256.421H1500.72V382.44C1501.19 389.323 1503.56 394.425 1507.84 397.748C1512.35 400.833 1517.45 402.376 1523.14 402.376C1530.03 402.376 1536.08 401.308 1541.3 399.172C1546.52 396.799 1549.84 395.137 1551.27 394.188L1557.67 413.767ZM1662.43 426.227C1648.9 426.227 1636.56 423.735 1625.41 418.751C1614.25 413.53 1604.52 406.529 1596.22 397.748C1588.15 388.967 1581.86 378.762 1577.35 367.133C1572.84 355.504 1570.59 343.282 1570.59 330.466C1570.59 317.413 1572.84 305.073 1577.35 293.444C1582.1 281.815 1588.5 271.61 1596.57 262.829C1604.88 254.048 1614.61 247.047 1625.76 241.826C1636.92 236.604 1649.14 233.994 1662.43 233.994C1675.72 233.994 1687.94 236.604 1699.1 241.826C1710.49 247.047 1720.22 254.048 1728.29 262.829C1736.59 271.61 1743 281.815 1747.51 293.444C1752.26 305.073 1754.63 317.413 1754.63 330.466C1754.63 343.282 1752.38 355.504 1747.87 367.133C1743.36 378.762 1736.95 388.967 1728.64 397.748C1720.57 406.529 1710.84 413.53 1699.45 418.751C1688.3 423.735 1675.96 426.227 1662.43 426.227ZM1595.15 330.822C1595.15 341.265 1596.93 350.995 1600.49 360.013C1604.05 368.794 1608.79 376.626 1614.73 383.508C1620.9 390.154 1628.02 395.375 1636.09 399.172C1644.39 402.969 1653.17 404.868 1662.43 404.868C1671.69 404.868 1680.35 402.969 1688.42 399.172C1696.72 395.137 1703.96 389.798 1710.13 383.152C1716.3 376.27 1721.17 368.32 1724.73 359.301C1728.29 350.283 1730.07 340.553 1730.07 330.11C1730.07 319.905 1728.29 310.294 1724.73 301.275C1721.17 292.02 1716.3 284.069 1710.13 277.424C1703.96 270.542 1696.72 265.202 1688.42 261.405C1680.35 257.37 1671.69 255.353 1662.43 255.353C1653.17 255.353 1644.51 257.37 1636.44 261.405C1628.37 265.202 1621.25 270.542 1615.08 277.424C1608.91 284.307 1604.05 292.376 1600.49 301.631C1596.93 310.65 1595.15 320.38 1595.15 330.822ZM1951.04 422.667H1926.83V319.075C1926.83 297.004 1923.51 280.984 1916.86 271.017C1910.46 261.049 1900.49 256.065 1886.96 256.065C1879.84 256.065 1872.72 257.37 1865.6 259.981C1858.48 262.592 1851.84 266.27 1845.67 271.017C1839.73 275.763 1834.39 281.459 1829.65 288.104C1824.9 294.512 1821.46 301.513 1819.32 309.107V422.667H1795.12V237.198H1817.19V279.204C1824.78 265.677 1835.58 254.76 1849.58 246.453C1863.82 238.147 1879.25 233.994 1895.86 233.994C1906.06 233.994 1914.73 235.892 1921.85 239.69C1928.97 243.487 1934.66 248.827 1938.93 255.709C1943.21 262.591 1946.29 271.017 1948.19 280.984C1950.09 290.952 1951.04 301.987 1951.04 314.091V422.667Z" fill="white"/>
<path d="M527.271 444.738C527.271 586.525 411.946 701.527 269.61 701.527C127.274 701.527 11.9492 586.525 11.9492 444.738C11.9492 302.951 127.274 187.949 269.61 187.949C411.946 187.949 527.271 302.951 527.271 444.738Z" stroke="white" stroke-width="21.8984"/>
<path d="M16.5585 531.233C35.0638 527.135 77.6259 518.94 99.8323 518.94C127.59 518.94 144.939 494.353 202.19 506.646C259.44 518.94 288.933 510.159 384.351 562.845C460.686 604.994 475.143 606.164 472.83 601.481" stroke="white" stroke-width="21.4941"/>
<path d="M91.2809 633.811C168.239 635.319 282.1 642.313 121.879 658.23" stroke="white" stroke-width="21.8984"/>
<path d="M87.5134 629.022C217.509 626.369 458.52 632.028 382.593 675.882" stroke="white" stroke-width="21.8984"/>
<path d="M321.937 532.062C346.065 518.109 398.508 490.724 415.252 492.817C436.183 495.434 455.37 509.388 478.044 503.283C500.719 497.178 499.847 492.817 527.755 492.817" stroke="white" stroke-width="21.8984"/>
</svg>
