<svg width="360" height="120" viewBox="0 0 360 120" fill="none" xmlns="http://www.w3.org/2000/svg">
<path d="M95.9141 58.6521C95.9141 84.8322 74.6211 106.06 48.3495 106.06C22.0779 106.06 0.784895 84.8322 0.784895 58.6521C0.784895 32.472 22.0779 11.2445 48.3495 11.2445C74.6211 11.2445 95.9141 32.472 95.9141 58.6521Z" stroke="white" stroke-width="1.56979"/>
<path d="M2.82564 74.193C6.17452 73.4605 13.877 71.9953 17.8956 71.9953C22.9189 71.9953 26.0585 67.5999 36.4191 69.7976C46.7797 71.9953 52.117 70.4255 69.3847 79.8443C83.1989 87.3793 85.8152 87.5886 85.3966 86.7513" stroke="white" stroke-width="0.941874"/>
<path d="M15.3839 92.7166C29.2363 92.9879 49.7311 94.2468 20.8915 97.112" stroke="white" stroke-width="0.941874"/>
<path d="M14.756 91.8834C39.1467 91.3564 84.3664 92.4806 70.1206 101.193" stroke="white" stroke-width="0.941874"/>
<path d="M57.7682 74.3705C62.1113 71.8588 71.5509 66.9297 74.5649 67.3064C78.3324 67.7773 81.786 70.289 85.8674 69.1902C89.9489 68.0913 89.7919 67.3064 94.8152 67.3064" stroke="white" stroke-width="0.941874"/>
<rect x="47.0937" y="19.8783" width="3.13958" height="47.0937" fill="white"/>
<rect x="60.315" y="34.6099" width="3.13958" height="23.5468" transform="rotate(90 60.315 34.6099)" fill="white"/>
<path d="M126.801 68.3953H130.009L146.049 107H142.026L137.023 94.9292H119.678L114.73 107H110.652L126.801 68.3953ZM136.153 91.9387L128.378 72.8539L120.494 91.9387H136.153ZM159.91 107.544C157.699 107.544 155.542 107.181 153.44 106.456C151.337 105.731 149.525 104.68 148.002 103.303L149.688 100.801C151.283 102.106 152.896 103.085 154.527 103.738C156.195 104.39 157.971 104.716 159.856 104.716C162.139 104.716 163.952 104.263 165.293 103.357C166.67 102.415 167.359 101.091 167.359 99.3878C167.359 98.5903 167.178 97.9379 166.815 97.4304C166.453 96.8867 165.909 96.4154 165.184 96.0167C164.495 95.618 163.607 95.2736 162.52 94.9836C161.469 94.6574 160.236 94.3311 158.823 94.0049C157.191 93.6062 155.778 93.2074 154.581 92.8087C153.385 92.41 152.388 91.9569 151.591 91.4494C150.83 90.9419 150.25 90.3257 149.851 89.6007C149.489 88.8395 149.307 87.897 149.307 86.7733C149.307 85.3596 149.579 84.109 150.123 83.0216C150.703 81.9341 151.464 81.046 152.407 80.3573C153.385 79.6324 154.509 79.0886 155.778 78.7261C157.083 78.3637 158.46 78.1824 159.91 78.1824C162.085 78.1824 164.06 78.5449 165.837 79.2699C167.613 79.9586 169.045 80.8829 170.132 82.0429L168.338 84.2178C167.287 83.1303 166 82.3147 164.477 81.771C162.991 81.2273 161.432 80.9554 159.801 80.9554C158.823 80.9554 157.916 81.0642 157.083 81.2817C156.249 81.4629 155.506 81.771 154.853 82.206C154.237 82.641 153.748 83.2028 153.385 83.8916C153.023 84.544 152.842 85.3234 152.842 86.2296C152.842 86.9908 152.968 87.607 153.222 88.0783C153.476 88.5495 153.893 88.9664 154.473 89.3288C155.053 89.6551 155.778 89.9632 156.648 90.2532C157.554 90.5069 158.641 90.7788 159.91 91.0688C161.722 91.5037 163.317 91.9387 164.695 92.3737C166.072 92.8087 167.214 93.3162 168.12 93.8962C169.063 94.4761 169.77 95.183 170.241 96.0167C170.712 96.8504 170.948 97.8654 170.948 99.0616C170.948 101.671 169.951 103.738 167.957 105.26C165.963 106.783 163.281 107.544 159.91 107.544ZM186.406 107.544C184.195 107.544 182.038 107.181 179.936 106.456C177.833 105.731 176.021 104.68 174.498 103.303L176.184 100.801C177.779 102.106 179.392 103.085 181.023 103.738C182.691 104.39 184.467 104.716 186.352 104.716C188.635 104.716 190.448 104.263 191.789 103.357C193.166 102.415 193.855 101.091 193.855 99.3878C193.855 98.5903 193.674 97.9379 193.311 97.4304C192.949 96.8867 192.405 96.4154 191.68 96.0167C190.992 95.618 190.103 95.2736 189.016 94.9836C187.965 94.6574 186.732 94.3311 185.319 94.0049C183.687 93.6062 182.274 93.2074 181.078 92.8087C179.881 92.41 178.885 91.9569 178.087 91.4494C177.326 90.9419 176.746 90.3257 176.347 89.6007C175.985 88.8395 175.803 87.897 175.803 86.7733C175.803 85.3596 176.075 84.109 176.619 83.0216C177.199 81.9341 177.96 81.046 178.903 80.3573C179.881 79.6324 181.005 79.0886 182.274 78.7261C183.579 78.3637 184.956 78.1824 186.406 78.1824C188.581 78.1824 190.557 78.5449 192.333 79.2699C194.109 79.9586 195.541 80.8829 196.628 82.0429L194.834 84.2178C193.783 83.1303 192.496 82.3147 190.973 81.771C189.487 81.2273 187.929 80.9554 186.297 80.9554C185.319 80.9554 184.412 81.0642 183.579 81.2817C182.745 81.4629 182.002 81.771 181.349 82.206C180.733 82.641 180.244 83.2028 179.881 83.8916C179.519 84.544 179.338 85.3234 179.338 86.2296C179.338 86.9908 179.465 87.607 179.718 88.0783C179.972 88.5495 180.389 88.9664 180.969 89.3288C181.549 89.6551 182.274 89.9632 183.144 90.2532C184.05 90.5069 185.137 90.7788 186.406 91.0688C188.219 91.5037 189.813 91.9387 191.191 92.3737C192.568 92.8087 193.71 93.3162 194.616 93.8962C195.559 94.4761 196.266 95.183 196.737 96.0167C197.208 96.8504 197.444 97.8654 197.444 99.0616C197.444 101.671 196.447 103.738 194.453 105.26C192.46 106.783 189.777 107.544 186.406 107.544ZM215.73 107.544C213.663 107.544 211.76 107.163 210.02 106.402C208.317 105.604 206.831 104.535 205.562 103.194C204.293 101.816 203.296 100.24 202.571 98.4635C201.883 96.6873 201.538 94.7842 201.538 92.7543C201.538 90.7607 201.883 88.8939 202.571 87.1539C203.296 85.3777 204.275 83.8372 205.508 82.5322C206.776 81.191 208.281 80.1398 210.02 79.3786C211.76 78.5811 213.645 78.1824 215.675 78.1824C217.741 78.1824 219.626 78.5811 221.33 79.3786C223.07 80.1398 224.556 81.191 225.789 82.5322C227.021 83.8734 227.982 85.414 228.67 87.1539C229.359 88.8939 229.703 90.7425 229.703 92.7C229.703 92.9899 229.703 93.2799 229.703 93.5699C229.703 93.8599 229.685 94.0593 229.649 94.168H205.399C205.508 95.6905 205.852 97.1041 206.432 98.4091C207.048 99.6778 207.827 100.783 208.77 101.726C209.712 102.668 210.782 103.411 211.978 103.955C213.21 104.463 214.515 104.716 215.893 104.716C216.799 104.716 217.705 104.589 218.611 104.336C219.518 104.082 220.351 103.738 221.113 103.303C221.874 102.868 222.562 102.342 223.179 101.726C223.795 101.073 224.266 100.367 224.592 99.6053L227.8 100.475C227.365 101.526 226.749 102.487 225.952 103.357C225.154 104.191 224.23 104.934 223.179 105.586C222.127 106.203 220.968 106.674 219.699 107C218.43 107.362 217.107 107.544 215.73 107.544ZM226.169 91.3406C226.06 89.8182 225.698 88.4407 225.082 87.2083C224.502 85.9396 223.741 84.8521 222.798 83.9459C221.892 83.0397 220.823 82.3329 219.59 81.8254C218.394 81.3179 217.107 81.0642 215.73 81.0642C214.352 81.0642 213.047 81.3179 211.815 81.8254C210.582 82.3329 209.495 83.0397 208.552 83.9459C207.646 84.8521 206.903 85.9396 206.323 87.2083C205.779 88.477 205.453 89.8544 205.344 91.3406H226.169ZM277.547 107H273.849V91.1775C273.849 87.8789 273.324 85.4502 272.273 83.8916C271.221 82.3329 269.663 81.5535 267.597 81.5535C266.509 81.5535 265.476 81.7529 264.497 82.1516C263.555 82.5504 262.667 83.1122 261.833 83.8372C261.036 84.5622 260.329 85.4321 259.713 86.4471C259.096 87.4258 258.625 88.5132 258.299 89.7094V107H254.602V91.1775C254.602 87.8064 254.094 85.3596 253.079 83.8372C252.064 82.3147 250.505 81.5535 248.403 81.5535C246.264 81.5535 244.361 82.2966 242.694 83.7828C241.026 85.269 239.83 87.2264 239.105 89.6551V107H235.408V78.6718H238.779V85.0878C239.939 82.9128 241.461 81.2273 243.346 80.0311C245.231 78.7986 247.316 78.1824 249.599 78.1824C251.992 78.1824 253.895 78.853 255.308 80.1942C256.758 81.5354 257.646 83.2935 257.973 85.4684C260.619 80.6111 264.262 78.1824 268.902 78.1824C270.497 78.1824 271.838 78.4724 272.925 79.0524C274.049 79.6324 274.937 80.4661 275.589 81.5535C276.278 82.6047 276.768 83.8916 277.057 85.414C277.384 86.9002 277.547 88.5676 277.547 90.4163V107ZM299.239 107.544C296.991 107.544 294.925 106.982 293.04 105.858C291.191 104.734 289.742 103.285 288.69 101.508V107H285.374V67.3078H289.071V84.5984C290.34 82.6772 291.862 81.1367 293.638 79.9767C295.414 78.7805 297.481 78.1824 299.837 78.1824C301.83 78.1824 303.607 78.5993 305.165 79.433C306.76 80.2667 308.101 81.3904 309.189 82.8041C310.313 84.1815 311.164 85.7584 311.744 87.5345C312.361 89.2745 312.669 91.0688 312.669 92.9174C312.669 94.9111 312.324 96.796 311.636 98.5722C310.947 100.348 310.004 101.907 308.808 103.248C307.612 104.553 306.18 105.604 304.513 106.402C302.882 107.163 301.124 107.544 299.239 107.544ZM298.369 104.281C299.927 104.281 301.341 103.973 302.61 103.357C303.915 102.705 305.02 101.853 305.926 100.801C306.869 99.714 307.594 98.4997 308.101 97.1585C308.645 95.7811 308.917 94.3674 308.917 92.9174C308.917 91.4313 308.663 89.9994 308.156 88.622C307.685 87.2445 306.996 86.0302 306.09 84.979C305.22 83.8916 304.15 83.0397 302.882 82.4235C301.649 81.771 300.29 81.4448 298.804 81.4448C297.68 81.4448 296.629 81.6441 295.65 82.0429C294.671 82.4054 293.765 82.9128 292.931 83.5653C292.098 84.2178 291.355 84.979 290.702 85.849C290.05 86.6827 289.506 87.5708 289.071 88.5132V97.3216C289.216 98.3003 289.597 99.2247 290.213 100.095C290.865 100.928 291.626 101.653 292.496 102.27C293.403 102.886 294.363 103.375 295.378 103.738C296.429 104.1 297.426 104.281 298.369 104.281ZM319.095 67.3078H322.792V100.584C322.792 101.635 323.082 102.469 323.662 103.085C324.242 103.665 325.058 103.955 326.109 103.955C326.508 103.955 326.979 103.901 327.523 103.792C328.066 103.683 328.574 103.538 329.045 103.357L329.698 106.348C329.009 106.638 328.157 106.873 327.142 107.054C326.163 107.236 325.312 107.326 324.587 107.326C322.883 107.326 321.542 106.855 320.563 105.913C319.584 104.934 319.095 103.575 319.095 101.835V67.3078ZM334.793 115.7C335.083 115.736 335.355 115.754 335.609 115.754C335.899 115.79 336.171 115.808 336.425 115.808C337.077 115.808 337.584 115.718 337.947 115.537C338.346 115.355 338.726 114.957 339.089 114.34C339.451 113.724 339.85 112.836 340.285 111.676C340.756 110.516 341.409 108.957 342.242 107L329.9 78.6718H333.706L344.2 103.575L353.933 78.6718H357.467L342.786 115.21C342.387 116.262 341.717 117.168 340.774 117.929C339.868 118.726 338.618 119.125 337.023 119.125C336.66 119.125 336.316 119.107 335.99 119.071C335.663 119.071 335.265 119.035 334.793 118.962V115.7Z" fill="white"/>
<path d="M132.812 9.82524H137.041L143.449 25.9728L149.92 9.82524H154.214L146.268 29.2408L154.983 49.8097L171.45 9.50485H176.32L157.033 55H153.06L143.513 32.5087L133.901 55H129.992L110.769 9.50485H115.575L132.107 49.8097L140.757 29.2408L132.812 9.82524ZM181.825 55V21.6155H186.182V55H181.825ZM181.825 14.6311V8.2233H186.182V14.6311H181.825ZM223.845 55H219.488V36.3534C219.488 32.3806 218.89 29.4971 217.694 27.7029C216.54 25.9087 214.746 25.0117 212.311 25.0117C211.029 25.0117 209.748 25.2466 208.466 25.7165C207.185 26.1864 205.989 26.8485 204.878 27.7029C203.81 28.5573 202.849 29.5825 201.995 30.7786C201.14 31.932 200.521 33.1922 200.136 34.5592V55H195.779V21.6155H199.752V29.1767C201.119 26.7417 203.062 24.7767 205.583 23.2816C208.146 21.7864 210.923 21.0388 213.913 21.0388C215.75 21.0388 217.309 21.3806 218.591 22.0641C219.872 22.7476 220.897 23.7087 221.666 24.9476C222.435 26.1864 222.991 27.7029 223.332 29.4971C223.674 31.2913 223.845 33.2777 223.845 35.4563V55ZM244.222 55.6408C241.616 55.6408 239.075 55.2136 236.597 54.3592C234.119 53.5049 231.983 52.266 230.189 50.6427L232.176 47.6951C234.055 49.233 235.956 50.3864 237.878 51.1553C239.844 51.9243 241.937 52.3087 244.158 52.3087C246.849 52.3087 248.985 51.7748 250.566 50.7068C252.189 49.5961 253.001 48.0369 253.001 46.0291C253.001 45.0893 252.787 44.3204 252.36 43.7223C251.933 43.0816 251.292 42.5262 250.438 42.0563C249.626 41.5864 248.579 41.1806 247.298 40.8388C246.059 40.4544 244.607 40.0699 242.941 39.6854C241.018 39.2155 239.352 38.7456 237.943 38.2757C236.533 37.8058 235.358 37.2718 234.418 36.6738C233.521 36.0757 232.838 35.3495 232.368 34.4951C231.941 33.5981 231.727 32.4874 231.727 31.1631C231.727 29.4971 232.047 28.0233 232.688 26.7417C233.372 25.4602 234.269 24.4136 235.379 23.6019C236.533 22.7476 237.857 22.1068 239.352 21.6796C240.89 21.2524 242.513 21.0388 244.222 21.0388C246.785 21.0388 249.113 21.466 251.207 22.3204C253.3 23.132 254.987 24.2214 256.269 25.5883L254.154 28.1515C252.915 26.8699 251.399 25.9087 249.605 25.268C247.853 24.6272 246.016 24.3068 244.094 24.3068C242.941 24.3068 241.873 24.435 240.89 24.6913C239.908 24.9049 239.032 25.268 238.263 25.7806C237.537 26.2932 236.96 26.9553 236.533 27.767C236.106 28.5359 235.892 29.4544 235.892 30.5223C235.892 31.4194 236.042 32.1456 236.341 32.701C236.64 33.2563 237.131 33.7476 237.814 34.1748C238.498 34.5592 239.352 34.9223 240.378 35.2641C241.445 35.5631 242.727 35.8835 244.222 36.2252C246.358 36.7379 248.238 37.2505 249.861 37.7631C251.484 38.2757 252.83 38.8738 253.898 39.5573C255.009 40.2408 255.842 41.0738 256.397 42.0563C256.952 43.0388 257.23 44.235 257.23 45.6447C257.23 48.7204 256.055 51.1553 253.706 52.9495C251.356 54.7437 248.195 55.6408 244.222 55.6408ZM280.382 53.3981C280.125 53.5262 279.741 53.6971 279.228 53.9107C278.758 54.1243 278.203 54.3379 277.562 54.5515C276.921 54.765 276.195 54.9573 275.383 55.1282C274.572 55.299 273.717 55.3845 272.82 55.3845C271.881 55.3845 270.983 55.2563 270.129 55C269.275 54.7437 268.527 54.3592 267.886 53.8466C267.246 53.2913 266.733 52.6078 266.349 51.7961C265.964 50.9845 265.772 50.0447 265.772 48.9767V25.0757H261.158V21.6155H265.772V10.3379H270.129V21.6155H277.818V25.0757H270.129V47.7592C270.215 48.9981 270.642 49.9165 271.411 50.5146C272.222 51.0699 273.141 51.3476 274.166 51.3476C275.405 51.3476 276.494 51.1553 277.434 50.7709C278.374 50.3437 278.972 50.0447 279.228 49.8738L280.382 53.3981ZM299.237 55.6408C296.802 55.6408 294.581 55.1922 292.573 54.2951C290.566 53.3553 288.814 52.0951 287.319 50.5146C285.866 48.934 284.734 47.0971 283.923 45.0039C283.111 42.9107 282.705 40.7107 282.705 38.4039C282.705 36.0544 283.111 33.833 283.923 31.7398C284.777 29.6466 285.931 27.8097 287.383 26.2291C288.878 24.6485 290.63 23.3883 292.637 22.4485C294.645 21.5087 296.845 21.0388 299.237 21.0388C301.63 21.0388 303.83 21.5087 305.837 22.4485C307.888 23.3883 309.639 24.6485 311.092 26.2291C312.587 27.8097 313.74 29.6466 314.552 31.7398C315.406 33.833 315.833 36.0544 315.833 38.4039C315.833 40.7107 315.428 42.9107 314.616 45.0039C313.804 47.0971 312.651 48.934 311.156 50.5146C309.703 52.0951 307.952 53.3553 305.901 54.2951C303.894 55.1922 301.672 55.6408 299.237 55.6408ZM287.127 38.468C287.127 40.3476 287.447 42.099 288.088 43.7223C288.729 45.3029 289.583 46.7126 290.651 47.9515C291.762 49.1476 293.043 50.0874 294.496 50.7709C295.991 51.4544 297.571 51.7961 299.237 51.7961C300.903 51.7961 302.463 51.4544 303.915 50.7709C305.41 50.0447 306.713 49.0835 307.824 47.8874C308.934 46.6485 309.81 45.2175 310.451 43.5942C311.092 41.9709 311.412 40.2194 311.412 38.3398C311.412 36.5029 311.092 34.7728 310.451 33.1495C309.81 31.4835 308.934 30.0524 307.824 28.8563C306.713 27.6175 305.41 26.6563 303.915 25.9728C302.463 25.2466 300.903 24.8835 299.237 24.8835C297.571 24.8835 296.012 25.2466 294.56 25.9728C293.107 26.6563 291.826 27.6175 290.715 28.8563C289.604 30.0951 288.729 31.5476 288.088 33.2136C287.447 34.8369 287.127 36.5883 287.127 38.468ZM351.187 55H346.83V36.3534C346.83 32.3806 346.231 29.4971 345.035 27.7029C343.882 25.9087 342.088 25.0117 339.653 25.0117C338.371 25.0117 337.09 25.2466 335.808 25.7165C334.527 26.1864 333.331 26.8485 332.22 27.7029C331.152 28.5573 330.191 29.5825 329.336 30.7786C328.482 31.932 327.863 33.1922 327.478 34.5592V55H323.121V21.6155H327.094V29.1767C328.461 26.7417 330.404 24.7767 332.925 23.2816C335.488 21.7864 338.265 21.0388 341.255 21.0388C343.092 21.0388 344.651 21.3806 345.932 22.0641C347.214 22.7476 348.239 23.7087 349.008 24.9476C349.777 26.1864 350.332 27.7029 350.674 29.4971C351.016 31.2913 351.187 33.2777 351.187 35.4563V55Z" fill="white"/>
</svg>
