<svg width="360" height="155" viewBox="0 0 360 155" fill="none" xmlns="http://www.w3.org/2000/svg">
<g clip-path="url(#clip0)">
<rect width="360" height="155" fill="white"/>
<g filter="url(#filter0_d)">
<path d="M95.9141 79.6521C95.9141 105.832 74.6211 127.06 48.3495 127.06C22.0779 127.06 0.784895 105.832 0.784895 79.6521C0.784895 53.472 22.0779 32.2445 48.3495 32.2445C74.6211 32.2445 95.9141 53.472 95.9141 79.6521Z" stroke="black" stroke-width="1.56979"/>
</g>
<path d="M2.82564 95.193C6.17452 94.4605 13.877 92.9953 17.8956 92.9953C22.9189 92.9953 26.0585 88.5999 36.4191 90.7976C46.7797 92.9953 52.117 91.4255 69.3847 100.844C83.1989 108.379 85.8152 108.589 85.3966 107.751" stroke="black" stroke-width="0.941874"/>
<path d="M15.3839 113.717C29.2363 113.988 49.7311 115.247 20.8915 118.112" stroke="black" stroke-width="0.941874"/>
<path d="M14.756 112.883C39.1467 112.356 84.3664 113.481 70.1206 122.193" stroke="black" stroke-width="0.941874"/>
<path d="M57.7682 95.3705C62.1113 92.8588 71.551 87.9297 74.565 88.3064C78.3324 88.7773 81.786 91.289 85.8674 90.1902C89.9489 89.0913 89.7919 88.3064 94.8152 88.3064" stroke="black" stroke-width="0.941874"/>
<rect x="47.0937" y="40.8783" width="3.13958" height="47.0937" fill="black"/>
<rect x="60.315" y="55.6099" width="3.13958" height="23.5468" transform="rotate(90 60.315 55.6099)" fill="black"/>
<path d="M126.316 88.9778H129.524L145.564 127.583H141.54L136.538 115.512H119.193L114.245 127.583H110.167L126.316 88.9778ZM135.668 112.521L127.893 93.4364L120.008 112.521H135.668ZM159.425 128.126C157.213 128.126 155.057 127.764 152.954 127.039C150.852 126.314 149.039 125.263 147.517 123.885L149.202 121.384C150.797 122.689 152.41 123.668 154.042 124.32C155.709 124.973 157.485 125.299 159.37 125.299C161.654 125.299 163.466 124.846 164.807 123.94C166.185 122.997 166.874 121.674 166.874 119.97C166.874 119.173 166.692 118.52 166.33 118.013C165.967 117.469 165.424 116.998 164.699 116.599C164.01 116.2 163.122 115.856 162.034 115.566C160.983 115.24 159.751 114.914 158.337 114.587C156.706 114.189 155.292 113.79 154.096 113.391C152.9 112.992 151.903 112.539 151.105 112.032C150.344 111.524 149.764 110.908 149.366 110.183C149.003 109.422 148.822 108.48 148.822 107.356C148.822 105.942 149.094 104.692 149.637 103.604C150.217 102.517 150.979 101.629 151.921 100.94C152.9 100.215 154.023 99.6711 155.292 99.3087C156.597 98.9462 157.975 98.7649 159.425 98.7649C161.599 98.7649 163.575 99.1274 165.351 99.8524C167.127 100.541 168.559 101.465 169.647 102.625L167.852 104.8C166.801 103.713 165.514 102.897 163.992 102.354C162.506 101.81 160.947 101.538 159.316 101.538C158.337 101.538 157.431 101.647 156.597 101.864C155.763 102.045 155.02 102.354 154.368 102.789C153.752 103.223 153.262 103.785 152.9 104.474C152.537 105.127 152.356 105.906 152.356 106.812C152.356 107.573 152.483 108.19 152.737 108.661C152.99 109.132 153.407 109.549 153.987 109.911C154.567 110.238 155.292 110.546 156.162 110.836C157.068 111.089 158.156 111.361 159.425 111.651C161.237 112.086 162.832 112.521 164.209 112.956C165.587 113.391 166.729 113.899 167.635 114.479C168.577 115.059 169.284 115.765 169.755 116.599C170.227 117.433 170.462 118.448 170.462 119.644C170.462 122.254 169.465 124.32 167.472 125.843C165.478 127.365 162.796 128.126 159.425 128.126ZM185.921 128.126C183.709 128.126 181.553 127.764 179.45 127.039C177.348 126.314 175.535 125.263 174.013 123.885L175.699 121.384C177.294 122.689 178.907 123.668 180.538 124.32C182.205 124.973 183.981 125.299 185.866 125.299C188.15 125.299 189.962 124.846 191.304 123.94C192.681 122.997 193.37 121.674 193.37 119.97C193.37 119.173 193.188 118.52 192.826 118.013C192.464 117.469 191.92 116.998 191.195 116.599C190.506 116.2 189.618 115.856 188.531 115.566C187.479 115.24 186.247 114.914 184.833 114.587C183.202 114.189 181.788 113.79 180.592 113.391C179.396 112.992 178.399 112.539 177.602 112.032C176.84 111.524 176.26 110.908 175.862 110.183C175.499 109.422 175.318 108.48 175.318 107.356C175.318 105.942 175.59 104.692 176.134 103.604C176.714 102.517 177.475 101.629 178.417 100.94C179.396 100.215 180.52 99.6711 181.788 99.3087C183.093 98.9462 184.471 98.7649 185.921 98.7649C188.096 98.7649 190.071 99.1274 191.847 99.8524C193.623 100.541 195.055 101.465 196.143 102.625L194.348 104.8C193.297 103.713 192.01 102.897 190.488 102.354C189.002 101.81 187.443 101.538 185.812 101.538C184.833 101.538 183.927 101.647 183.093 101.864C182.26 102.045 181.516 102.354 180.864 102.789C180.248 103.223 179.758 103.785 179.396 104.474C179.033 105.127 178.852 105.906 178.852 106.812C178.852 107.573 178.979 108.19 179.233 108.661C179.487 109.132 179.903 109.549 180.483 109.911C181.063 110.238 181.788 110.546 182.658 110.836C183.565 111.089 184.652 111.361 185.921 111.651C187.733 112.086 189.328 112.521 190.705 112.956C192.083 113.391 193.225 113.899 194.131 114.479C195.073 115.059 195.78 115.765 196.251 116.599C196.723 117.433 196.958 118.448 196.958 119.644C196.958 122.254 195.962 124.32 193.968 125.843C191.974 127.365 189.292 128.126 185.921 128.126ZM215.244 128.126C213.178 128.126 211.275 127.746 209.535 126.984C207.831 126.187 206.345 125.118 205.076 123.776C203.808 122.399 202.811 120.822 202.086 119.046C201.397 117.27 201.053 115.367 201.053 113.337C201.053 111.343 201.397 109.476 202.086 107.736C202.811 105.96 203.79 104.42 205.022 103.115C206.291 101.774 207.795 100.722 209.535 99.9611C211.275 99.1637 213.16 98.7649 215.19 98.7649C217.256 98.7649 219.141 99.1637 220.845 99.9611C222.585 100.722 224.071 101.774 225.303 103.115C226.536 104.456 227.496 105.997 228.185 107.736C228.874 109.476 229.218 111.325 229.218 113.282C229.218 113.572 229.218 113.862 229.218 114.152C229.218 114.442 229.2 114.642 229.164 114.751H204.913C205.022 116.273 205.366 117.687 205.946 118.992C206.563 120.26 207.342 121.366 208.284 122.308C209.227 123.251 210.296 123.994 211.492 124.538C212.725 125.045 214.03 125.299 215.407 125.299C216.314 125.299 217.22 125.172 218.126 124.918C219.032 124.665 219.866 124.32 220.627 123.885C221.388 123.45 222.077 122.925 222.693 122.308C223.309 121.656 223.781 120.949 224.107 120.188L227.315 121.058C226.88 122.109 226.264 123.07 225.466 123.94C224.669 124.773 223.744 125.516 222.693 126.169C221.642 126.785 220.482 127.256 219.213 127.583C217.945 127.945 216.622 128.126 215.244 128.126ZM225.684 111.923C225.575 110.401 225.213 109.023 224.596 107.791C224.016 106.522 223.255 105.435 222.313 104.528C221.406 103.622 220.337 102.915 219.105 102.408C217.908 101.9 216.622 101.647 215.244 101.647C213.867 101.647 212.562 101.9 211.329 102.408C210.097 102.915 209.009 103.622 208.067 104.528C207.161 105.435 206.418 106.522 205.838 107.791C205.294 109.06 204.968 110.437 204.859 111.923H225.684ZM277.061 127.583H273.364V111.76C273.364 108.461 272.838 106.033 271.787 104.474C270.736 102.915 269.177 102.136 267.111 102.136C266.024 102.136 264.991 102.335 264.012 102.734C263.069 103.133 262.181 103.695 261.348 104.42C260.55 105.145 259.843 106.015 259.227 107.03C258.611 108.008 258.14 109.096 257.813 110.292V127.583H254.116V111.76C254.116 108.389 253.609 105.942 252.594 104.42C251.579 102.897 250.02 102.136 247.918 102.136C245.779 102.136 243.876 102.879 242.208 104.365C240.541 105.852 239.345 107.809 238.62 110.238V127.583H234.922V99.2543H238.294V105.67C239.454 103.495 240.976 101.81 242.861 100.614C244.746 99.3812 246.83 98.7649 249.114 98.7649C251.506 98.7649 253.409 99.4355 254.823 100.777C256.273 102.118 257.161 103.876 257.487 106.051C260.133 101.194 263.776 98.7649 268.416 98.7649C270.011 98.7649 271.352 99.0549 272.44 99.6349C273.563 100.215 274.451 101.049 275.104 102.136C275.793 103.187 276.282 104.474 276.572 105.997C276.898 107.483 277.061 109.15 277.061 110.999V127.583ZM298.753 128.126C296.506 128.126 294.44 127.564 292.555 126.441C290.706 125.317 289.256 123.867 288.205 122.091V127.583H284.888V87.8904H288.585V105.181C289.854 103.26 291.377 101.719 293.153 100.559C294.929 99.363 296.995 98.7649 299.351 98.7649C301.345 98.7649 303.121 99.1818 304.68 100.016C306.275 100.849 307.616 101.973 308.703 103.387C309.827 104.764 310.679 106.341 311.259 108.117C311.875 109.857 312.183 111.651 312.183 113.5C312.183 115.494 311.839 117.379 311.15 119.155C310.461 120.931 309.519 122.49 308.323 123.831C307.127 125.136 305.695 126.187 304.027 126.984C302.396 127.746 300.638 128.126 298.753 128.126ZM297.883 124.864C299.442 124.864 300.856 124.556 302.124 123.94C303.429 123.287 304.535 122.435 305.441 121.384C306.383 120.297 307.108 119.082 307.616 117.741C308.16 116.364 308.432 114.95 308.432 113.5C308.432 112.014 308.178 110.582 307.67 109.205C307.199 107.827 306.51 106.613 305.604 105.562C304.734 104.474 303.665 103.622 302.396 103.006C301.164 102.354 299.804 102.027 298.318 102.027C297.194 102.027 296.143 102.227 295.165 102.625C294.186 102.988 293.28 103.495 292.446 104.148C291.612 104.8 290.869 105.562 290.217 106.431C289.564 107.265 289.02 108.153 288.585 109.096V117.904C288.73 118.883 289.111 119.807 289.727 120.677C290.38 121.511 291.141 122.236 292.011 122.852C292.917 123.468 293.878 123.958 294.893 124.32C295.944 124.683 296.941 124.864 297.883 124.864ZM318.609 87.8904H322.307V121.167C322.307 122.218 322.597 123.051 323.177 123.668C323.757 124.248 324.572 124.538 325.624 124.538C326.022 124.538 326.493 124.483 327.037 124.375C327.581 124.266 328.088 124.121 328.56 123.94L329.212 126.93C328.523 127.22 327.672 127.456 326.657 127.637C325.678 127.818 324.826 127.909 324.101 127.909C322.397 127.909 321.056 127.438 320.078 126.495C319.099 125.516 318.609 124.157 318.609 122.417V87.8904ZM334.308 136.282C334.598 136.318 334.87 136.337 335.123 136.337C335.413 136.373 335.685 136.391 335.939 136.391C336.592 136.391 337.099 136.3 337.462 136.119C337.86 135.938 338.241 135.539 338.603 134.923C338.966 134.307 339.365 133.419 339.8 132.259C340.271 131.099 340.923 129.54 341.757 127.583L329.414 99.2543H333.22L343.714 124.157L353.447 99.2543H356.981L342.301 135.793C341.902 136.844 341.231 137.75 340.289 138.511C339.383 139.309 338.132 139.708 336.537 139.708C336.175 139.708 335.83 139.69 335.504 139.653C335.178 139.653 334.779 139.617 334.308 139.545V136.282Z" fill="black"/>
<path d="M132.326 30.8252H136.555L142.963 46.9728L149.435 30.8252H153.728L145.783 50.2408L154.497 70.8097L170.965 30.5049H175.835L156.548 76H152.575L143.027 53.5087L133.416 76H129.507L110.284 30.5049H115.089L131.621 70.8097L140.272 50.2408L132.326 30.8252ZM181.339 76V42.6155H185.696V76H181.339ZM181.339 35.6311V29.2233H185.696V35.6311H181.339ZM223.36 76H219.002V57.3534C219.002 53.3806 218.404 50.4971 217.208 48.7029C216.055 46.9087 214.261 46.0117 211.826 46.0117C210.544 46.0117 209.262 46.2466 207.981 46.7165C206.699 47.1864 205.503 47.8485 204.393 48.7029C203.325 49.5573 202.363 50.5825 201.509 51.7786C200.655 52.932 200.035 54.1922 199.651 55.5592V76H195.294V42.6155H199.266V50.1767C200.633 47.7417 202.577 45.7767 205.097 44.2816C207.661 42.7864 210.437 42.0388 213.428 42.0388C215.264 42.0388 216.824 42.3806 218.105 43.0641C219.387 43.7476 220.412 44.7087 221.181 45.9476C221.95 47.1864 222.505 48.7029 222.847 50.4971C223.189 52.2913 223.36 54.2777 223.36 56.4563V76ZM243.737 76.6408C241.131 76.6408 238.589 76.2136 236.112 75.3592C233.634 74.5049 231.498 73.266 229.704 71.6427L231.69 68.6951C233.57 70.233 235.471 71.3864 237.393 72.1553C239.358 72.9243 241.451 73.3087 243.673 73.3087C246.364 73.3087 248.5 72.7748 250.08 71.7068C251.704 70.5961 252.515 69.0369 252.515 67.0291C252.515 66.0893 252.302 65.3204 251.875 64.7223C251.447 64.0816 250.807 63.5262 249.952 63.0563C249.141 62.5864 248.094 62.1806 246.812 61.8388C245.574 61.4544 244.121 61.0699 242.455 60.6854C240.533 60.2155 238.867 59.7456 237.457 59.2757C236.047 58.8058 234.873 58.2718 233.933 57.6738C233.036 57.0757 232.352 56.3495 231.882 55.4951C231.455 54.5981 231.242 53.4874 231.242 52.1631C231.242 50.4971 231.562 49.0233 232.203 47.7417C232.886 46.4602 233.783 45.4136 234.894 44.6019C236.047 43.7476 237.372 43.1068 238.867 42.6796C240.405 42.2524 242.028 42.0388 243.737 42.0388C246.3 42.0388 248.628 42.466 250.721 43.3204C252.814 44.132 254.502 45.2214 255.783 46.5883L253.669 49.1515C252.43 47.8699 250.913 46.9087 249.119 46.268C247.368 45.6272 245.531 45.3068 243.609 45.3068C242.455 45.3068 241.387 45.435 240.405 45.6913C239.422 45.9049 238.546 46.268 237.778 46.7806C237.051 47.2932 236.475 47.9553 236.047 48.767C235.62 49.5359 235.407 50.4544 235.407 51.5223C235.407 52.4194 235.556 53.1456 235.855 53.701C236.154 54.2563 236.646 54.7476 237.329 55.1748C238.012 55.5592 238.867 55.9223 239.892 56.2641C240.96 56.5631 242.242 56.8835 243.737 57.2252C245.873 57.7379 247.752 58.2505 249.376 58.7631C250.999 59.2757 252.345 59.8738 253.412 60.5573C254.523 61.2408 255.356 62.0738 255.912 63.0563C256.467 64.0388 256.745 65.235 256.745 66.6447C256.745 69.7204 255.57 72.1553 253.22 73.9495C250.871 75.7437 247.71 76.6408 243.737 76.6408ZM279.896 74.3981C279.64 74.5262 279.255 74.6971 278.743 74.9107C278.273 75.1243 277.717 75.3379 277.077 75.5515C276.436 75.765 275.71 75.9573 274.898 76.1282C274.086 76.299 273.232 76.3845 272.335 76.3845C271.395 76.3845 270.498 76.2563 269.644 76C268.789 75.7437 268.042 75.3592 267.401 74.8466C266.76 74.2913 266.248 73.6078 265.863 72.7961C265.479 71.9845 265.286 71.0447 265.286 69.9767V46.0757H260.673V42.6155H265.286V31.3379H269.644V42.6155H277.333V46.0757H269.644V68.7592C269.729 69.9981 270.156 70.9165 270.925 71.5146C271.737 72.0699 272.655 72.3476 273.681 72.3476C274.919 72.3476 276.009 72.1553 276.949 71.7709C277.888 71.3437 278.486 71.0447 278.743 70.8738L279.896 74.3981ZM298.752 76.6408C296.317 76.6408 294.096 76.1922 292.088 75.2951C290.08 74.3553 288.329 73.0951 286.834 71.5146C285.381 69.934 284.249 68.0971 283.437 66.0039C282.626 63.9107 282.22 61.7107 282.22 59.4039C282.22 57.0544 282.626 54.833 283.437 52.7398C284.292 50.6466 285.445 48.8097 286.898 47.2291C288.393 45.6485 290.144 44.3883 292.152 43.4485C294.16 42.5087 296.36 42.0388 298.752 42.0388C301.144 42.0388 303.344 42.5087 305.352 43.4485C307.402 44.3883 309.154 45.6485 310.606 47.2291C312.101 48.8097 313.255 50.6466 314.067 52.7398C314.921 54.833 315.348 57.0544 315.348 59.4039C315.348 61.7107 314.942 63.9107 314.131 66.0039C313.319 68.0971 312.166 69.934 310.67 71.5146C309.218 73.0951 307.467 74.3553 305.416 75.2951C303.408 76.1922 301.187 76.6408 298.752 76.6408ZM286.641 59.468C286.641 61.3476 286.962 63.099 287.602 64.7223C288.243 66.3029 289.098 67.7126 290.166 68.9515C291.276 70.1476 292.558 71.0874 294.01 71.7709C295.505 72.4544 297.086 72.7961 298.752 72.7961C300.418 72.7961 301.977 72.4544 303.43 71.7709C304.925 71.0447 306.228 70.0835 307.338 68.8874C308.449 67.6485 309.325 66.2175 309.966 64.5942C310.606 62.9709 310.927 61.2194 310.927 59.3398C310.927 57.5029 310.606 55.7728 309.966 54.1495C309.325 52.4835 308.449 51.0524 307.338 49.8563C306.228 48.6175 304.925 47.6563 303.43 46.9728C301.977 46.2466 300.418 45.8835 298.752 45.8835C297.086 45.8835 295.527 46.2466 294.074 46.9728C292.622 47.6563 291.34 48.6175 290.23 49.8563C289.119 51.0951 288.243 52.5476 287.602 54.2136C286.962 55.8369 286.641 57.5883 286.641 59.468ZM350.701 76H346.344V57.3534C346.344 53.3806 345.746 50.4971 344.55 48.7029C343.397 46.9087 341.602 46.0117 339.167 46.0117C337.886 46.0117 336.604 46.2466 335.323 46.7165C334.041 47.1864 332.845 47.8485 331.734 48.7029C330.666 49.5573 329.705 50.5825 328.851 51.7786C327.997 52.932 327.377 54.1922 326.993 55.5592V76H322.635V42.6155H326.608V50.1767C327.975 47.7417 329.919 45.7767 332.439 44.2816C335.002 42.7864 337.779 42.0388 340.769 42.0388C342.606 42.0388 344.165 42.3806 345.447 43.0641C346.729 43.7476 347.754 44.7087 348.523 45.9476C349.292 47.1864 349.847 48.7029 350.189 50.4971C350.531 52.2913 350.701 54.2777 350.701 56.4563V76Z" fill="black"/>
</g>
<defs>
<filter id="filter0_d" x="-1.25583" y="31.4596" width="99.2107" height="98.8967" filterUnits="userSpaceOnUse" color-interpolation-filters="sRGB">
<feFlood flood-opacity="0" result="BackgroundImageFix"/>
<feColorMatrix in="SourceAlpha" type="matrix" values="0 0 0 0 0 0 0 0 0 0 0 0 0 0 0 0 0 0 127 0"/>
<feOffset dy="1.25583"/>
<feGaussianBlur stdDeviation="0.627916"/>
<feColorMatrix type="matrix" values="0 0 0 0 0 0 0 0 0 0 0 0 0 0 0 0 0 0 0.25 0"/>
<feBlend mode="normal" in2="BackgroundImageFix" result="effect1_dropShadow"/>
<feBlend mode="normal" in="SourceGraphic" in2="effect1_dropShadow" result="shape"/>
</filter>
<clipPath id="clip0">
<rect width="360" height="155" fill="white"/>
</clipPath>
</defs>
</svg>
