<?xml version="1.0" encoding="utf-8"?>
<!-- Generator: Adobe Illustrator 24.0.2, SVG Export Plug-In . SVG Version: 6.00 Build 0)  -->
<svg version="1.1" id="Ebene_1" xmlns="http://www.w3.org/2000/svg" xmlns:xlink="http://www.w3.org/1999/xlink" x="0px" y="0px"
	 viewBox="0 0 2800 2800" style="enable-background:new 0 0 2800 2800;" xml:space="preserve">
<style type="text/css">
	.st0{fill:#4182E4;}
	.st1{fill:#FFFFFF;}
</style>
<rect class="st0" width="2800" height="2800"/>
<g>
	<path class="st1" d="M1398.6,2290.34c-364.79,0-689.78-218.16-827.95-555.8c-186.74-456.39,32.61-979.6,488.97-1166.33
		c108.39-44.35,222.23-66.84,338.38-66.84c364.8,0,689.79,218.17,827.95,555.8c186.75,456.37-32.6,979.58-488.97,1166.33
		C1628.59,2267.86,1514.74,2290.34,1398.6,2290.34z M1398,586.85c-104.99,0-207.94,20.35-306.01,60.47
		C679.25,816.2,480.86,1289.4,649.75,1702.15c124.98,305.39,418.91,502.72,748.85,502.72c104.99,0,207.94-20.34,306-60.47
		c412.75-168.9,611.14-642.11,442.24-1054.85C2021.89,784.17,1727.95,586.85,1398,586.85z"/>
	<g>
		<g>
			<g>
				<g>
					<g>
						<g>
							<g>
								<path class="st1" d="M1032,541.41c-16.64,0-32.45-9.77-39.36-26.06c0,0-23.47-55.3-51.77-124.48
									c-12.18-29.76-49.9-16.71-54.16-15.13c-22.13,8.24-46.72-3.06-54.94-25.18c-8.22-22.13,3.06-46.72,25.19-54.94
									c47.91-17.81,130.86-15.73,163.02,62.89c28.07,68.62,51.35,123.46,51.35,123.46c9.22,21.72-0.92,46.81-22.65,56.04
									C1043.23,540.3,1037.56,541.41,1032,541.41z"/>
								<path class="st1" d="M1008.62,486.33c-16.84,0-32.8-10.02-39.57-26.57l-28.19-68.9c-32.17-78.62,25.54-138.23,72.18-159.12
									c21.53-9.66,46.83,0,56.47,21.54c9.65,21.54,0.01,46.83-21.53,56.47c-9.18,4.32-39.33,21.06-28.01,48.75l28.19,68.91
									c8.93,21.84-1.53,46.8-23.38,55.74C1019.49,485.31,1014.01,486.33,1008.62,486.33z"/>
							</g>
						</g>
					</g>
				</g>
			</g>
		</g>
	</g>
	<g>
		<g>
			<g>
				<g>
					<g>
						<g>
							<g>
								<path class="st1" d="M1890.85,2513.52c-42.33,0-88.65-17.81-110.83-72.04l-55.44-135.47c-8.95-21.84,1.52-46.8,23.36-55.73
									c21.82-8.96,46.8,1.52,55.74,23.37l55.45,135.47c12.18,29.73,49.88,16.72,54.14,15.14c22.15-8.21,46.72,3.06,54.94,25.18
									c8.22,22.12-3.05,46.72-25.18,54.94C1928.15,2509.9,1909.91,2513.52,1890.85,2513.52z"/>
								<path class="st1" d="M1769.49,2572c-16.33,0-31.93-9.42-39.03-25.29c-9.65-21.53-0.01-46.82,21.54-56.47
									c9.18-4.33,39.34-21.08,28.02-48.76l-42.94-104.92c-8.94-21.84,1.52-46.8,23.37-55.73c21.86-8.93,46.81,1.53,55.74,23.37
									l42.94,104.92c32.18,78.62-25.54,138.23-72.19,159.12C1781.26,2570.79,1775.33,2572,1769.49,2572z"/>
							</g>
						</g>
					</g>
				</g>
			</g>
		</g>
	</g>
	<g>
		<g>
			<g>
				<g>
					<g>
						<g>
							<g>
								<path class="st1" d="M335.49,1970.71c-17.3,0-33.5-10.52-39.87-27.68c-17.79-47.9-15.73-130.83,62.89-163.02l131.52-53.81
									c21.83-8.93,46.8,1.52,55.74,23.36c8.94,21.85-1.52,46.8-23.36,55.75l-131.54,53.82c-27.68,11.33-18.48,44.56-15,54.49
									c7.76,22.12-3.69,46.56-25.75,54.54C345.29,1969.88,340.34,1970.71,335.49,1970.71z"/>
								<path class="st1" d="M345.75,1868.45c-55.99,0-97.32-44.28-113.99-81.51c-9.65-21.53-0.01-46.81,21.54-56.47
									c21.52-9.64,46.83-0.01,56.47,21.53c4.32,9.18,21.08,39.34,48.74,27.99l104.92-42.93c21.83-8.93,46.8,1.52,55.74,23.37
									c8.95,21.84-1.52,46.8-23.36,55.73l-104.94,42.94C375,1865.61,359.9,1868.45,345.75,1868.45z"/>
							</g>
						</g>
					</g>
				</g>
			</g>
		</g>
	</g>
	<g>
		<g>
			<g>
				<g>
					<g>
						<g>
							<g>
								<path class="st1" d="M2294.74,1076.6c-16.83,0-32.79-10.02-39.57-26.56c-8.95-21.85,1.52-46.8,23.36-55.74l130.59-53.44
									c27.68-11.33,18.48-44.57,15-54.49c-7.75-22.13,3.7-46.57,25.75-54.54c22.04-7.98,46.34,3.14,54.5,25.12
									c17.79,47.9,15.73,130.83-62.89,163.01l-130.57,53.43C2305.62,1075.57,2300.14,1076.6,2294.74,1076.6z"/>
								<path class="st1" d="M2529.27,1073.27c-16.33,0-31.92-9.41-39.02-25.29c-4.32-9.18-21.12-39.33-48.75-28.01l-93.19,38.13
									c-21.83,8.95-46.8-1.51-55.75-23.35c-8.95-21.84,1.51-46.81,23.35-55.75l93.22-38.14c78.6-32.15,138.24,25.54,159.12,72.19
									c9.65,21.53,0.01,46.82-21.53,56.47C2541.04,1072.06,2535.11,1073.27,2529.27,1073.27z"/>
							</g>
						</g>
					</g>
				</g>
			</g>
		</g>
	</g>
	<g>
		<g>
			<g>
				<g>
					<g>
						<g>
							<g>
								<path class="st1" d="M273.88,1063.39c-6.05,0-12.17-1.29-17.99-4.02c-21.23-9.96-30.56-34.98-20.79-56.3
									c21.28-46.45,81.39-103.67,159.73-70.82l115.66,48.49c21.77,9.13,32.02,34.17,22.89,55.93
									c-9.11,21.77-34.13,32.06-55.93,22.89l-115.66-48.49c-27.59-11.57-44.58,18.46-49.13,27.93
									C305.28,1054.35,289.88,1063.39,273.88,1063.39z"/>
								<path class="st1" d="M506.2,1068.05c-5.5,0-11.1-1.07-16.5-3.34l-127.92-53.63c-78.35-32.84-79.69-115.8-61.46-163.56
									c8.41-22.05,33.14-33.11,55.16-24.69c22.06,8.41,33.11,33.11,24.69,55.16c-3.44,9.54-12.92,42.7,14.66,54.26l127.91,53.63
									c21.76,9.12,32.02,34.16,22.89,55.93C538.77,1058.19,522.91,1068.05,506.2,1068.05z"/>
							</g>
						</g>
					</g>
				</g>
			</g>
		</g>
	</g>
	<g>
		<g>
			<g>
				<g>
					<g>
						<g>
							<g>
								<path class="st1" d="M2451.11,1877.44c-14.43,0-29.81-2.95-45.97-9.71l-135.3-56.73c-21.77-9.13-32.02-34.17-22.89-55.92
									c9.12-21.76,34.15-32.04,55.93-22.9l135.31,56.73c27.59,11.55,44.6-18.45,49.15-27.92c10.16-21.13,35.53-30.34,56.77-20.36
									c21.23,9.96,30.55,34.97,20.78,56.29C2547.99,1833.82,2506.63,1877.44,2451.11,1877.44z"/>
								<path class="st1" d="M2459.74,1979.99c-5.06,0-10.21-0.9-15.23-2.82c-22.05-8.4-33.11-33.11-24.69-55.16
									c3.43-9.54,12.92-42.69-14.68-54.27c-67.1-28.14-106.06-43.12-106.44-43.29c-22.03-8.46-33.04-33.17-24.57-55.2
									c8.46-22.05,33.19-33.03,55.22-24.58c1.61,0.63,40.41,15.54,108.85,44.25c78.35,32.85,79.69,115.8,61.48,163.56
									C2493.17,1969.51,2476.94,1979.99,2459.74,1979.99z"/>
							</g>
						</g>
					</g>
				</g>
			</g>
		</g>
	</g>
	<g>
		<g>
			<g>
				<g>
					<g>
						<g>
							<g>
								<path class="st1" d="M1020.75,2568.77c-5.92,0-11.93-1.25-17.68-3.87c-46.46-21.3-103.66-81.41-70.8-159.76
									c28.6-68.22,56.74-131.94,57.02-132.58c9.54-21.59,34.77-31.34,56.36-21.82c21.59,9.53,31.36,34.76,21.82,56.35
									c-0.28,0.64-28.1,63.66-56.38,131.1c-11.57,27.6,18.44,44.6,27.91,49.15c21.14,10.16,30.33,35.55,20.37,56.77
									C1052.1,2559.62,1036.78,2568.77,1020.75,2568.77z"/>
								<path class="st1" d="M900.95,2509.27c-19.54,0-38.25-3.81-53.41-9.6c-22.05-8.42-33.11-33.11-24.7-55.16
									c8.41-22.06,33.11-33.1,55.16-24.69c9.54,3.44,42.69,12.92,54.27-14.68l43.76-104.37l78.82,33.04l-43.76,104.38
									C988.68,2491.67,942.92,2509.27,900.95,2509.27z"/>
							</g>
						</g>
					</g>
				</g>
			</g>
		</g>
	</g>
	<g>
		<g>
			<g>
				<g>
					<g>
						<g>
							<g>
								<path class="st1" d="M1774.88,548.46c-5.5,0-11.1-1.07-16.5-3.34c-21.77-9.12-32.02-34.17-22.89-55.93l53.41-127.42
									c11.56-27.58-18.46-44.58-27.93-49.13c-21.14-10.16-30.33-35.54-20.37-56.76c9.96-21.24,34.98-30.55,56.3-20.79
									c46.47,21.29,103.67,81.4,70.82,159.74l-53.41,127.4C1807.46,538.6,1791.59,548.46,1774.88,548.46z"/>
								<path class="st1" d="M1790.74,510.63c-5.5,0-11.1-1.07-16.5-3.33c-21.76-9.12-32.02-34.16-22.9-55.94l37.56-89.59
									c32.85-78.34,115.81-79.66,163.57-61.47c22.05,8.42,33.11,33.11,24.7,55.17c-8.41,22.06-33.09,33.1-55.17,24.7
									c-9.55-3.44-42.71-12.94-54.27,14.66l-37.55,89.57C1823.31,500.77,1807.45,510.63,1790.74,510.63z"/>
							</g>
						</g>
					</g>
				</g>
			</g>
		</g>
	</g>
	<g>
		<g>
			<g>
				<g>
					<g>
						<g>
							<g>
								<g>
									<g>
										<g>
											<path class="st1" d="M792.44,821.29c-11.07,0-22.13-4.27-30.49-12.8l-76.41-77.84c-22.52-22.95-52.5,3.37-55.84,6.45
												c-17.37,15.97-44.41,14.84-60.39-2.53c-15.97-17.38-14.85-44.41,2.53-60.39c37.62-34.58,115.2-64.06,174.71-3.4
												l76.39,77.83c16.54,16.84,16.29,43.9-0.56,60.43C814.06,817.22,803.25,821.29,792.44,821.29z"/>
											<path class="st1" d="M843.15,880.08c-11.71,0-23.37-4.79-31.82-14.18c-0.74-0.84-74.93-83.42-125.8-135.24
												c-59.51-60.65-28.61-137.65,6.68-174.61c16.31-17.08,43.35-17.7,60.42-1.4c17.08,16.3,17.7,43.35,1.41,60.42
												c-6.86,7.47-28.46,34.37-7.5,55.73c52.2,53.19,125.31,134.56,128.4,138c15.77,17.56,14.31,44.59-3.25,60.36
												C863.53,876.47,853.33,880.08,843.15,880.08z"/>
										</g>
									</g>
								</g>
							</g>
						</g>
					</g>
				</g>
				<g>
					<g>
						<g>
							<g>
								<g>
									<g>
										<g>
											<path class="st1" d="M2130.2,2155.93c-27.04,0-55.18-9.57-80.15-35.02l-76.38-77.82c-16.53-16.85-16.29-43.89,0.55-60.45
												c16.83-16.53,43.89-16.3,60.44,0.56l76.4,77.85c22.52,22.93,52.5-3.4,55.84-6.47c17.37-15.98,44.41-14.84,60.38,2.52
												c15.98,17.39,14.85,44.41-2.53,60.39C2202.93,2137.56,2167.62,2155.93,2130.2,2155.93z"/>
											<path class="st1" d="M2073.46,2248.88c-10.61,0-21.22-3.92-29.5-11.82c-17.08-16.3-17.7-43.35-1.4-60.43
												c6.87-7.46,28.46-34.36,7.5-55.72c-51.1-52.07-127.56-125.55-128.33-126.31c-17.02-16.34-17.57-43.4-1.22-60.42
												c16.34-17.03,43.4-17.57,60.43-1.21c0.78,0.74,78.16,75.1,130.12,128.07c59.51,60.63,28.62,137.64-6.68,174.59
												C2095.99,2244.45,2084.73,2248.88,2073.46,2248.88z"/>
										</g>
									</g>
								</g>
							</g>
						</g>
					</g>
				</g>
			</g>
			<g>
				<g>
					<g>
						<g>
							<g>
								<g>
									<g>
										<g>
											<path class="st1" d="M708.13,2236.11c-11.54,0-23.05-4.65-31.47-13.8c-34.6-37.62-64.06-115.19-3.42-174.7l77.85-76.4
												c16.85-16.53,43.89-16.28,60.44,0.58c16.53,16.83,16.27,43.91-0.58,60.43l-77.84,76.39
												c-22.94,22.51,3.37,52.49,6.45,55.83c15.98,17.37,14.85,44.41-2.52,60.39C728.83,2232.39,718.46,2236.11,708.13,2236.11z
												"/>
											<path class="st1" d="M654.45,2142.15c-38.22,0-74.08-19.34-95.95-40.22c-17.07-16.29-17.7-43.35-1.4-60.42
												c16.3-17.08,43.36-17.7,60.43-1.41c7.45,6.86,34.37,28.45,55.72,7.5c52.34-51.36,126.24-125.51,126.98-126.26
												c16.65-16.71,43.72-16.78,60.44-0.11c16.72,16.67,16.76,43.73,0.1,60.45c-0.74,0.74-74.97,75.22-127.65,126.93
												C708.35,2132.92,680.84,2142.15,654.45,2142.15z"/>
										</g>
									</g>
								</g>
							</g>
						</g>
					</g>
				</g>
				<g>
					<g>
						<g>
							<g>
								<g>
									<g>
										<g>
											<path class="st1" d="M2015.6,832.71c-11.07,0-22.13-4.27-30.5-12.8c-16.54-16.84-16.29-43.9,0.56-60.43l77.84-76.39
												c22.93-22.51-3.39-52.49-6.46-55.84c-15.98-17.37-14.85-44.41,2.52-60.38c17.37-15.99,44.41-14.84,60.38,2.52
												c34.59,37.61,64.05,115.18,3.42,174.69l-77.83,76.38C2037.21,828.63,2026.41,832.71,2015.6,832.71z"/>
											<path class="st1" d="M1969.57,892.91c-9.68,0-19.42-3.27-27.41-9.97c-18.1-15.16-20.48-42.11-5.34-60.2
												c2.94-3.51,72.67-86.66,126.67-139.65c60.61-59.51,137.63-28.63,174.61,6.68c17.08,16.3,17.7,43.35,1.41,60.42
												c-16.3,17.08-43.35,17.7-60.42,1.4c-7.48-6.86-34.37-28.47-55.72-7.51c-50.99,50.05-120.31,132.7-121,133.53
												C1993.91,887.7,1981.78,892.91,1969.57,892.91z"/>
										</g>
									</g>
								</g>
							</g>
						</g>
					</g>
				</g>
			</g>
		</g>
		<g>
			<g>
				<g>
					<g>
						<g>
							<g>
								<g>
									<g>
										<g>
											<path class="st1" d="M346.34,1514.26c-0.72,0-1.45,0-2.19-0.05c-23.41-1.2-41.5-20.81-40.53-44.25
												c2.14-51.06,36.27-126.3,121.12-125.94l109.07,1.02c23.6,0.23,42.55,19.55,42.32,43.15
												c-0.23,23.46-19.32,42.33-42.73,42.33c-0.14,0-0.28,0-0.42,0l-109.03-1.03c-30.37-0.06-34.31,33.92-34.95,44.41
												C387.64,1496.56,368.81,1514.26,346.34,1514.26z"/>
											<path class="st1" d="M533.4,1430.51c-0.14,0-0.28,0-0.42,0l-109.03-1.03c-84.97-0.78-117.58-77.1-118.75-128.2
												c-0.55-23.59,18.14-43.17,41.74-43.71c23.59-0.45,43.17,18.14,43.71,41.74c0.43,10.13,4.17,44.43,34.09,44.7l109.07,1.02
												c23.6,0.23,42.55,19.55,42.32,43.15C575.9,1411.64,556.82,1430.51,533.4,1430.51z"/>
										</g>
									</g>
								</g>
							</g>
						</g>
					</g>
				</g>
				<g>
					<g>
						<g>
							<g>
								<g>
									<g>
										<g>
											<path class="st1" d="M2373.18,1447.68c-0.44,0-0.87,0-1.31,0l-109.08-1.03c-23.6-0.22-42.56-19.53-42.33-43.13
												c0.23-23.6,19.83-42.31,43.14-42.33l109.06,1.02c32.4,0.56,34.74-39.51,34.93-44.05c0.99-23.57,20.9-41.71,44.49-40.91
												c23.58,0.99,41.9,20.92,40.91,44.5C2490.85,1372.53,2457.16,1447.68,2373.18,1447.68z"/>
											<path class="st1" d="M2448.66,1534.13c-23.14,0-42.16-18.47-42.7-41.74c-0.43-10.14-4.19-44.44-34.1-44.71l-109.08-1.03
												c-23.6-0.22-42.56-19.53-42.33-43.13c0.23-23.6,19.83-42.31,43.14-42.33l109.06,1.02
												c84.95,0.79,117.56,77.1,118.75,128.18c0.55,23.6-18.13,43.18-41.73,43.73C2449.34,1534.13,2449,1534.13,2448.66,1534.13
												z"/>
										</g>
									</g>
								</g>
							</g>
						</g>
					</g>
				</g>
			</g>
			<g>
				<g>
					<g>
						<g>
							<g>
								<g>
									<g>
										<g>
											<path class="st1" d="M1474.23,2490.56c-0.6,0-1.21-0.01-1.82-0.03c-51.05-2.14-126.72-36.17-125.94-121.12l1.02-109.08
												c0.23-23.47,19.32-42.33,42.73-42.33c0.14,0,0.28,0,0.42,0c23.6,0.24,42.55,19.56,42.33,43.15l-1.02,109.04
												c-0.3,32.14,39.51,34.74,44.05,34.92c23.58,1,41.9,20.92,40.91,44.5C1515.93,2472.59,1497.01,2490.56,1474.23,2490.56z"
												/>
											<path class="st1" d="M1302.74,2488.97c-23.14,0-42.16-18.49-42.7-41.75c-0.55-23.59,18.13-43.17,41.73-43.72
												c10.13-0.42,44.44-4.17,44.7-34.09l1.02-109.08c0.23-23.47,19.32-42.33,42.73-42.33c0.14,0,0.28,0,0.42,0
												c23.6,0.24,42.55,19.56,42.33,43.15l-1.02,109.04c-0.78,84.95-77.09,117.57-128.19,118.75
												C1303.42,2488.96,1303.08,2488.97,1302.74,2488.97z"/>
										</g>
									</g>
								</g>
							</g>
						</g>
					</g>
				</g>
				<g>
					<g>
						<g>
							<g>
								<g>
									<g>
										<g>
											<path class="st1" d="M1406.38,573.69c-0.14,0-0.27,0-0.41,0c-23.6-0.22-42.56-19.54-42.34-43.14l1.02-109.05
												c0.3-32.14-39.51-34.74-44.05-34.93c-23.58-0.99-41.89-20.92-40.9-44.5c1-23.58,20.95-41.8,44.5-40.9
												c51.04,2.16,126.71,36.18,125.92,121.13l-1.02,109.06C1448.89,554.81,1429.79,573.69,1406.38,573.69z"/>
											<path class="st1" d="M1406.38,573.69c-0.14,0-0.27,0-0.41,0c-23.6-0.22-42.56-19.54-42.34-43.14l1.02-109.05
												c0.79-84.95,77.1-117.56,128.2-118.76c23.16-0.68,43.18,18.13,43.73,41.72c0.55,23.59-18.13,43.18-41.72,43.73
												c-10.14,0.43-44.45,4.19-44.73,34.1l-1.02,109.06C1448.89,554.81,1429.79,573.69,1406.38,573.69z"/>
										</g>
									</g>
								</g>
							</g>
						</g>
					</g>
				</g>
			</g>
		</g>
	</g>
	<g>
		<path class="st1" d="M1321,1007.64l-110.73,836.73H879.76l-125.72-836.73h229.47c26.66,230.48,45.71,425.5,57.11,585.04
			c11.24-161.24,23.17-304.39,35.8-429.44l15.11-155.59H1321z"/>
		<path class="st1" d="M1818.69,1260.88h-202.07v-62.02c0-28.94-2.59-47.37-7.75-55.3c-5.17-7.92-13.78-11.89-25.84-11.89
			c-13.1,0-23,5.34-29.72,16.04c-6.72,10.69-10.08,26.89-10.08,48.61c0,27.93,3.77,48.96,11.33,63.09
			c7.21,14.14,27.71,31.19,61.48,51.16c96.85,57.49,157.86,104.66,183.01,141.53c25.15,36.87,37.73,96.31,37.73,178.3
			c0,59.61-6.98,103.54-20.93,131.79c-13.95,28.25-40.92,51.94-80.88,71.06c-39.97,19.12-86.49,28.68-139.54,28.68
			c-58.23,0-107.94-11.03-149.1-33.08c-41.18-22.05-68.14-50.13-80.88-84.24c-12.75-34.11-19.12-82.51-19.12-145.23v-54.78h202.08
			v101.81c0,31.36,2.84,51.51,8.53,60.47c5.69,8.96,15.76,13.44,30.24,13.44c14.47,0,25.23-5.69,32.3-17.06
			c7.06-11.37,10.59-28.25,10.59-50.65c0-49.27-6.72-81.48-20.16-96.65c-13.78-15.16-47.72-40.48-101.81-75.97
			c-54.1-35.83-89.93-61.84-107.5-78.04c-17.57-16.19-32.13-38.58-43.67-67.19c-11.55-28.59-17.31-65.12-17.31-109.56
			c0-64.08,8.18-110.94,24.55-140.57c16.36-29.63,42.81-52.8,79.33-69.51c36.52-16.71,80.62-25.07,132.3-25.07
			c56.5,0,104.66,9.13,144.45,27.39c39.8,18.27,66.15,41.26,79.07,68.99c12.92,27.74,19.38,74.86,19.38,141.35V1260.88z"/>
		<path class="st1" d="M2037.82,1673.82v170.55h-157.63v-170.55H2037.82z"/>
	</g>
</g>
</svg>
